<?xml version="1.0" standalone="no"?>
<svg version="1.1" id="Layer_1" xmlns="http://www.w3.org/2000/svg" xmlns:xlink="http://www.w3.org/1999/xlink" x="0px" y="0px" width="595.28px" height="595.28px" viewBox="0 0 595.28 595.28" enable-background="new 0 0 595.28 595.28" xml:space="preserve">
<path id="color_x5F_2" fill="#FBC02D" d="M413.415,470.447c2.12,6.742,4.35,13.45,6.609,20.146c1.13,3.348,2.151,6.814,3.468,10.131
	c-11.356-6.188-15.546-18.687-18.878-30.775C407.551,470.07,410.478,470.362,413.415,470.447z M491.757,519.214
	c0.078-0.021,0.161-0.044,0.244-0.065c-1.174,0.118-2.345,0.192-3.514,0.231C489.953,519.429,491.114,519.39,491.757,519.214z
	 M489.233,508.909c-1.102-0.735-2.326-1.568-2.847-2.851c-0.954-2.356-2.683-2.503-5.009-2.234
	c-1.025,0.118-2.106,0.315-3.203,0.488c-0.158,0.103-0.348,0.19-0.584,0.253c-7.012,1.844-14.432,2.037-21.644,2.069
	c-1.973,0.009-1.326-2.003,0.287-2.01c4.865-0.021,9.853-0.103,14.726-0.755c-1.703-1.031-1.928-2.957-2.967-5.117
	c-2.213-4.6-4.91-6.799-9.538-8.737c-1.163-0.487-3.064-1.034-4.625-1.853c-0.115,0.023-0.235,0.041-0.364,0.042
	c-5.588,0.032-11.162,0.465-16.75,0.5c-1.967,0.013-1.416-2.14,0.25-2.15c4.847-0.031,9.685-0.347,14.529-0.454
	c-0.012-0.024-0.029-0.047-0.04-0.072c-1.267-2.829-2.109-5.903-3.084-8.839c-4.633-13.959-9.107-27.97-13.634-41.964
	c-4.6-14.22-9.149-28.461-13.986-42.603c-1.089-3.183-1.999-6.626-3.525-9.639c-1.87-3.691-7.285-8.915-11.024-10.525
	c-4.502-1.938-9.659-1.98-14.003-4.231c-0.556,1.5-1.418,3.032-2.427,4.514c0.024,0.088,0.04,0.184,0.04,0.289
	c-0.031,31.084-1.27,62.169,3.609,93c2.02,12.76,4.613,29.187,13.305,39.339c6.799,7.942,16.867,8.562,26.643,8.524
	c-1.367-0.815-2.644-1.809-3.797-3.028c-2.173-2.298-3.766-4.946-5.061-7.759c-0.311,0.069-0.593,0.085-0.788,0.006
	c-13.927-5.631-18.516-19.627-22.179-33.004c-0.055-0.2,0.249-0.423,0.675-0.606c0.092-0.453,1.271-1.141,1.952-1.133
	c2.922,0.032,5.828,0.337,8.743,0.495c-0.895-2.874-1.771-5.754-2.611-8.645c-5.802-19.979-10.3-40.328-11.149-61.175
	c-0.047-1.13,2.861-1.684,2.918-0.283c0.738,18.095,4.251,35.955,9.062,53.382c1.567,5.677,3.247,11.321,5.003,16.941
	c0.141,0.086,0.166,0.205,0.105,0.342c0.84,2.682,1.69,5.36,2.565,8.031c2.571,7.851,4.775,16.102,8.06,23.687
	c2.264,5.228,5.654,10.331,11.274,12.341c0.382,0.137,0.771,0.242,1.157,0.361c0.038,0,0.076-0.001,0.114-0.001
	c0.485-0.001,0.817,0.133,1.021,0.335c4.778,1.24,9.814,1.231,14.731,1.092c7.417-0.21,14.645,0.865,22.003,1.634
	c2.441,0.255,20.212,1.085,21.901-1.84C498.412,511.218,491.967,510.733,489.233,508.909z M314.701,490
	c2.696-2.442,4.702-5.503,6.364-8.72c2.928-5.666,4.91-11.754,7.746-17.45c-3.067-0.441-6.127-0.853-9.219-0.996
	c-1.994,5.075-4.476,9.955-7.572,14.515c-2.881,4.241-6.26,7.82-10.335,10.713C305.427,491.11,310.394,493.901,314.701,490z
	 M336.128,360.65c-7.061-2.397-10.77-10.778-14.164-16.802c-3.87-6.867-7.992-14.991-14.598-19.661
	c-6.07-4.292-14.859-4.825-18.662,2.507c-6.34,12.226-4.643,29.113-3.8,42.328c0.794,12.46,2.827,24.974,2.909,37.465
	c0.001,0.109-0.034,0.211-0.086,0.308c6.297-0.192,13.863,1.458,19.53-1.142c5.136-2.355,3.878-7.692,3.834-12.386
	c-0.14-14.739-0.582-29.477-0.608-44.216c-0.003-1.182,2.92-1.695,2.922-0.27c0.008,3.972,0.062,7.942,0.128,11.913
	c0.278,0.075,0.462,0.236,0.449,0.512c-0.249,5.242,0.553,10.063,1.981,14.651c1.003,2.584,2.198,5.582,3.399,8.559
	c2.622,5.559,5.826,10.943,8.758,16.541c1.09-6.529,1.934-13.074,2.011-19.731c0.012-0.987,2.916-1.593,2.902-0.35
	c-0.106,9.097-1.642,17.98-3.282,26.902c-1.644,8.938-2.662,17.86-3.628,26.89c-0.963,9.009-2.777,18.051-5.93,26.579
	c3.647,0.122,7.248,0.619,10.862,1.138c0.601-0.048,1.08,0.029,0.967,0.251c-4.283,8.334-6.399,18.333-12.885,25.396
	c-5.802,6.317-13.093,6.409-19.625,1.458c-0.507,0.311-1.013,0.623-1.541,0.914c-2.728,1.506-9.546,1.396-10.19,5.205
	c-0.346,2.036-0.234,4.509-2.044,5.905c-3.386,2.613-7.591,2.993-11.722,3.394c-1.635,0.159-8.323,0.375-6.443,3.697
	c1.001,1.771,4.646,2.104,7.771,2.156c0.297-0.13,0.607-0.211,0.866-0.198c12.609,0.635,26.459,0.13,38.214-5.129
	c0.491-0.295,0.936-0.536,1.264-0.702c0.205-0.104,0.411-0.158,0.61-0.18c2.555-1.281,5.004-2.791,7.296-4.602
	c14.788-11.677,20.415-30.427,22.563-48.472c2.052-17.232,1.826-34.658,3.447-51.936c1.133-12.075,2.089-28.223,11.006-37.538
	C353.475,358.517,343.774,363.247,336.128,360.65z M310.476,508.569c-2.729,0.924-5.525,1.641-8.362,2.197
	C305.023,510.405,308.264,509.751,310.476,508.569z M276.88,305.021c4.309-2.851,8.788-5.372,13.514-7.448
	c-27.355-13.952-27.114-49.896-32.477-76.333c-1.444-7.121-1.489-14.449-2.189-21.661c-0.682-7.035-1.291-15.864-5.758-21.714
	c-9.092-11.906-26.227-12.66-38.426-20.635c4.477,18.859,5.121,39.264,5.41,58.517c0.243,16.194,0.123,32.333-0.72,48.496
	c-0.454,8.728-2.173,32.972,2.604,49.231c0.737,2.51,1.63,4.828,2.706,6.87c3.478,6.603,8.873,10.307,17.147,8.204
	c0.115-5.36,0.092-10.729-0.008-16.098c-0.49,0.096-0.938,0.085-1.098-0.121c-3.424-4.424-5.85-9.494-5.641-15.193
	c0.033-0.898,2.917-1.294,2.898-0.777c-0.168,4.573,1.357,8.786,3.764,12.548c-0.318-12.972-1.021-25.954-1.349-38.894
	c-0.211-8.338-0.54-16.727-0.21-25.066c0.627-15.864-1.074-31.737-1.139-47.602c-0.004-0.986,2.896-1.6,2.902-0.348
	c0.064,16.097,1.553,32.143,1.117,48.244c-0.249,9.199,0.067,18.422,0.324,27.617c0.08,2.869,0.18,5.742,0.285,8.615
	c0.128,0.098,0.222,0.229,0.254,0.404c2.246,12.292,10.976,24.542,22.033,30.566c3.435,1.872,4.824-0.307,7.32-2.436
	C272.254,308.214,274.571,306.548,276.88,305.021z M221.591,324.88c0.204,0.317,0.49,0.618,0.84,0.903
	c-0.294-0.297-0.578-0.608-0.855-0.931C221.58,324.86,221.586,324.872,221.591,324.88z M177.47,156.689
	c-0.167-2.307,0.201-9.862-1.998-11.48c-0.165-0.121-0.27-0.249-0.325-0.38l-2.303,0.611c-4.342,1.568-8.688,3.141-12.963,4.881
	c-5.897,2.401-11.659,5.183-17.351,8.031c-5.891,2.947-12.582,5.749-17.292,10.495c-1.731,1.745-3.282,3.634-4.697,5.622
	c-1.262,1.772-2.409,3.626-3.458,5.542c-3.192,5.827-5.497,12.203-7.427,18.473c-3.128,10.162-6.199,20.294-9.431,30.426
	c-2.696,8.457-6.592,20.021-1.424,28.295c3.795,6.077,8.582,11.581,13.214,17.022c6.534,7.676,13.149,15.378,20.051,22.763
	c0.183,0.098,0.322,0.243,0.406,0.435c1.309,1.395,2.626,2.779,3.956,4.148c7.284-3.16,12.566-10.092,15.129-17.498
	c-4.517-6.972-10.891-13.094-14.61-20.498c-0.672-1.337-1.26-2.763-1.833-4.216c-0.225-0.108-0.332-0.298-0.23-0.581
	c0,0,0-0.001,0-0.002c-1.972-5.052-3.851-10.351-8.364-13.44c-0.384-0.263,0.083-0.688,0.75-0.974
	c2.856-9.77,6.763-19.143,11.105-28.328c0.004-0.085,0.005-0.171,0.009-0.256c0.012-0.258,0.182-0.482,0.429-0.661
	c0.074-0.156,0.149-0.313,0.224-0.47c0.77-1.607,1.548-3.213,2.339-4.811c3.298-6.663,6.755-13.251,10.134-19.844
	c0.434-0.846,3.336-1.178,2.699,0.066c-4.35,8.487-8.824,16.964-12.916,25.605c-0.617,14.302,1.436,28.935-3.459,42.707
	c0.302,0.744,0.611,1.479,0.94,2.195c3.661,7.979,10.235,14.47,15.089,21.786c0.585,0.011,1.021,0.244,0.854,0.768
	c-0.038,0.118-0.084,0.235-0.123,0.354c0.003,0.005,0.006,0.009,0.009,0.014c0.212,0.337,0.022,0.664-0.334,0.921
	c-0.515,1.416-1.123,2.808-1.814,4.164c0.216,0.07,0.406,0.19,0.539,0.38c2.05,2.927,5.069,4.882,7.666,7.278
	c0.776-2.17,1.396-4.364,1.838-6.53c0.276-1.351,3.248-1.687,2.943-0.193c-2.436,11.911-9.585,24.235-20.653,29.961
	c-1.491,0.771-3.062-0.9-1.309-1.807c0.535-0.276,1.055-0.581,1.57-0.894l-0.055-0.093c-0.255-0.036-0.475-0.128-0.614-0.296
	c-3.242-3.912-3.909-9.147-6.649-13.313c-0.305,0.132-0.605,0.271-0.916,0.391c-0.466,0.18-0.955,0.154-1.342,0.018
	c-1.215,0.192-2.298-0.891-2.895-1.65c-0.202,7.061-1.69,14.326-3.235,21.087c-0.661,2.894-3.195,9.241-1.027,11.903
	c2.544,3.123,7.365,3.108,11.04,2.787c10.256-0.898,20.741-4.064,27.217-12.623c6.711-8.869,8.747-20.185,9.413-31.051
	c0.787-12.822,0.362-25.711,0.757-38.551c0.241-7.894,0.519-15.785,0.728-23.681c0.448-16.97,0.806-33.951,0.696-50.928
	C178.113,172.748,178.048,164.696,177.47,156.689z M203.657,231.968c-0.947-18.949-1.471-38.205-4.14-57.019
	c-2.469-0.406-4.999-0.288-7.501-0.228c-2.863,20.513-3.334,41.537-4.264,62.191c-0.482,10.746-0.921,21.496-1.175,32.249
	c-0.104,4.393,3.517,7.332,6.321,10.412c1.196,1.313,3.321,3.073,4.673,4.918c1.702-2.857,5.067-5.429,6.661-8.024
	c2-3.254,0.903-8.3,0.783-11.997C204.661,253.633,204.2,242.798,203.657,231.968z M199.887,172.843
	c0.743-2.514,1.116-5.142,2.01-7.608c-1.585-3.103-2.636-6.46-3.937-9.704c-2.93,2.369-5.596,5.145-7.326,8.488
	c0.624,2.855,0.76,5.801,1.42,8.649C194.678,172.625,197.291,172.537,199.887,172.843z"></path>
<path id="color_x5F_1" d="M372.188,345.554c-0.967-0.762-2.009-1.42-2.977-2.182c-0.904-0.711-3.508,0.59-2.262,1.57
	c0.094,0.074,0.194,0.14,0.29,0.212c-0.373,0.104-0.72,0.278-0.949,0.505c-0.557,0.267-1.111,0.545-1.684,0.819
	c-6.144,2.952-10.532-1.054-14.783-4.649c0.43-0.264,0.948-0.771,0.548-1.256c-0.434-0.529-1.412-0.398-1.946-0.137
	c-0.286,0.141-0.577,0.269-0.873,0.387c-0.041,0.01-0.293,0.099-0.291,0.098c-0.212,0.065-0.427,0.12-0.641,0.174
	c-0.504,0.128-1.391,0.605-1.214,1.268c0.18,0.67,1.182,0.617,1.685,0.49c0.011-0.003,0.021-0.007,0.032-0.01
	c0.939,0.798,1.861,1.6,2.803,2.342c-0.023,0.027-0.052,0.053-0.07,0.081c-2.332,3.538,3.348,7.442,5.924,8.429
	c5.783,2.213,11.587-1.627,13.031-7.389c0.375,0.268,0.753,0.532,1.115,0.818C370.83,347.836,373.434,346.536,372.188,345.554z
	 M363.146,351.211c-2.063,2.147-5.161,1.181-7.393-0.078c-1.059-0.597-3.083-2.544-3.406-4.261c1.818,1.081,3.81,1.788,6.21,1.721
	c1.925-0.054,3.858-0.264,5.685-0.921c0.517-0.186,1.045-0.458,1.576-0.743C365.314,348.57,364.358,349.949,363.146,351.211z
	 M351.251,334.576c0.396-0.794,0.794-1.588,1.191-2.381c0.456-0.907,3.369-1.184,2.715,0.119c-0.398,0.793-0.796,1.587-1.191,2.381
	C353.513,335.604,350.601,335.882,351.251,334.576z M366.823,338.167c0.25-0.988,0.563-1.881,1.271-2.639
	c0.473-0.504,1.394-0.714,2.049-0.549c0.636,0.16,0.729,0.689,0.307,1.143c-0.434,0.463-0.566,1.129-0.717,1.725
	c-0.168,0.662-1.033,0.977-1.632,1.042C367.693,338.934,366.654,338.839,366.823,338.167z M369.026,329.861
	c2.685-1.128,7.063-1.577,8.041,2.005c0.185,0.678-2.711,1.461-2.898,0.777c-0.345-1.264-1.938-3.004-3.463-2.362
	c-0.603,0.253-1.363,0.527-2.027,0.362C368.04,330.485,368.767,329.971,369.026,329.861z M352.247,327.438
	c-0.468-0.426,0.554-0.918,0.809-1.034c1.758-0.8,3.675-0.732,5.481-0.153c0.665,0.213,0.012,0.818-0.292,0.988
	c-0.588,0.326-1.385,0.52-2.042,0.309c-0.653-0.209-1.405-0.45-2.058-0.153C353.679,327.607,352.69,327.841,352.247,327.438z
	 M501.84,513.976c-0.006-0.023-0.015-0.045-0.021-0.068c0.463-0.547,0.1-0.955-0.491-1.109c-0.889-1.41-2.512-2.234-4.323-2.985
	c-1.852-0.769-3.719-1.396-5.481-2.368c-1.972-1.087-1.956-3.287-3.59-4.43c-2.306-1.61-5.5-1.021-8.102-0.676
	c-0.635,0.085-1.313,0.205-2.002,0.311c-0.215-0.029-0.453-0.03-0.738,0.045c-0.168,0.045-0.341,0.076-0.51,0.118
	c-1.171,0.114-2.338,0.096-3.378-0.313c-1.551-0.609-2.199-4.413-3.038-5.915c-1.939-3.475-3.698-5.478-7.283-7.119
	c-2.26-1.034-7.739-2.25-8.694-4.605c-1.354-3.34-2.386-6.834-3.517-10.252c-9.303-28.135-17.971-56.488-27.621-84.507
	c-0.946-2.746-1.737-5.757-3.152-8.313c-2.11-3.811-6.52-7.752-10.138-10.11c-4.992-3.253-11.542-2.377-16.532-5.641
	c-0.116-0.076-0.268-0.116-0.436-0.132c0.237-1.862-0.195-3.586-1.651-4.986c2.929-2.013,5.269-5.296,7.038-8.484
	c3.424-6.167,6.52-14.135,7.24-21.254c0.507-5.005-1.426-10.181-5.063-13.587c-1.966-1.84-4.988-2.344-7.49-2.953
	c-5.205-1.267-9.962-2.785-14.548-5.654c-2.786-1.743-7.802-5.477-11.306-4.538c-3.867,1.036-2.895,5.254-1.061,7.841
	c-8.344-1.371-15.756-8.1-24.401-3.499c-2.521,1.342-3.17,3.817-2.67,6.44c1.063,5.573,8.11,7.383,7.314,13.615
	c-0.061,0.477,0.328,0.696,0.839,0.729c-1.149,2.359-2.28,4.729-3.39,7.108c-2.479,5.317-4.824,10.669-1.479,16.201
	c1.888,3.121,6.216,4.123,9.465,4.995c1.254,0.336,2.469,0.68,3.646,1.056c-6.098,0.073-12.643,2.06-18.288-0.408
	c-4.444-1.942-6.969-6.917-9.423-10.803c-2.231-3.532-4.131-7.278-6.268-10.868c-1.591-2.676-3.407-5.582-5.518-8.254
	c0.621,0.014,1.234-0.103,1.816-0.404c2.239-1.162,2.977-3.42,2.315-5.797c-0.975-3.502-4.482-6.33-8.028-8.314
	c2.561-0.072,5.076-0.656,6.516-2.364c3.531-4.188-3.272-6.471-6.101-8.287c-5.885-3.78-11.083-6.616-18.045-6.486
	c-0.052-0.048-0.116-0.093-0.204-0.134c-14.482-6.768-21.627-19.898-25.477-34.826c-1.9-7.372-2.994-14.941-4.169-22.453
	c-1.106-7.067-2.716-14.008-3.963-21.038c-2.405-13.565,0.262-29.796-7.787-41.793c-4.212-6.276-12.638-9.431-19.359-11.987
	c-8.341-3.174-16.942-5.877-23.554-12.164c-0.1-0.096-0.233-0.158-0.387-0.197c0.34-1.604,0.706-3.203,1.111-4.793
	c0.339-1.332,0.74-2.654,1.262-3.927c1.045-2.542,4.74-1.893,6.965-1.727c3.85,0.287,7.947,0.938,11.686-0.435
	c6.453-2.369,9.613-8.041,12.414-14.01c1.117-2.383,2.144-4.854,3.051-7.373c0.673-0.125,1.357-0.487,1.508-1.014
	c0.022-0.078,0.055-0.148,0.079-0.224c1.029-0.702,2.446-1.673,4.327-2.976c1.996-1.381,6.532-3.895,9.842-6.789
	c0.067-0.059,0.138-0.117,0.205-0.178c3.749-3.35,5.765-7.185,0.287-10.365c-0.083-0.049-0.162-0.087-0.244-0.134
	c-4.433-4.775-14.646-4.755-19.898-7.957c4.059-0.743,7.663-3.255,5.061-8.067c-3.305-6.114-14.68-3.328-20.221-4.498
	c-4.451-0.941-9.274-2.429-13.906-1.988c-2.664-0.132-5.296,0.416-7.125,2.977c-0.17,0.238-0.33,0.48-0.488,0.725
	c-1.891,2.266-2.939,5.306-3.688,8.273c-1.754-1.779-3.562-2.664-5.331-2.854c-1.409-0.509-2.968-0.451-4.492,0.855
	c-0.102,0.087-0.203,0.18-0.305,0.268c-2.222,1.281-4.205,3.513-5.71,6.171c-2.627,4.64-3.858,9.983-2.919,15.24
	c1.099,6.144,5.382,10.99,5.68,17.399c0.004,0.088,0.056,0.156,0.141,0.207c-3.543,5.956-6.927,12.023-11.119,17.559
	c-0.083,0.029-0.16,0.055-0.271,0.097c-0.735,0.282-1.478,0.549-2.218,0.819c-2.097,0.766-4.197,1.52-6.295,2.285
	c-4.936,1.801-9.855,3.658-14.664,5.778c-10.498,4.631-22.964,9.434-31.46,17.37c-7.955,7.43-12.122,18.52-15.406,28.623
	c-3.424,10.534-6.383,21.194-9.841,31.729c-2.654,8.084-6.388,19.527-1.994,27.656c3.083,5.705,7.738,10.766,11.872,15.715
	c7.222,8.646,14.685,17.165,22.383,25.418c0.476,10.5-2.628,20.974-4.573,31.193c-1.559,8.193,4.671,10.367,11.812,10.393
	c0.056,0,0.113-0.002,0.17-0.002c-0.332,1.05-0.371,2.292-0.506,3.293c-0.574,4.252-0.867,8.547-1.159,12.825
	c-0.384,5.622-0.593,11.248-0.713,16.881c-0.271,12.606-0.34,25.22-0.395,37.829c-0.105,24.563-0.808,49.389,0.767,73.92
	c0.005,0.075,0.031,0.139,0.068,0.195c-13.283,1.268-27.791,8.138-32.871,20.914c-0.136,0.341,0.526,0.424,1.252,0.318
	c0.057,0.176,0.295,0.297,0.816,0.297c19.836,0,39.673,0,59.51,0c0.416,0,0.948-0.235,1.352-0.53
	c0.705-0.128,1.389-0.523,1.385-1.024c-0.052-6.834-0.675-13.646-0.743-20.48c0.413-0.188,0.726-0.463,0.74-0.781
	c1.379-29.749,2.116-59.524,4.414-89.226c1.097-14.171,2.95-27.042,7.322-40.597c2.624-8.136,5.544-16.258,9.348-23.926
	c0.878-1.771,1.919-4.227,3.293-5.883c1.449,1.551,2.454,3.867,3.375,5.633c3.614,6.93,6.289,14.362,8.804,21.744
	c2.488,7.301,4.97,14.646,6.102,22.292c0.965,6.506,1.49,13.081,1.993,19.636c2.271,29.578,2.7,59.238,4.039,88.861
	c-0.056,0.097-0.093,0.197-0.093,0.305c0.016,7.834,0.233,15.666,0.25,23.5c0,0.377,0.25,0.591,0.6,0.684
	c0.084,0.149,0.324,0.249,0.797,0.248c16.104-0.016,32.205-0.414,48.31-0.448c-0.466,0.626-0.706,1.382-0.553,2.302
	c0.755,4.525,10.538,3.743,13.742,3.896c0.218,0.01,0.466-0.044,0.712-0.137c7.674,0.221,15.541-0.085,23.118-1.572
	c2.837-0.557,5.634-1.273,8.362-2.197c0.112-0.037,0.225-0.077,0.337-0.116c-0.792,1.179-0.712,2.38,1.505,3.228
	c6.646,2.542,15.219,1.588,22.123,1.656c5.784,0.058,15.861,0.627,20.463-3.858c4.182-4.077,3.658-10.03,3.038-15.676
	c0.472,0.661,0.939,1.323,1.407,1.985c2.201,3.116,4.37,6.258,6.49,9.43c0.437,0.651,2.455-0.08,2.848-0.563
	c0.105-0.065,0.197-0.136,0.262-0.214c1.436-1.762,2.744-3.619,3.984-5.523c-0.23,5.103-0.033,10.786,5.143,12.697
	c4.596,1.697,9.771,1.593,14.602,1.734c5.663,0.166,11.389,0.041,16.997-0.802c0.299-0.045,0.57-0.161,0.799-0.312
	c8.074,4.691,19.03,3.882,27.976,3.817c8.551,2.457,19.056,0.755,27.172,1.54c7.641,0.738,15.22,2.037,22.867,1.787
	c1.169-0.039,2.34-0.113,3.514-0.231c0.545-0.056,1.092-0.118,1.639-0.192c2.176-0.298,6.492-0.826,8.016-2.832
	c0.073-0.097,0.148-0.215,0.223-0.344c0.046-0.08,0.092-0.165,0.137-0.254C502.458,514.636,502.73,513.46,501.84,513.976z
	 M374.126,444.162c-0.322-16.497-0.584-33.024-0.608-49.525c0-0.154-0.036-0.284-0.089-0.401c0.402-0.329,0.771-0.703,1.075-1.151
	c1.571-2.326,1.901-5.173,2.857-7.767c2.007-0.748,4.095-3.175,5.077-4.138c1.114-1.093,2.764-2.743,4.422-4.675
	c-0.104,32.367-1.129,64.717,4.76,96.72c0.377,2.051,0.795,4.189,1.265,6.364c-5.325,0-10.649,0-15.974,0
	C375.89,467.786,374.358,456.022,374.126,444.162z M354.604,481.168c-4.232,0.14-9.373,0.49-12.744-1.878h-0.001
	c1.427-3.158,2.634-6.442,3.603-9.821c5.713-19.913,5.046-41.101,6.368-61.61c0.544-8.437,1.331-16.869,2.898-25.183
	c0.981-5.208,2.296-11.034,5.012-15.849c-1.687,5.261-0.341,13.052,1.862,16.859c-0.065,0.094-0.117,0.193-0.135,0.301
	c-0.506,2.984-0.893,6.322,0.263,9.199c0.019,0.047,0.049,0.08,0.069,0.126c-0.39,0.205-0.691,0.521-0.744,0.929
	C357.349,423.092,355.04,452.088,354.604,481.168z M367.014,366.149c0.147,0.901,0.149,1.803,0.208,2.726
	c0.107,1.677,0.828,3.215,1.644,4.66c-0.828,1.083-3.679,4.219-5.547,6.819c-1.803-5.087-2.384-13.536,0.979-16.752
	c0.813,0.695,1.592,1.477,2.334,2.365C366.718,366.071,366.853,366.125,367.014,366.149z M364.378,383.671
	c0.004-0.024,0-0.044,0.001-0.066c0.193-0.216,0.258-0.469,0.089-0.738c-0.168-0.184,3.217-4.369,5.445-7.162
	c1.453,2.848,2.407,7.316,4.811,9.242c-1.216,3.367-1.482,8.726-5.602,9.182C362.914,394.816,363.663,387.885,364.378,383.671z
	 M381.979,378.762c-1.119,1.087-2.203,2.208-3.333,3.284c-1.612,1.535-1.402,1.761-2.538-0.335
	c-1.386-2.558-2.354-5.354-3.882-7.832c3.573-1.147,7.178-2.83,9.526-5.841c0.663-0.187,1.275-0.566,1.267-1.063
	c-0.028-1.473-0.158-2.953-0.091-4.412c2.073,0.503,3.97,0.326,5.698-0.318C392.729,366.741,385.209,375.621,381.979,378.762z
	 M346.828,353.878c-6.206-4.083-2.833-12.606-0.33-17.72c2.46-5.025,4.83-10.079,7.396-15.049
	c7.119,4.053,15.091,5.644,23.519,6.712c0.502,0.064,4.477,0.51,7.707,0.261c-1.871,3.579-4.183,9.814-3.441,13.854
	c-0.031,0.26-0.068,0.521-0.088,0.777c-0.439,5.853,3.872,4.383,4.932,3.938c0.511,0.057,1.132-0.026,1.502-0.274
	c1.299-0.87,2.363-1.721,3.327-0.284c0.87,1.296,0.557,3.362,0.246,4.771c-0.34,1.539-0.987,3.238-2.195,4.307
	c-0.06,0.053-0.138,0.098-0.202,0.132c-0.058-0.012-0.134-0.032-0.254-0.082c-0.748-0.314-1.31-1.006-1.774-1.683
	c-0.013-0.099-0.069-0.176-0.158-0.234c-0.043-0.065-0.091-0.132-0.132-0.195c-0.527-0.808-3.273,0.107-2.707,1.101
	c-1.177,1.908-2.625,3.606-3.58,5.655c-0.929,1.992-0.658,4.484-0.526,6.714c-0.2,0.095-0.376,0.222-0.497,0.387
	c-1.982,2.706-5.052,4.129-8.176,5.111c-0.603-1.163-1.08-2.369-1.249-3.693c-0.157-1.227-0.048-2.428-0.356-3.642
	c-0.055-0.214-0.422-0.268-0.877-0.222C362.701,357.793,354.152,358.696,346.828,353.878z M316.534,309.541
	c0.421,3.368-4.086,3.546-9.178,2.426c-0.049-0.013-0.098-0.026-0.148-0.033c-5.486-1.23-11.599-3.939-12.95-5.794
	c-0.475-0.652-3.27,0.288-2.713,1.051c2.794,3.834,9.18,5.3,13.677,6.203c0.084,0.139,0.24,0.269,0.509,0.374
	c3.279,1.285,6.37,3.313,8.863,5.793c1.165,1.159,2.114,2.516,2.557,4.107c0.252,0.904,0.052,1.758-0.318,2.592
	c-0.513,1.155-3.254-0.965-3.754-1.325c-0.194-0.14-0.468-0.187-0.764-0.172c-2.186-2.068-4.644-3.752-7.433-4.707
	c-5.499-1.882-12.225-1.122-16.479,3.083c-0.935,0.924-1.713,1.989-2.373,3.141c-5.008-4.322-8.549-10.19-14.38-13.572
	c-0.331-0.192-0.995-0.064-1.591,0.159c0.19-0.162,0.382-0.328,0.575-0.501c6.509-5.818,14.244-10.524,22.287-13.874
	c0.128-0.053,0.235-0.109,0.33-0.167c5.626-0.031,9.862,2.036,14.655,5.089C309.653,304.525,316.27,307.426,316.534,309.541z
	 M312.021,477.349c3.097-4.56,5.578-9.439,7.572-14.515c3.092,0.144,6.151,0.555,9.219,0.996c-2.836,5.696-4.818,11.784-7.746,17.45
	c-1.662,3.217-3.668,6.277-6.364,8.72c-4.308,3.901-9.274,1.11-13.016-1.938C305.761,485.169,309.14,481.59,312.021,477.349z
	 M326.892,405.019c0.084,0.171,0.252,0.276,0.465,0.329c-0.166,0.927-0.335,1.854-0.506,2.78c-1.756,9.52-2.788,19.038-3.816,28.655
	c-0.88,8.231-2.675,17.04-5.76,25.294c-0.13,0.152-0.193,0.299-0.151,0.418c-3.173,8.351-7.686,16.11-13.946,22.096
	c-3.679,3.516-7.721,4.861-12.4,6.529c-1.889,0.674-4.693,1.508-5.471,3.661c-0.565,1.566-0.679,3.125-0.972,4.754
	c-0.425,2.364-3.87,2.914-5.732,3.239c-0.901,0.157-1.811,0.263-2.722,0.356c-4.91-12.017-16.325-18.385-28.807-19.302
	c0.07-0.102,0.125-0.203,0.151-0.298c0.063-0.095,0.108-0.194,0.115-0.3c0.799-12.52,0.487-25.156,0.386-37.691
	c-0.148-18.203-0.525-36.41-1.26-54.6c-0.582-14.438-2.128-28.276-4.186-42.561c-0.824-5.722-1.924-11.794-1.535-17.605
	c0.028-0.418,0.236-0.934,0.322-1.387c0.304-0.182,0.516-0.416,0.521-0.68c0.279-12.109-0.152-24.258-0.63-36.392
	c4.259,9.544,11.937,18.549,20.97,22.406c2.869,1.225,4.939,0.561,7.035-0.981c6.41,3.735,10.05,10.48,15.945,14.84
	c-1.309,3.162-1.962,6.705-2.453,9.852c-1.201,7.707-1.133,15.654-0.842,23.427c0.56,14.985,3.187,29.95,3.285,44.933
	c0.002,0.313,0.164,0.521,0.406,0.645c-0.543,0.611-0.436,1.469,0.898,1.368c7.727-0.579,25.84,3.247,27.814-8.21
	c0.422-2.453,0.057-5.126-0.004-7.596c-0.116-4.71-0.078-9.427-0.146-14.139C317.092,387.848,322.492,396.04,326.892,405.019z
	 M203.419,152.655c0.93-0.395,2.146-0.893,3.303-1.521c-0.959,4.135-1.636,8.352-2.324,12.541c-1.455-3.053-2.458-6.32-3.752-9.457
	c0.195-0.144,0.287-0.279,0.197-0.372c-0.061-0.063-0.113-0.13-0.173-0.192C201.612,153.404,202.53,153.032,203.419,152.655z
	 M201.896,165.234c-0.894,2.467-1.267,5.095-2.01,7.608c-2.596-0.306-5.209-0.218-7.833-0.175c-0.66-2.849-0.796-5.794-1.42-8.649
	c1.73-3.344,4.396-6.119,7.326-8.488C199.261,158.774,200.312,162.132,201.896,165.234z M192.017,174.722
	c2.502-0.061,5.032-0.179,7.501,0.228c2.669,18.813,3.192,38.069,4.14,57.019c0.543,10.83,1.004,21.665,1.359,32.503
	c0.12,3.697,1.217,8.743-0.783,11.997c-1.594,2.596-4.959,5.167-6.661,8.024c-1.352-1.845-3.477-3.605-4.673-4.918
	c-2.805-3.08-6.425-6.02-6.321-10.412c0.254-10.753,0.692-21.503,1.175-32.249C188.683,216.259,189.153,195.234,192.017,174.722z
	 M187.917,165.701c0.515,2.791,0.663,5.65,1.393,8.401c-2.977,20.511-3.437,41.553-4.392,62.228
	c-0.503,10.88-0.932,21.763-1.214,32.65c-0.107,4.161,1.599,6.066,4.285,9.147c2.174,2.492,7.145,6.149,7.854,9.486
	c0.127,0.597,3.041-0.107,2.898-0.777c-0.007-0.032-0.02-0.064-0.027-0.097c0.419-0.145,0.75-0.342,0.799-0.567
	c0.73-3.37,5.032-6.736,7.039-9.443c2.261-3.052,1.564-6.279,1.459-9.905c-0.318-10.981-0.794-21.959-1.322-32.933
	c-0.949-19.711-1.475-39.753-4.222-59.326c0.001-0.001,0.001-0.001,0.001-0.001c0.297-0.337,0.317-0.824,0.047-1.123
	c0.598-1.751,0.961-3.574,1.393-5.376c0.303,0.035,0.679-0.021,1.045-0.127c0.771-0.06,1.66-0.463,1.762-1.049
	c0.57-3.267,1.109-6.541,1.711-9.803c4.92,20.078,5.524,41.971,5.666,62.528c0.116,16.809-0.266,33.44-0.982,50.208
	c-0.288,6.743-0.904,18.757,0.3,30.308l-10.39,0.023c-8.196-0.108-16.393-0.277-24.59-0.302c0.816-6.779,0.858-13.699,0.887-20.439
	c0.055-13.075,0.479-26.122,0.845-39.191c0.413-14.778,0.774-29.559,0.908-44.343c0.107-11.903,0.126-23.827-0.448-35.72
	c-0.092-1.904-0.2-3.812-0.355-5.715c1.913,3.971,4.536,7.689,7.025,10.949C187.313,165.583,187.564,165.681,187.917,165.701z
	 M249.97,177.864c4.467,5.85,5.076,14.679,5.758,21.714c0.7,7.212,0.745,14.54,2.189,21.661
	c5.362,26.437,5.121,62.381,32.477,76.333c-4.726,2.076-9.205,4.598-13.514,7.448c-2.309,1.527-4.626,3.193-6.732,4.988
	c-2.496,2.129-3.886,4.308-7.32,2.436c-11.058-6.024-19.787-18.274-22.033-30.566c-0.032-0.176-0.126-0.307-0.254-0.404
	c-0.105-2.873-0.205-5.746-0.285-8.615c-0.257-9.195-0.573-18.418-0.324-27.617c0.436-16.102-1.053-32.147-1.117-48.244
	c-0.006-1.252-2.906-0.639-2.902,0.348c0.064,15.864,1.766,31.737,1.139,47.602c-0.33,8.34-0.001,16.729,0.21,25.066
	c0.328,12.939,1.03,25.922,1.349,38.894c-2.406-3.762-3.932-7.975-3.764-12.548c0.019-0.517-2.865-0.121-2.898,0.777
	c-0.209,5.699,2.217,10.77,5.641,15.193c0.159,0.206,0.607,0.217,1.098,0.121c0.1,5.369,0.123,10.737,0.008,16.098
	c-8.274,2.103-13.67-1.602-17.147-8.204c-1.076-2.042-1.969-4.36-2.706-6.87c-4.777-16.26-3.059-40.504-2.604-49.231
	c0.843-16.163,0.963-32.302,0.72-48.496c-0.289-19.253-0.934-39.657-5.41-58.517C223.743,165.204,240.878,165.958,249.97,177.864z
	 M229.278,329.781c-1.397-0.265-2.687-0.731-3.656-1.497C226.743,328.94,227.96,329.444,229.278,329.781z M222.431,325.783
	c-0.35-0.285-0.636-0.586-0.84-0.903c-0.005-0.008-0.011-0.02-0.016-0.027C221.853,325.175,222.137,325.486,222.431,325.783z
	 M169.282,325.238c-1.314,2.015-2.838,3.741-4.59,4.991C166.404,328.702,167.928,327.032,169.282,325.238z M208.809,155.237
	c-0.012,0.006-0.024,0.011-0.036,0.017c0.002-0.014,0.005-0.026,0.008-0.04C208.79,155.222,208.8,155.229,208.809,155.237z
	 M201.241,89.282c0,0-0.001,0.001-0.001,0.002c0,0-0.001-0.001-0.001-0.002C201.239,89.282,201.24,89.282,201.241,89.282z
	 M190.749,126.161c3.431,0.139,6.4-1.207,7.796-4.735c0.032-0.155-0.005-0.292-0.11-0.411c-1.946-1.733-2.985-3.914-2.388-6.522
	c0.759-3.313,3.245-2.243,5.063-0.661c0.059,0.27,0.248,0.486,0.6,0.563c0.213,0.215,0.413,0.431,0.588,0.64
	c0.637,0.76,3.119-0.111,2.789-0.984c0.24-0.123,0.517-0.267,0.826-0.43c7.229-2.066,12.521-6.777,16.541-13.284
	c7.116,4.639,16.475,3.271,23.786,7.666c-0.006,0.021-0.017,0.04-0.021,0.062c-1.179,7.04-3.674,13.962-6.694,20.402
	c-1.538,3.279-3.396,6.499-5.919,9.119c-4.572,4.748-11.34,2.156-16.997,2.379c-5.43,0.215-7.329,1.99-8.788,6.933
	c-0.104,0.352-0.193,0.708-0.291,1.062c-0.1,0.089-0.176,0.186-0.215,0.291c-0.486,1.317-2.508,2.148-3.651,2.74
	c-0.839,0.434-1.714,0.799-2.597,1.133c-0.185,0.069-0.374,0.121-0.562,0.178c-0.195-0.029-0.441-0.029-0.706,0
	c-0.023-0.05-0.043-0.102-0.066-0.15c-0.1-0.207-0.36-0.294-0.687-0.301c-4.935-5.744-8.466-12.482-12.246-19.029
	C188.134,130.61,189.437,128.382,190.749,126.161z M185.069,135.634c3.634,6.368,7.215,12.772,12.176,18.212
	c0.005,0.011,0.01,0.022,0.015,0.033c-3.28,2.441-6.347,5.319-8.529,8.786c-4.273-5.833-8.46-12.869-8.354-20.124
	c0.101-0.07,0.209-0.134,0.303-0.209c0.074-0.06,0.204-0.257,0.087-0.349C182.287,139.924,183.709,137.799,185.069,135.634z
	 M147.057,315.198c-3.263-3.939-3.917-9.241-6.726-13.428c4.396-2.525,8.017-6.295,10.696-10.642
	c2.447,2.999,5.845,4.99,8.443,7.857c0.022,0.024,0.05,0.042,0.074,0.063c-2.739,6.381-6.908,12.316-12.382,16.323
	C147.139,315.314,147.104,315.257,147.057,315.198z M136.226,254.322c-1.497-3.688-3.25-7.243-6.453-9.687
	c0.164-0.128,0.288-0.273,0.336-0.437c2.182-7.504,4.992-14.769,8.142-21.894C138.222,233.059,138.878,243.896,136.226,254.322z
	 M134.246,303.128c0.021,0.021,0.041,0.041,0.062,0.063c0.145,0.146,0.455,0.168,0.816,0.117c0.101,0.067,0.22,0.124,0.348,0.17
	c0.387,0.137,0.876,0.162,1.342-0.018c0.311-0.119,0.611-0.259,0.916-0.391c2.74,4.165,3.407,9.4,6.649,13.313
	c0.14,0.168,0.359,0.26,0.614,0.296c0.063,0.009,0.126,0.014,0.191,0.016c-0.045,0.027-0.092,0.051-0.137,0.077
	c-0.516,0.313-1.035,0.617-1.57,0.894c-1.753,0.906-0.183,2.578,1.309,1.807c11.068-5.726,18.218-18.05,20.653-29.961
	c0.305-1.493-2.667-1.157-2.943,0.193c-0.442,2.166-1.062,4.36-1.838,6.53c-2.597-2.396-5.616-4.352-7.666-7.278
	c-0.133-0.189-0.323-0.31-0.539-0.38c0.691-1.356,1.3-2.748,1.814-4.164c0.356-0.257,0.546-0.584,0.334-0.921
	c-0.003-0.005-0.006-0.009-0.009-0.014c0.039-0.118,0.085-0.235,0.123-0.354c0.168-0.523-0.269-0.757-0.854-0.768
	c-4.854-7.316-11.428-13.807-15.089-21.786c-0.329-0.717-0.639-1.451-0.94-2.195c4.895-13.772,2.842-28.405,3.459-42.707
	c4.092-8.642,8.566-17.118,12.916-25.605c0.637-1.244-2.266-0.912-2.699-0.066c-3.379,6.593-6.836,13.181-10.134,19.844
	c-0.791,1.598-1.569,3.203-2.339,4.811c-0.074,0.156-0.149,0.313-0.224,0.47c-0.247,0.179-0.417,0.403-0.429,0.661
	c-0.004,0.085-0.005,0.171-0.009,0.256c-4.343,9.186-8.249,18.559-11.105,28.328c-0.667,0.286-1.134,0.711-0.75,0.974
	c4.514,3.09,6.393,8.389,8.364,13.44c0,0.001,0,0.002,0,0.002c-0.102,0.283,0.006,0.473,0.23,0.581
	c0.573,1.453,1.161,2.879,1.833,4.216c3.72,7.404,10.094,13.526,14.61,20.498c-2.563,7.406-7.845,14.338-15.129,17.498
	c-1.33-1.369-2.647-2.754-3.956-4.148c-0.084-0.191-0.224-0.337-0.406-0.435c-6.901-7.385-13.517-15.087-20.051-22.763
	c-4.632-5.441-9.419-10.945-13.214-17.022c-5.168-8.274-1.272-19.838,1.424-28.295c3.231-10.132,6.303-20.264,9.431-30.426
	c1.93-6.27,4.234-12.646,7.427-18.473c1.049-1.916,2.196-3.77,3.458-5.542c1.415-1.988,2.966-3.877,4.697-5.622
	c4.71-4.746,11.401-7.548,17.292-10.495c5.691-2.849,11.453-5.63,17.351-8.031c4.275-1.74,8.621-3.313,12.963-4.881
	c0.439-0.158,0.878-0.318,1.317-0.477c0.298-0.107,0.615-0.211,0.94-0.313c0.007,0.06,0.019,0.12,0.045,0.179
	c0.056,0.131,0.16,0.259,0.325,0.38c2.199,1.618,1.831,9.174,1.998,11.48c0.578,8.007,0.644,16.059,0.695,24.082
	c0.109,16.977-0.248,33.958-0.696,50.928c-0.209,7.896-0.486,15.787-0.728,23.681c-0.395,12.84,0.03,25.729-0.757,38.551
	c-0.666,10.866-2.702,22.182-9.413,31.051c-6.476,8.559-16.961,11.725-27.217,12.623c-3.675,0.321-8.496,0.336-11.04-2.787
	c-2.168-2.662,0.366-9.01,1.027-11.903c1.545-6.761,3.033-14.026,3.235-21.087c0.005-0.152,0.016-0.305,0.019-0.457
	C133.148,301.953,133.69,302.549,134.246,303.128z M105.411,504.579c-0.01,0-0.021,0.002-0.03,0.003
	c5.245-12.214,19.484-18.508,32.194-18.726c0.539-0.009,1.614-0.527,1.898-0.914c7.811,0,15.62,0,23.431,0
	c0.084,6.551,0.646,13.085,0.722,19.637C144.222,504.579,124.816,504.579,105.411,504.579z M218.291,505.032
	c-0.02-6.658-0.171-13.315-0.224-19.973c8.226-0.035,16.451-0.184,24.678-0.224c0.061,0.118,0.279,0.2,0.74,0.208
	c12.604,0.23,24.251,6.655,29.29,18.396c-0.761,0.079-1.52,0.168-2.274,0.289c-0.885,0.142-2.021,0.41-3.066,0.86
	c-0.054-0.004-0.1-0.01-0.16-0.01C250.945,504.596,234.62,505.008,218.291,505.032z M276.21,510.564
	c-0.259-0.013-0.569,0.068-0.866,0.198c-3.124-0.053-6.77-0.385-7.771-2.156c-1.88-3.322,4.809-3.538,6.443-3.697
	c4.131-0.4,8.336-0.78,11.722-3.394c1.81-1.396,1.698-3.869,2.044-5.905c0.645-3.81,7.463-3.699,10.19-5.205
	c0.528-0.291,1.034-0.604,1.541-0.914c6.532,4.951,13.823,4.859,19.625-1.458c6.485-7.063,8.602-17.063,12.885-25.396
	c0.113-0.222-0.366-0.299-0.967-0.251c-3.614-0.519-7.215-1.016-10.862-1.138c3.152-8.528,4.967-17.57,5.93-26.579
	c0.966-9.029,1.984-17.951,3.628-26.89c1.641-8.922,3.176-17.806,3.282-26.902c0.014-1.243-2.891-0.638-2.902,0.35
	c-0.077,6.657-0.921,13.202-2.011,19.731c-2.932-5.598-6.136-10.982-8.758-16.541c-1.317-2.792-2.486-5.628-3.399-8.559
	c-1.429-4.589-2.23-9.409-1.981-14.651c0.013-0.275-0.171-0.437-0.449-0.512c-0.066-3.971-0.12-7.941-0.128-11.913
	c-0.002-1.426-2.925-0.912-2.922,0.27c0.026,14.739,0.469,29.477,0.608,44.216c0.044,4.693,1.302,10.03-3.834,12.386
	c-5.667,2.6-13.233,0.949-19.53,1.142c0.052-0.097,0.087-0.198,0.086-0.308c-0.082-12.491-2.115-25.005-2.909-37.465
	c-0.843-13.215-2.54-30.103,3.8-42.328c1.157-2.231,2.779-3.725,4.644-4.615c0.124-0.056,0.248-0.113,0.374-0.166
	c0.287-0.123,0.575-0.237,0.871-0.332c0.042-0.016,0.085-0.029,0.127-0.043c4.029-1.237,8.865-0.024,12.646,2.649
	c6.605,4.67,10.728,12.794,14.598,19.661c3.395,6.023,7.104,14.404,14.164,16.802c7.646,2.597,17.347-2.134,24.482,1.356
	c-8.917,9.315-9.873,25.463-11.006,37.538c-1.621,17.277-1.396,34.703-3.447,51.936c-2.148,18.045-7.775,36.795-22.563,48.472
	c-2.292,1.811-4.741,3.32-7.296,4.602c-0.199,0.021-0.405,0.076-0.61,0.18c-0.328,0.166-0.772,0.407-1.264,0.702
	C302.669,510.694,288.819,511.199,276.21,510.564z M342.019,510.755c-6.679,0.451-13.29,0.17-19.976,0.105
	c-1.728-0.018-3.452-0.196-5.161-0.436c-4.357-0.609-3.273-2.186,0.112-3.898c0.583-0.295,0.796-0.674,0.771-1.021
	c0.154-0.078,0.311-0.146,0.464-0.227c10.262-5.363,17.692-13.887,22.655-23.926c4.069,1.818,9.393,1.348,13.705,1.285
	c-0.022,1.813-0.049,3.627-0.057,5.442c-0.012,0.06-0.023,0.12-0.021,0.186c0.003,0.128,0.011,0.255,0.015,0.382
	c-0.001,0.468-0.014,0.935-0.015,1.402c0,0.17,0.039,0.312,0.1,0.437c0.224,3.703,0.707,7.386,0.681,11.104
	C355.233,509.602,348.396,510.325,342.019,510.755z M367.527,502.662c-1.992-2.944-4.016-5.867-6.071-8.767
	c-0.736-1.037-2.474-4.512-3.973-5.127c-0.005-0.121-0.012-0.242-0.016-0.362c0.116-31.141,2.449-62.191,6.373-93.077
	c1.276,0.58,2.844,0.67,4.233,0.628c0.827-0.024,1.684-0.134,2.511-0.345c0.038,15.613,0.566,31.221,0.589,46.835
	c0.023,16.34,2.876,32.494,3.57,48.797c0.001,0.009,0.004,0.017,0.004,0.024C372.515,495.164,370.229,499.069,367.527,502.662z
	 M381.696,510.487c-7.625-1.672-5.685-10.686-5.648-16.508c0-0.043-0.011-0.078-0.016-0.117c0.379-0.649,0.756-1.299,1.13-1.949
	c0.319-0.207,0.538-0.504,0.521-0.874c-0.003-0.056-0.007-0.11-0.009-0.165c-0.002-0.037-0.005-0.072-0.007-0.108
	c-0.14-3.17-0.364-6.333-0.624-9.493c5.29,0,10.58,0,15.869,0c0.105,0,0.219-0.02,0.336-0.047
	c2.375,10.42,6.164,21.488,13.759,28.473c0.476,0.438,0.972,0.837,1.479,1.218C399.886,512.081,390.102,512.332,381.696,510.487z
	 M477.167,516.906c-7.358-0.769-14.586-1.844-22.003-1.634c-4.917,0.14-9.953,0.148-14.731-1.092
	c-0.203-0.202-0.535-0.336-1.021-0.335c-0.038,0-0.076,0.001-0.114,0.001c-0.386-0.119-0.775-0.225-1.157-0.361
	c-5.62-2.01-9.011-7.113-11.274-12.341c-3.284-7.585-5.488-15.836-8.06-23.687c-0.875-2.671-1.726-5.35-2.565-8.031
	c0.061-0.137,0.035-0.256-0.105-0.342c-1.756-5.62-3.436-11.265-5.003-16.941c-4.811-17.427-8.323-35.287-9.062-53.382
	c-0.057-1.4-2.965-0.847-2.918,0.283c0.85,20.847,5.348,41.195,11.149,61.175c0.84,2.891,1.717,5.771,2.611,8.645
	c-2.915-0.158-5.821-0.463-8.743-0.495c-0.681-0.008-1.86,0.68-1.952,1.133c-0.426,0.184-0.729,0.406-0.675,0.606
	c3.663,13.377,8.252,27.373,22.179,33.004c0.195,0.079,0.478,0.063,0.788-0.006c1.295,2.813,2.888,5.461,5.061,7.759
	c1.153,1.22,2.43,2.213,3.797,3.028c-9.775,0.037-19.844-0.582-26.643-8.524c-8.691-10.152-11.285-26.579-13.305-39.339
	c-4.879-30.831-3.641-61.916-3.609-93c0-0.105-0.016-0.201-0.04-0.289c1.009-1.481,1.871-3.014,2.427-4.514
	c4.344,2.251,9.501,2.293,14.003,4.231c3.739,1.61,9.154,6.834,11.024,10.525c1.526,3.013,2.437,6.456,3.525,9.639
	c4.837,14.142,9.387,28.383,13.986,42.603c4.526,13.994,9.001,28.005,13.634,41.964c0.975,2.936,1.817,6.01,3.084,8.839
	c0.011,0.025,0.028,0.048,0.04,0.072c-4.845,0.107-9.683,0.423-14.529,0.454c-1.666,0.011-2.217,2.163-0.25,2.15
	c5.588-0.035,11.162-0.468,16.75-0.5c0.129-0.001,0.249-0.019,0.364-0.042c1.561,0.818,3.462,1.365,4.625,1.853
	c4.628,1.938,7.325,4.138,9.538,8.737c1.039,2.16,1.264,4.086,2.967,5.117c-4.873,0.652-9.86,0.733-14.726,0.755
	c-1.613,0.007-2.26,2.019-0.287,2.01c7.212-0.032,14.632-0.226,21.644-2.069c0.236-0.063,0.426-0.15,0.584-0.253
	c1.097-0.173,2.178-0.37,3.203-0.488c2.326-0.269,4.055-0.122,5.009,2.234c0.521,1.282,1.745,2.115,2.847,2.851
	c2.733,1.824,9.179,2.309,9.835,6.157C497.379,517.991,479.608,517.161,477.167,516.906z M420.024,490.594
	c1.13,3.348,2.151,6.814,3.468,10.131c-11.356-6.188-15.546-18.687-18.878-30.775c2.937,0.121,5.863,0.413,8.801,0.498
	C415.535,477.189,417.765,483.897,420.024,490.594z M209.354,122.454c0.246-0.711,3.019-1.012,2.852-0.531
	c-1.491,4.302-0.104,8.535,4.529,9.841c0.788,0.222-1.748,1.265-2.391,1.084C209.384,131.45,207.72,127.167,209.354,122.454z
	 M229.622,117.839c0.439-1.266,3.341-1.242,2.781,0.371c-1.734,4.994-0.759,11.623-7.065,13.342
	c-1.796,0.488-2.347-1.574-0.553-2.063C229.017,128.337,228.44,121.244,229.622,117.839z M234.325,120.792
	c-0.167-0.625,0.781-1.074,1.236-1.182c1.206-0.285,2.866-0.516,3.835,0.477c0.793,0.813,0.8,2.071,0.806,3.129
	c0.004,0.64-1.18,0.98-1.633,1.032c-0.544,0.062-1.27-0.038-1.273-0.704c-0.004-0.633-0.035-1.593-0.394-2.068
	c-0.058-0.076-0.115-0.154-0.187-0.218c-0.086-0.076-0.094-0.084-0.026-0.023c-0.046-0.028-0.095-0.054-0.143-0.076
	c-0.017-0.005-0.017-0.005-0.046-0.013c-0.026-0.006-0.038-0.009-0.054-0.013c-0.019,0.001-0.036,0.001-0.068,0.001
	c-0.01,0.001-0.015,0.001-0.025,0.002c-0.077,0.007-0.154,0.019-0.23,0.029c-0.025,0.007-0.065,0.016-0.136,0.031
	C235.532,121.304,234.498,121.435,234.325,120.792z M214.997,114.896c1.378-0.997,3.112-1.798,4.855-1.511
	c1.536,0.253,2.193,1.685,2.494,3.059c0.194,0.892-2.714,1.618-2.898,0.777c-0.17-0.781-0.408-1.74-1.098-2.239
	c-0.159-0.115-0.448-0.151-0.411-0.202c-0.237,0.095-0.467,0.275-0.665,0.419c-0.563,0.407-1.354,0.642-2.049,0.549
	C214.661,115.673,214.517,115.244,214.997,114.896z M219.448,107.7c-0.13-0.486,1.034-0.82,1.313-0.896
	c2.555-0.701,5.923,0.378,6.946,3.021c0.247,0.641-2.602,1.544-2.898,0.777c-0.33-0.853-1.005-1.529-1.778-2.003
	c-0.426-0.261-0.867-0.501-1.353-0.632c-0.172-0.053-0.346-0.094-0.523-0.12c-0.094-0.003-0.152-0.007-0.194-0.01
	C220.601,107.931,219.569,108.152,219.448,107.7z M234.748,114.124c-0.446-0.488,0.372-1.072,0.759-1.215
	c1.509-0.554,3.135-0.984,4.723-0.496c1.229,0.379,2.151,1.338,3.038,2.223c0.815,0.813-1.933,1.908-2.686,1.156
	c-1.181-1.18-2.161-2.25-3.907-1.609C236.141,114.379,235.21,114.63,234.748,114.124z" fill="#0984E3"></path>
</svg>