<?xml version="1.0" standalone="no"?>
<svg version="1.1" id="Layer_1" xmlns="http://www.w3.org/2000/svg" xmlns:xlink="http://www.w3.org/1999/xlink" x="0px" y="0px" width="599.106px" height="595.28px" viewBox="0 0 599.106 595.28" enable-background="new 0 0 599.106 595.28" xml:space="preserve">
<path id="color_x5F_2" fill="#FBC02D" d="M177.604,459.365c0.461-0.072,0.859-0.31,1.129-0.593
	c5.36,2.008,11.608,6.044,11.672,12.024c-9.847,0-19.693,0-29.541,0c0.041-0.084,0.054-0.168,0.02-0.249
	c-0.867-2.08-0.116-4.47,0.612-6.483c0.434-1.199,1.458-3.865,2.71-5.051c0.146-0.016,0.302-0.042,0.461-0.076
	C168.623,460.912,173.337,460.036,177.604,459.365z M222.45,458.813c-3.412,3.027-11.423,3.958-14.173,0.563
	c-1.214,1.093-2.118,4.042-2.43,5.229c-0.508,1.932-0.891,4.043-0.079,5.943c0.016,0.036,0.018,0.072,0.017,0.108
	c9.837,0,19.674,0,29.511,0c-0.161-6.014-6.59-10.039-11.972-11.993C223.034,458.76,222.729,458.812,222.45,458.813z
	 M436.182,422.802c-1.067-10.786-12.21-10.917-19.253-5.136c0.599,1.707,1.127,3.437,1.508,5.216c0.001,0.004,0,0.007,0,0.011
	C424.477,422.557,430.497,422.629,436.182,422.802z M445.687,454.703c-0.156,0.388-0.662,0.66-1.203,0.772
	c-0.102,0.288-0.164,0.448-0.164,0.448l-4.275,1.455c-2.228,0.999-4.5,1.903-6.771,2.767c-0.595,0.226-1.197,0.442-1.795,0.667
	c0.086,0.265-0.035,0.586-0.506,0.925c-12.521,9.012,6.873,19.731,16.154,17.29c0.081-0.151,0.215-0.309,0.418-0.468
	c13.866-10.874,18.074-32.547,11.072-48.64c-3.36-7.723-9.41-7.33-15.326-2.794c-0.105,0.081-0.223,0.141-0.344,0.191
	C447.271,435.306,448.829,446.912,445.687,454.703z M211.183,364.714c0,0,0.578-0.225,1.447-0.565
	c-1.029,0.317-2.07,0.601-3.119,0.861L211.183,364.714z M192.134,296.315c-2.547-0.343-8.221-1.788-9.821-4.693
	c-0.095-0.028-0.183-0.063-0.252-0.113c-0.197,0.062-0.399,0.096-0.594,0.083c-11.19-0.755-15.353,12.297-18.019,20.881
	c-1.209,3.89-5.17,11.686-0.002,14.332c4.947,2.533,10.828,3.036,16.275,2.198c0.918-5.521,2.063-10.998,2.131-16.618
	c0.016-1.287,2.951-1.735,2.934-0.228c-0.071,5.976-1.365,11.788-2.305,17.666c-0.145,0.904-1.646,1.363-2.447,1.054
	c-0.064,0.018-0.129,0.037-0.197,0.048c-0.246,0.041-0.497,0.075-0.747,0.111c-0.575,7.175-2.186,14.252-2.895,21.428
	c-0.754,7.637,5.148,10.108,11.716,11.38c12.201,2.364,26.621-0.473,36.906-7.521c0.167-0.419,0.256-0.919,0.293-1.466
	c0.007-0.189,0.014-0.381,0.02-0.578c0.007-2.45-0.853-5.601-1.102-7.221c-0.869-5.64-1.936-11.248-3.033-16.847
	c-1.771-9.027-4.514-18.35-5.125-27.554c-0.074-1.128,2.834-1.74,2.898-0.776c0.399,6.028,1.669,12.099,3.022,18.12
	c2.338,0.063,3.984-1.244,5.395-3.04c0.951-13.47-8.276-29.182-22.979-29.262c-0.094,0.789-0.136,1.621-0.105,2.515
	c0.01,0.299-0.211,0.556-0.53,0.756c-1.314,3.543-4.542,5.207-8.219,5.458l-0.198,0.124l-0.315-0.102
	C193.95,296.48,193.044,296.438,192.134,296.315z M222.228,321.938l0.534-0.181c-0.185,0.029-0.368,0.061-0.558,0.079
	C222.212,321.871,222.22,321.904,222.228,321.938z M198.985,366.871l2.747-0.486c-1.458,0.155-2.914,0.262-4.362,0.297
	L198.985,366.871z M225.937,320.686l0.049-0.017l1.641-0.557c-0.029-0.174-0.063-0.348-0.092-0.523
	C227.024,320,226.497,320.376,225.937,320.686z M290.536,285.303c-8.077-5.891-14.226-13.346-19.299-22.185
	c-0.918-1.601-1.871-3.209-2.835-4.826c-10.19-2.104-20.21-4.95-30.153-8l-0.596-0.11c-0.113,0.204-0.332,0.406-0.699,0.581
	c-2.734,1.301-4.152,5.394-5.071,8.062c-1.002,2.907-1.815,5.914-2.097,8.985c8.247,3.33,16.559,6.546,24.965,9.451
	c5.043,1.742,10.126,3.108,15.26,4.536c2.781,0.773,5.773,1.736,8.824,2.491l6.732,1.163
	C287.247,285.579,288.911,285.546,290.536,285.303z M267.259,256.378c-0.063-0.104-0.125-0.208-0.188-0.313l0.093,0.292
	C267.195,256.365,267.228,256.371,267.259,256.378z M376.11,347.12c16.039-0.453,32.08-3.905,46.883-10.105c0,0,0.001,0,0.002,0
	c0.002-0.029-0.002-0.054,0.004-0.085c2.653-13.234,0.785-27.844-0.385-41.16c-1.321-15.054-3.53-29.854-8.439-44.214
	c-4.968-14.534-11.662-28.747-20.756-41.183c-2.971-4.062-6.144-8.088-9.888-11.475c-1.866-1.688-5.103-4.897-7.933-4.597
	c-0.111,0.012-0.211,0.015-0.306,0.015c-2.474,2.287-5.241,4.196-8.171,5.579c-6.346,2.996-12.801,3.298-18.544,1.257
	c-2.93,6.333-7.205,21.537-16.914,15.976c-0.427-0.244-0.34-0.555-0.022-0.829c-0.982-2.335-1.687-5.396-2.526-8.468l-0.845-1.963
	c-2.872-0.526-7.472,5.392-8.961,7.093c-3.058,3.492-5.901,7.166-8.61,10.934c-4.448,6.186-8.615,12.559-12.681,19.001
	c-0.02,0.031-0.049,0.061-0.078,0.09c5.46,3.935,10.848,7.9,15.82,12.486c3.516-3.367,6.732-6.98,10.023-10.568
	c3.423-3.732,7.314-6.885,10.843-10.483c6.003-6.122,10.699-13.651,18.146-18.191c0.528-0.322,3.451-0.651,2.223,0.098
	c-7.799,4.754-12.077,12.964-18.793,18.888c-7.351,6.483-13.423,14.107-20.57,20.783c-0.32,0.299-1.514,0.536-2.209,0.527
	c-0.684,0.406-1.814,0.611-2.294,0.168c-6.847-6.32-14.604-11.255-21.95-16.928c-6.614-5.107-11.805-11.684-18.18-17.051
	c-5.416,0.529-11.044,3.517-13.329,8.614c0.022,0.034,0.048,0.066,0.062,0.106c3.461,9.837,9.657,19.113,14.81,28.124
	c5.729,10.02,11.792,18.543,21.503,25.246c8.288,5.719,16.123,7.538,25.525,2.393c7.329-4.011,14.787-8.634,21.465-13.644
	c7.145-5.359,13.892-11.233,21.239-16.321c7.009-4.854,14.497-8.972,21.552-13.76c0.864-0.586,3.393-0.333,1.773,0.767
	c-9.338,6.338-19.282,11.689-28.189,18.664c-6.41,5.019-12.65,10.223-19.413,14.737c4.45,5.55,3.354,14.971,2.489,21.472
	c-1.496,11.256-4.685,22.239-9.4,32.566c-0.035,0.077-0.1,0.146-0.179,0.213c0.022,0.02,0.048,0.035,0.068,0.057
	c1.964,2.082,4.117,3.892,6.399,5.488l3.877,2.426C351.66,345.655,364.267,347.455,376.11,347.12z"></path>
<path id="color_x5F_1" d="M204.159,267.46c0.453,0.496-0.378,1.062-0.758,1.217c-3.647,1.492-9.515,0.616-9.699-4.25
	c-0.044-1.167,2.86-1.768,2.898-0.776c0.105,2.802,2.916,4.861,5.633,3.75C202.756,267.187,203.708,266.965,204.159,267.46z
	 M212.435,250.882c-0.327-0.98-0.643-1.959-0.666-3c-0.015-0.612-2.919-0.129-2.898,0.776c0.024,1.042,0.34,2.021,0.666,3
	C209.795,252.433,212.669,251.586,212.435,250.882z M212.824,241.636c-2.742-0.723-6.119-0.168-7.223,2.808
	c-0.578,1.561,2.326,1.507,2.768,0.317c0.501-1.352,1.443-1.543,2.777-1.192c0.712,0.188,1.548,0.028,2.049-0.549
	C213.612,242.541,213.49,241.812,212.824,241.636z M195.515,256.381c-0.327-0.98-0.643-1.959-0.666-3
	c-0.015-0.612-2.919-0.129-2.898,0.776c0.024,1.042,0.34,2.021,0.666,3C192.875,257.932,195.749,257.085,195.515,256.381z
	 M194.227,249.069c0.712,0.188,1.548,0.028,2.049-0.549c0.417-0.479,0.295-1.209-0.371-1.384c-2.742-0.723-6.119-0.168-7.223,2.808
	c-0.578,1.561,2.326,1.507,2.768,0.317C191.95,248.909,192.893,248.717,194.227,249.069z M209.566,254.888
	c-0.64-0.001-1.509,0.23-1.92,0.764c-0.42,0.545,0.356,0.748,0.758,0.748c0.247,0,0.478-0.019,0.709,0.068
	c0.266,0.1,0.765,0.621,0.755,0.913c-0.031,0.974-0.611,1.525-1.364,2.039c-0.511,0.349-0.299,0.83,0.246,0.917
	c0.721,0.116,1.462-0.148,2.049-0.549c0.527-0.36,1.013-0.763,1.4-1.275c0.198-0.262,0.337-0.584,0.443-0.892
	c0.075-0.218,0.241-0.862,0.126-1.072C212.028,255.204,211.048,254.891,209.566,254.888z M306.547,177.918
	c-0.782,0.271-1.573,0.364-2.376,0.402c-0.779-5.466-0.412-10.984-0.382-16.488c0.009-1.548-2.933-1.13-2.939,0.208
	c-0.032,5.941-0.434,11.891,0.521,17.784c0.096,0.586,0.867,0.699,1.327,0.696c1.505-0.008,2.964-0.07,4.395-0.566
	C308.824,179.354,308.315,177.305,306.547,177.918z M323.379,176.649c-0.352,2.196-1.403,4.646-3.831,5.098
	c-0.517,0.096-1.473,0.308-1.669,0.902c-0.191,0.581,0.94,0.527,1.212,0.477c3.809-0.708,6.542-2.981,7.169-6.902
	C326.414,175.26,323.517,175.792,323.379,176.649z M293.365,161.097c0,2,0,4,0,6c0,1.311,2.908,0.729,2.908-0.321c0-2,0-4,0-6
	C296.273,159.464,293.365,160.046,293.365,161.097z M312.859,159.575c0,1.833,0,3.667,0,5.5c0,1.408,2.92,0.882,2.92-0.277
	c0-1.833,0-3.667,0-5.5C315.779,157.89,312.859,158.415,312.859,159.575z M318.415,150.167c-3.004-0.477-5.923-0.394-8.901,0.205
	c-1.811,0.364-1.301,2.114,0.471,1.758c2.466-0.496,4.899-0.446,7.376-0.053C318.656,152.282,320.36,150.475,318.415,150.167z
	 M296.453,152.975c-1.849,0.371-3.437,1.354-4.696,2.742c-0.432,0.477-0.303,1.058,0.334,1.243c0.667,0.194,1.575-0.027,2.049-0.549
	c0.797-0.878,1.616-1.443,2.784-1.678c0.51-0.102,1.386-0.623,1.214-1.267C297.953,152.777,296.963,152.873,296.453,152.975z
	 M464.085,454.245c-1.594,10.316-6.333,19.231-14.6,25.712c-0.184,0.145-0.398,0.234-0.619,0.286
	c-0.164,0.275-0.471,0.525-0.951,0.667c-10.679,3.164-31.085-7.876-21.394-18.259c-16.613,6.028-33.808,11.183-51.002,14.962
	c-10.214,2.246-21.233,4.014-31.676,2.346c-6.289-1.004-13.003-3.619-17.192-8.376c-13.123,0.606-27.607-0.2-40.059-4.543
	c-6.098-2.127-11.831-5.501-14.037-12.012c-2.503-7.382-0.764-15.067,1.926-22.156c13.06-34.422,31.541-69.45,57.187-96.183
	c0.043-0.044,0.106-0.087,0.179-0.128c-1.213-1.031-2.395-2.114-3.515-3.301c-0.309-0.327-0.285-0.662-0.081-0.948
	c-0.039-0.039-0.055-0.083-0.029-0.14c4.492-9.834,7.786-20.418,9.214-31.155c0.85-6.39,2.302-16.078-1.793-21.858
	c-0.484,0.305-0.962,0.619-1.452,0.916c-11.801,7.141-24.314,16.879-38.184,8.805c-1.067-0.621-2.096-1.272-3.104-1.939
	c-6.337,1.667-13.114-0.068-19.281-1.728c-6.135-1.65-12.31-3.179-18.327-5.229c-9.373-3.193-18.631-6.75-27.81-10.463
	c-0.629-0.254-0.734-0.654-0.559-1.033c-0.059-0.121-0.088-0.263-0.072-0.433c0.002-0.024,0.006-0.052,0.008-0.077
	c-0.185-0.008-0.352-0.043-0.475-0.119c-0.95-0.588-2.066-0.851-3.158-1.133c-0.104,0.161-0.198,0.321-0.312,0.481
	c-5.329,7.578-15.77,9.682-18.271,18.318c15.934,0.178,26.479,16.019,25.486,31.085c0.012,0.048,0.008,0.098,0.001,0.149
	c0.87,6.531,3.078,12.891,3.636,19.456c0.517,6.098-0.435,12.427,2.916,17.854c1.375,1.394,12.285,7.917,8.938,10.643
	c-2.442,1.989-6.554,0.536-9.873-0.423c0.472,2.818,0.877,6.93-1.146,8.482c-1.229,0.942-2.417,1.105-3.533,0.739
	c0.116,1.938,0.236,3.857,0.402,5.729c0.67,7.555,0.699,15.669,2.545,23.059c0.018,0.069,0.006,0.137-0.018,0.204
	c-0.014,0.162-0.08,0.347-0.233,0.559c-0.845,1.17-1.915,2.263-3.146,3.267c0.013,0.057,0.021,0.117,0.017,0.185
	c-0.595,9.272-2.348,18.432-3.885,27.582c-1.208,7.195-3.207,15.186-2.415,22.563c6.527,2.171,14.711,7.158,13.825,14.938
	c-0.107,0.939-2.141,1.432-2.747,0.819c-0.211,0.083-0.426,0.136-0.628,0.136c-10.333,0-20.667,0-31,0
	c-1.001,0-1.025-0.494-0.646-0.977c-0.126-0.054-0.224-0.134-0.272-0.249c-1.731-4.058,0.696-10.958,4.77-13.065
	c-0.033-0.089-0.072-0.174-0.102-0.268c-0.003-0.061-0.006-0.122-0.009-0.182c-0.27-6.187-0.66-12.395-1.39-18.545
	c-0.487-4.117-1.79-8.377-1.756-12.516c0.044-5.216,1.098-10.321,0.871-15.545c-1.441-0.576-2.762-1.354-3.916-2.35
	c-1.056,0.943-2.376,1.678-3.775,2.268c-6.265,14.983-17.186,28.819-18.305,45.471c6.557,2.136,14.916,7.146,14.021,15.003
	c-0.075,0.66-1.104,1.098-1.919,1.089c-0.023,0.001-0.047,0.006-0.069,0.006c-10.924,0-21.848,0-32.771,0
	c-1.169,0-1.007-0.672-0.423-1.216c-0.047-0.042-0.087-0.091-0.111-0.15c-1.166-2.797,0.292-6.594,1.652-9.065
	c0.926-1.681,1.977-3.214,3.525-4.189c-0.006-0.023-0.012-0.046-0.019-0.069c-0.308-0.249-0.342-0.52-0.21-0.771
	c-1.973-7.946-1.196-16.59-0.222-24.61c0.975-8.024,6.376-13.851,8.674-21.395c-4.315-0.907-10.386-2.465-9.743-7.665
	c1.117-9.04,2.804-18.077,3.992-27.135c0.014-0.101,0.081-0.198,0.182-0.29c-0.32-0.253-0.576-0.587-0.774-0.986
	c-0.075,0.193-0.143,0.39-0.228,0.581c-0.891,2.006-3.298,4.864-5.895,3.662c-1.393-0.645-1.811-2.024-1.754-3.672
	c-0.965,0.936-2.088,1.584-3.408,1.711c-2.031,0.195-3.756-1.762-3.097-3.772c0.243-0.743,0.607-1.419,1.019-2.067
	c-1.394,0.976-3.439,2.01-4.903,1.104c-3.454-2.137,2.485-7.044,5.181-9.809c0.041-0.09,0.094-0.185,0.173-0.289
	c7.435-9.755,5.026-23.125,9.062-34.183c0.007-0.02,0.021-0.037,0.029-0.056c-0.379-0.222-0.751-0.456-1.111-0.706
	c-5.058-3.505-0.314-12.761,1.026-16.983c3.196-10.074,8.808-21.605,20.929-21.071c0.316-2.624,0.339-5.697-1.971-7.337
	c-3.087-2.191-6.58-0.35-9.885,0.061c-2.32,0.289-4.569-0.345-6.467-1.558c1.709,6.937,1.183,14.245-4.396,19.516
	c-5.846,5.523-14.843,6.175-21.72,9.844c-0.657,0.351-1.337,0.223-1.726-0.106c-0.496,0.042-0.924-0.049-1.031-0.359
	c-3.329-9.664-1.471-35.114,11.108-37.696l0.051-0.034h0.175c1.127-0.205,2.338-0.229,3.639-0.043
	c-2.309-2.417-4.189-5.369-5.773-8.056c-3.691-6.264-5.928-13.23-5.481-20.566c0.48-7.906,3.64-18.275,9.935-24.19l0.293-0.53
	l0.56-0.23c2.789-2.336,6.146-3.814,10.107-3.908c8.677-10.472,21.995-15.288,34.499-13.032c0.102-0.323,1.807-1.029,2.277-1.029
	c12.875,0,25.75,0,38.626,0c3.622-0.682,7.489-0.712,11.019-0.539c0.715-4.967,9.82-3.668,12.714-1.832
	c7.463,4.737,9.423,14.759,11.817,22.577c0.027,0.088,0.035,0.173,0.033,0.256c0.494-0.064,0.987-0.116,1.476-0.146
	c0.586-0.036,0.935,0.118,1.1,0.351c0.031,0.019,0.065,0.034,0.094,0.057c7.462,6.13,13.368,13.677,21.25,19.36
	c0.593,0.427,1.185,0.853,1.777,1.279c5.359-8.472,10.863-16.917,17.17-24.716c1.492-1.846,3.917-5.139,6.747-7.912
	c-12.559,5.926-29.336,1.939-39.617-7.03c-7.443-6.494-11.857-15.437-9.987-25.433c1.954-10.443,7.299-19.891,8.38-30.549
	c0.048-0.47,0.515-0.824,1.063-1.003v-0.002c-6.117,0.199-9.331-7.047-7.401-13.609c4.306-14.64,25.691-9.849,36.687-12.944
	c0.305-0.086,0.543-0.116,0.749-0.125c9.852-6.419,24.022-5.323,33.124,2.102c11.079,9.037,10.879,25.75,22.742,34.183
	c8.787,1.479,18.922,3.268,20.193,13.581c1.072,8.699-2.742,17.684-8.893,24.25c6.613,0.306,12.93,8.824,16.389,13.263
	c9.158,11.75,16.285,25.258,21.483,39.194c6.052,16.222,9.055,32.846,10.521,50.037c1.143,13.406,3.064,28.212,0.409,41.545
	c2.411,17.517-0.347,35.341-9.19,50.812c-5.957,10.423-13.664,19.619-20.975,29.094c5.369-2.065,11.347-2.907,16.983-3.723
	c0.771-0.445,2.075-0.557,2.362,0.161c0.349,0.872,0.693,1.744,1.028,2.619c8.281-5.843,21.882-5.841,22.972,6.714
	c0.021,0.251-0.058,0.479-0.199,0.678c0.197,0.007,0.397,0.014,0.594,0.021c0.621,0.022,0.882,0.241,0.907,0.527
	c0.49,0.604,0.952,1.262,1.398,1.946c5.791-4.236,14.206-6.552,18.44,1.147C464.577,434.416,465.438,445.491,464.085,454.245z
	 M458.616,429.918c-3.36-7.723-9.41-7.33-15.326-2.794c-0.105,0.081-0.223,0.141-0.344,0.191c4.325,7.991,5.883,19.597,2.74,27.388
	c-0.156,0.388-0.662,0.66-1.203,0.772c-0.225,0.047-0.454,0.062-0.669,0.05c-1.235,0.658-2.491,1.279-3.771,1.853
	c-2.228,0.999-4.5,1.903-6.771,2.767c-0.595,0.226-1.197,0.442-1.795,0.667c0.086,0.265-0.035,0.586-0.506,0.925
	c-12.521,9.012,6.873,19.731,16.154,17.29c0.081-0.151,0.215-0.309,0.418-0.468C461.41,467.684,465.618,446.011,458.616,429.918z
	 M416.929,417.666c0.599,1.707,1.127,3.437,1.508,5.216c0.001,0.004,0,0.007,0,0.011c6.04-0.336,12.061-0.264,17.745-0.091
	C435.114,412.016,423.972,411.886,416.929,417.666z M394.535,418.04c-3.509,4.598-6.896,9.282-9.92,14.22
	c8.848-5.855,19.754-8.28,30.781-9.161c-0.731-3.145-1.88-6.152-3.077-9.147c-5.616,0.806-11.787,1.51-16.949,3.908
	C395.179,417.948,394.868,418.01,394.535,418.04z M337.374,337.435c1.253,0.876,2.546,1.685,3.877,2.426
	c10.409,5.794,23.016,7.594,34.859,7.259c16.039-0.453,32.08-3.905,46.883-10.105c0,0,0.001,0,0.002,0
	c0.002-0.029-0.002-0.054,0.004-0.085c2.653-13.234,0.785-27.844-0.385-41.16c-1.321-15.054-3.53-29.854-8.439-44.214
	c-4.968-14.534-11.662-28.747-20.756-41.183c-2.971-4.062-6.144-8.088-9.888-11.475c-1.866-1.688-5.103-4.897-7.933-4.597
	c-0.111,0.012-0.211,0.015-0.306,0.015c-2.474,2.287-5.241,4.196-8.171,5.579c-6.346,2.996-12.801,3.298-18.544,1.257
	c-2.93,6.333-7.205,21.537-16.914,15.976c-0.427-0.244-0.34-0.555-0.022-0.829c-0.982-2.335-1.687-5.396-2.526-8.468
	c-0.173-0.633-0.353-1.265-0.541-1.893c-0.099-0.035-0.201-0.052-0.304-0.07c-2.872-0.526-7.472,5.392-8.961,7.093
	c-3.058,3.492-5.901,7.166-8.61,10.934c-4.448,6.186-8.615,12.559-12.681,19.001c-0.02,0.031-0.049,0.061-0.078,0.09
	c5.46,3.935,10.848,7.9,15.82,12.486c3.516-3.367,6.732-6.98,10.023-10.568c3.423-3.732,7.314-6.885,10.843-10.483
	c6.003-6.122,10.699-13.651,18.146-18.191c0.528-0.322,3.451-0.651,2.223,0.098c-7.799,4.754-12.077,12.964-18.793,18.888
	c-7.351,6.483-13.423,14.107-20.57,20.783c-0.32,0.299-1.514,0.536-2.209,0.527c-0.684,0.406-1.814,0.611-2.294,0.168
	c-6.847-6.32-14.604-11.255-21.95-16.928c-6.614-5.107-11.805-11.684-18.18-17.051c-5.416,0.529-11.044,3.517-13.329,8.614
	c0.022,0.034,0.048,0.066,0.062,0.106c3.461,9.837,9.657,19.113,14.81,28.124c5.729,10.02,11.792,18.543,21.503,25.246
	c8.288,5.719,16.123,7.538,25.525,2.393c7.329-4.011,14.787-8.634,21.465-13.644c7.145-5.359,13.892-11.233,21.239-16.321
	c7.009-4.854,14.497-8.972,21.552-13.76c0.864-0.586,3.393-0.333,1.773,0.767c-9.338,6.338-19.282,11.689-28.189,18.664
	c-6.41,5.019-12.65,10.223-19.413,14.737c4.45,5.55,3.354,14.971,2.489,21.472c-1.496,11.256-4.685,22.239-9.4,32.566
	c-0.035,0.077-0.1,0.146-0.179,0.213c0.022,0.02,0.048,0.035,0.068,0.057C332.938,334.028,335.092,335.838,337.374,337.435z
	 M267.259,256.378c-0.063-0.104-0.125-0.208-0.188-0.313c-4.604-7.686-9.328-15.585-12.238-23.854
	c-0.05-0.142-0.012-0.282,0.078-0.415c-0.016-0.023-0.032-0.047-0.045-0.073c-2.469-1.502-5.018-3.042-7.786-3.919
	c-2.608-0.827-5.369-0.942-7.952-1.8c0,7.5,0,15.001,0,22.502c0,0.06-0.012,0.116-0.022,0.172c0.021,0.004,0.047,0.005,0.065,0.011
	c9.243,2.854,18.551,5.554,27.993,7.667C267.195,256.365,267.228,256.371,267.259,256.378z M345.872,201.123
	c0.141-0.291,0.529-0.519,0.979-0.668c-4.195-1.89-7.945-5.071-10.886-9.461c-1.74-2.598-6.317-10.924-2.715-13.688
	c2.02-1.549,4.864-2.224,5.519-5.134c0.288-1.285-0.369-11.406-4.117-6.769c-0.512,0.633-3.381,0.953-2.664,0.065
	c0.162-0.2,0.333-0.394,0.509-0.584c-9.056-3.655-14.274-17.497-16.384-26.49c-7.659,6.17-17.126,8.736-26.854,8.95
	c-0.28,8.18,0.176,16.497,1.447,24.578c1.025,6.524,2.268,16.54,7.877,20.972c8.231,6.503,20.064-4.474,27.674,2.62
	c5.589,5.209,5.457,13.937,8.512,20.534c0.01,0.021,0.01,0.042,0.017,0.063C340.72,218.229,343.981,205.027,345.872,201.123z
	 M246.997,200.978c-0.565,0.283-1.326,0.552-1.617,0.552c-3.066,0-6.133,0-9.199,0c-1.098,0.157-2.178,0.371-3.223,0.657
	c-1.225,0.335-6.062,1.876-3.912,3.727c1.441,1.242,3.347,1.573,5.197,1.633c1.71,0.055,0.252,1.148-0.781,1.396
	c0.006,0.071,0.007,0.146-0.006,0.228c-0.506,3.31-1.402,7.978,3.021,8.675c0.009,0.001,0.016,0.004,0.024,0.006
	c0.087,0.014,0.162,0.035,0.235,0.056c0.887,0.261,0.801,0.998,0.298,1.535c0.004,5.211,5.431,5.164,9.607,6.25
	c3.271,0.851,6.198,2.209,9.083,3.853c2.512-4.144,7.075-6.924,11.835-8.17c-0.007-0.019-0.019-0.033-0.024-0.052
	c-1.543-5.039-2.584-10.602-5.433-15.119c-1.257-1.992-2.729-4.688-4.779-5.99c-1.095-0.695-8.276-3.661-8.539-0.398
	C248.729,200.524,247.796,200.971,246.997,200.978z M194.811,201.53c5.692,1.174,11.189,3.821,15.967,8.093
	c4.526,4.047,10.927,13.377,9.57,20.345c3.062,2.603,6.446,6.238,8.421,9.58c1.411,2.39,2.38,9.535,5.803,9.652
	c0.353,0.012,0.567,0.07,0.684,0.155c0.145-0.08,0.281-0.174,0.43-0.245c0.176-0.084,0.354-0.134,0.529-0.159
	c-0.02-0.081-0.031-0.167-0.031-0.262c0-7.778,0-15.556,0-23.334c0-0.263,0.104-0.489,0.271-0.674
	c-1.562-1.132-2.351-2.724-2.29-4.965c-1.738-0.526-3.265-1.569-3.775-3.472c-0.604-2.253-0.219-4.611,0.127-6.874
	c0.032-0.211,0.137-0.396,0.281-0.555c-1.806-0.241-3.615-0.801-4.76-2.195c-1.513-1.844,1.461-3.585,2.734-4.254
	c0.598-0.313,1.221-0.587,1.858-0.835C218.689,201.53,206.75,201.53,194.811,201.53z M195.352,296.429
	c-0.17,0.012-0.342,0.017-0.514,0.022c-0.888,0.029-1.794-0.013-2.704-0.136c-2.547-0.343-8.221-1.788-9.821-4.693
	c-0.095-0.028-0.183-0.063-0.252-0.113c-0.197,0.062-0.399,0.096-0.594,0.083c-11.19-0.755-15.353,12.297-18.019,20.881
	c-1.209,3.89-5.17,11.686-0.002,14.332c4.947,2.533,10.828,3.036,16.275,2.198c0.918-5.521,2.063-10.998,2.131-16.618
	c0.016-1.287,2.951-1.735,2.934-0.228c-0.071,5.976-1.365,11.788-2.305,17.666c-0.145,0.904-1.646,1.363-2.447,1.054
	c-0.064,0.018-0.129,0.037-0.197,0.048c-0.246,0.041-0.497,0.075-0.747,0.111c-0.575,7.175-2.186,14.252-2.895,21.428
	c-0.754,7.637,5.148,10.108,11.716,11.38c12.201,2.364,26.621-0.473,36.906-7.521c0.167-0.419,0.256-0.919,0.293-1.466
	c0.013-0.188,0.02-0.38,0.02-0.578c0.007-2.45-0.853-5.601-1.102-7.221c-0.869-5.64-1.936-11.248-3.033-16.847
	c-1.771-9.027-4.514-18.35-5.125-27.554c-0.074-1.128,2.834-1.74,2.898-0.776c0.399,6.028,1.669,12.099,3.022,18.12
	c2.338,0.063,3.984-1.244,5.395-3.04c0.951-13.47-8.276-29.182-22.979-29.262c-0.094,0.789-0.136,1.621-0.105,2.515
	c0.01,0.299-0.211,0.556-0.53,0.756C202.256,294.514,199.028,296.178,195.352,296.429z M165.624,364.975
	c0.843-0.548,2.637-0.694,2.471,0.094c-0.381,1.813-0.643,3.701-0.646,5.556c-0.001,0.274,0.448,5.027,1.102,4.415
	c2.717-2.547,1.354-8.429,1.32-11.715c0-0.028,0.01-0.055,0.014-0.083c0.002-0.016,0.004-0.032,0.008-0.048
	c0.215-0.934,2.73-1.381,2.864-0.697c1.252,1.303,2.362,2.759,3.717,3.959c0.342,0.303,0.688,0.625,1.075,0.87
	c0.071-0.449,0.019-0.932-0.081-1.353c-0.384-1.614-1.075-3.122-1.87-4.582c-1.162-1.03-1.995-2.281-2.227-3.826
	c-0.008-0.049-0.01-0.098-0.018-0.147c-1.236-8.624,2.097-17.51,2.813-26.075c-4.202,0.261-8.666-0.212-12.533-1.8
	c-3.348,10.563-1.867,22.479-7.93,32.011c-0.084,0.138-0.172,0.271-0.264,0.403c-0.295,0.444-0.601,0.885-0.931,1.318
	c-0.125,0.165-0.317,0.292-0.541,0.386c-0.624,0.616-1.281,1.201-1.88,1.791c-1.036,1.02-3.611,3.063-3.318,4.763
	c0.061,0.355,0.113,0.91,0.4,1.176c0.027,0.024,0.035,0.052,0.032,0.079c0.029-0.021,0.047-0.037,0.084-0.063
	c0.713-0.499,1.375-1.06,1.989-1.676c1.08-1.082,2.09-2.229,3.047-3.421c0.216-0.269,0.867-0.482,1.483-0.57
	c0.937-0.339,2.188-0.305,1.962,0.344c-0.605,1.737-1.781,3.138-2.812,4.633c-0.937,1.361-2.488,3.645-0.633,4.984
	c0.011-0.008,0.014-0.011,0.024-0.02c0.086-0.082,0.172-0.165,0.259-0.247c0.304-0.325,0.584-0.683,0.832-1.051
	c0.525-0.78,1.007-1.589,1.423-2.433c0.818-1.656,1.507-3.382,2.012-5.16c0.077-0.272,0.369-0.5,0.736-0.666
	c0.54-1.07,3.074-1.309,2.844,0.032c-0.284,1.659-0.902,3.268-1.328,4.894c-0.442,1.691-1.31,4.105-0.785,5.859
	c0.555,1.86,2.498-3.925,2.623-4.48c0.475-2.113,0.732-4.271,1.223-6.379C164.315,365.489,164.966,365.107,165.624,364.975z
	 M190.405,470.797c-0.063-5.98-6.312-10.017-11.672-12.024c-0.27,0.283-0.668,0.521-1.129,0.593
	c-4.268,0.67-8.981,1.547-12.938-0.428c-0.159,0.035-0.314,0.06-0.461,0.076c-1.252,1.187-2.276,3.853-2.71,5.051
	c-0.729,2.013-1.479,4.403-0.612,6.483c0.034,0.081,0.021,0.165-0.02,0.249C170.712,470.797,180.559,470.797,190.405,470.797z
	 M194.329,412.236c-0.996,0.285-1.963,0.522-2.827,0.729c-5.885,1.402-11.833,0.03-17.626-1.216
	c-1.338,3.767-3.46,7.012-5.283,10.583c-2.013,3.942-2.863,7.881-3.284,12.272c-0.703,7.326-1.241,15.015,0.621,22.215
	c3.136,2.005,6.854,1.523,10.413,0.946c-0.034-0.076-0.034-0.158-0.018-0.24c-0.002-0.029-0.011-0.054-0.009-0.085
	C177.228,440.819,187.951,427.081,194.329,412.236z M235.296,470.656c-0.161-6.014-6.59-10.039-11.972-11.993
	c-0.29,0.097-0.596,0.148-0.874,0.149c-3.412,3.027-11.423,3.958-14.173,0.563c-1.214,1.093-2.118,4.042-2.43,5.229
	c-0.508,1.932-0.891,4.043-0.079,5.943c0.016,0.036,0.018,0.072,0.017,0.108C215.622,470.656,225.459,470.656,235.296,470.656z
	 M227.61,408.409c-5.65,3.321-13.199,4.963-19.434,3.666c-0.088,5.188-1.409,10.39-0.814,15.538
	c0.469,4.051,1.392,8.026,1.81,12.094c0.599,5.82,1.012,11.663,1.265,17.509c1.113,3.618,9.051,3.625,10.44,0.26
	c0.077-0.186,0.268-0.345,0.513-0.477c-0.648-6.966,1.083-14.371,2.223-21.151C225.142,426.743,226.896,417.625,227.61,408.409z
	 M231.046,402.731c-1.854-7.658-1.877-16.044-2.571-23.851c-0.609-6.86-0.617-14.338-2.185-21.134
	c-4.042,2.708-8.716,4.878-13.66,6.402c-1.029,0.317-2.07,0.601-3.119,0.861c-2.563,0.636-5.17,1.099-7.778,1.375
	c-1.458,0.155-2.914,0.262-4.362,0.297c-3.398,0.084-6.747-0.163-9.933-0.78c-1.931-0.374-4.663-0.927-7.213-1.891
	c0.5,1.59,0.524,3.082-0.482,4.123c-2.218,2.294-4.712,0.675-6.767-1.364c0.182,4.175-0.113,8.758-4.543,9.75
	c-0.828,6.417-1.436,12.917-2.533,19.29c-0.856,4.967-3.348,10.491,2.849,12.765c4.589,1.684,9.986,2.889,14.824,3.406
	c2.918,0.312,7.486,0.388,11.197-0.782c0.013-0.031,0.026-0.062,0.039-0.093c0.263-0.637,1.554-1.001,2.335-0.919
	c1.279-0.723,2.316-1.691,2.968-2.962c-0.001-0.043-0.006-0.084,0.002-0.133c1.584-9.669,0.961-21.986,10.282-27.925
	c1.029-0.655,3.507-0.016,1.848,1.042c-8.291,5.281-7.813,16.996-9.099,25.76c0.101,0.054,0.148,0.128,0.108,0.23
	c-0.059,0.15-0.136,0.29-0.205,0.433c-0.008,0.05-0.015,0.102-0.022,0.152c-0.015,0.092-0.055,0.177-0.104,0.26
	c0.288,0.023,0.548,0.106,0.73,0.276C210.62,413.79,225.601,409.619,231.046,402.731z M227.626,320.112
	c-0.029-0.174-0.063-0.348-0.092-0.523c-0.51,0.411-1.037,0.787-1.598,1.097c-0.974,0.538-2.034,0.895-3.175,1.072
	c-0.185,0.029-0.368,0.061-0.558,0.079c0.008,0.034,0.016,0.067,0.023,0.102c0.732,3.23,1.466,6.444,2.079,9.625
	c1.097,5.691,2.223,11.398,2.966,17.149c0.217,1.668,0.854,4.292,0.592,6.363c0.479-0.037,0.879,0.05,0.955,0.33
	c1.309,4.795,1.747,9.987,2.07,15.124c0.179,0.03,0.332,0.09,0.431,0.194c0.36,0.441,0.786,0.811,1.245,1.14
	c0.218-0.659,0.394-1.315,0.445-2.013c0.162-2.212-0.07-4.353-0.475-6.525c-0.172-0.927,1.789-1.191,2.351-1.122
	c1.785,0.219,3.512,0.699,5.255,1.128c0.973,0.24,1.96,0.518,2.957,0.645c1.65,0.21,0.159-0.201-0.279-1.011
	c-1.914-3.531-6.141-5.012-8.851-7.814c-0.048-0.049-0.075-0.101-0.093-0.152c-0.001-0.002-0.004-0.004-0.006-0.007
	c-3.767-5.948-2.133-12.807-3.182-19.413C229.863,330.384,228.504,325.293,227.626,320.112z M213.926,236.485
	c-0.916,0.185-1.851,0.274-2.681,0.314c-3.887,0.189-7.725,0.49-11.438,1.765c-6.596,2.263-12.221,6.348-18.107,9.973
	c-0.391,8.62-5.434,18.953-14.166,18.836c-0.524-0.007-0.867-0.172-1.063-0.406l-1.684,0.168c-3.539,1.114-4.171,5.824-1.686,9.318
	c3.613,5.08,7.931,3.631,13.332,2.932c7.021-0.909,9.09,4.845,8.403,10.698c0.467,2.309,5.702,3.805,7.385,4.162
	c4.348,0.924,8.171,0.033,8.926-4.886c0.013-0.083,0.043-0.16,0.083-0.235c0.579-9.978,8.832-12.097,15.735-18.28
	C229.326,259.772,216.933,248.395,213.926,236.485z M227.132,265.723c0.736-5.06,2.564-11.616,6.296-15.052
	c-0.009,0-0.02,0.002-0.028,0.001c-4.092-0.14-4.979-4.243-6.206-7.473c-1.415-3.722-4.615-7.594-7.81-10.602
	c-0.578,1.001-1.392,1.914-2.48,2.707c-0.047,0.034-0.1,0.061-0.148,0.093c2.417,9.726,12.206,19.519,7.498,29.515
	C225.196,265.187,226.19,265.399,227.132,265.723z M285.567,285.451c1.68,0.128,3.344,0.095,4.969-0.148
	c-8.077-5.891-14.226-13.346-19.299-22.185c-0.918-1.601-1.871-3.209-2.835-4.826c-10.19-2.104-20.21-4.95-30.153-8
	c-0.188-0.058-0.377-0.115-0.566-0.173c-0.009,0.021-0.019,0.042-0.029,0.063c-0.113,0.204-0.332,0.406-0.699,0.581
	c-2.734,1.301-4.152,5.394-5.071,8.062c-1.002,2.907-1.815,5.914-2.097,8.985c8.247,3.33,16.559,6.546,24.965,9.451
	c5.043,1.742,10.126,3.108,15.26,4.536c2.781,0.773,5.773,1.736,8.824,2.491C281.067,284.841,283.329,285.281,285.567,285.451z
	 M428.228,461.096c0.271-0.217,0.53-0.435,0.83-0.65c0.461-0.331,1.118-0.369,1.638-0.225c4.226-1.546,8.362-3.302,12.196-5.5
	c0.012-0.069,0.029-0.14,0.061-0.218c3.422-8.485,0.635-22.343-5-29.563c-17.843-0.634-40.139-0.873-54.68,10.961
	c-0.683,0.556-1.857,0.407-2.264-0.087c-0.611,0.043-1.088-0.057-0.934-0.327c9.136-15.989,22.423-28.999,31.994-44.676
	c9.569-15.673,13.264-33.419,11.188-51.526c-15.712,6.434-33.061,10.284-50.061,10.116c-14.193-0.139-28.784-2.928-39.985-11.706
	c-23.867,25.325-40.398,57.355-53.683,89.222c-3.104,7.447-6.99,16.508-4.858,24.72c1.949,7.507,7.141,11.924,14.291,14.234
	c11.617,3.754,24.494,4.927,36.756,4.552c-1.612-2.179-2.736-4.745-3.104-7.771c-1.283-10.587,3.719-20.67,7.525-30.238
	c2.734-6.872,5.372-13.661,8.509-20.375c4.216-9.024,8.56-17.989,12.755-27.024c3.152-6.789,6.629-13.649,8.82-20.829
	c0.227-0.746,3.047-1.114,2.859-0.502c-4.947,16.211-13.961,31.556-21.112,46.863c-3.114,6.667-5.795,13.384-8.511,20.208
	c-3.745,9.414-9.847,20.653-7.947,31.122c0.615,3.389,1.805,6.171,3.436,8.452c0.286,0.041,0.335,0.154,0.234,0.299
	c11.244,15.036,42.511,7.174,57.387,3.223c10.554-2.803,21.039-5.913,31.404-9.351C421.339,463.383,424.796,462.288,428.228,461.096
	z M166.509,270.727c-1.041,0.74-0.045,2.476,1.01,1.728c1.668-1.184,4.004-0.583,4.363,1.568c0.215,1.27,2.141,0.729,1.93-0.531
	C173.247,270.127,169.167,268.841,166.509,270.727z" fill="#0984E3"></path>
</svg>