<?xml version="1.0" standalone="no"?>
<svg version="1.1" id="Layer_1_15_" xmlns="http://www.w3.org/2000/svg" xmlns:xlink="http://www.w3.org/1999/xlink" x="0px" y="0px" viewBox="0 0 595.276 595.276" enable-background="new 0 0 595.276 595.276" xml:space="preserve">
<path id="color_x5F_7" fill-rule="evenodd" clip-rule="evenodd" fill="#E96257" d="M471.5,328.836
	c1.339,0.034,2.637,0.752,3.933,2.185l-0.133,5.885c0,0.004,0,0.008,0,0.012c0,0.274,0.226,0.499,0.499,0.499
	c0.047,0,0.093-0.006,0.139-0.019l5.938-1.703c2.153,0.987,3.395,2.107,3.774,3.288c0.381,1.184-0.021,2.573-1.344,4.255
	l-5.959,1.709c-0.213,0.062-0.361,0.259-0.361,0.479c0,0.106,0.033,0.208,0.095,0.294l3.533,4.857
	c-0.147,2.235-0.774,3.68-1.836,4.395c-1.067,0.719-2.713,0.795-5.013,0.092c0,0-3.785-5.073-3.944-5.073
	c-0.152,0-4.156,4.909-4.156,4.909c-2.436,0.68-4.104,0.542-5.119-0.227c-1.011-0.765-1.528-2.269-1.515-4.54l3.758-4.707
	c0.071-0.089,0.11-0.199,0.11-0.312c0-0.216-0.139-0.408-0.344-0.474l-5.862-1.953c-1.032-1.547-1.298-2.86-0.862-4.048
	c0.434-1.185,1.643-2.332,3.652-3.383l5.833,1.941c0.051,0.017,0.104,0.026,0.158,0.026c0.27,0,0.493-0.219,0.499-0.487l0.135-5.867
	C468.7,329.465,470.162,328.803,471.5,328.836z M227.647,283.343h13.109c-0.793,2.397-3.354,4.252-6.555,4.252
	C231.001,287.595,228.44,285.74,227.647,283.343z M204.903,245.175c0.811,0,1.457,0.646,1.457,1.457c0,0.81-0.646,1.457-1.457,1.457
	c-0.81,0-1.457-0.647-1.457-1.457C203.445,245.821,204.093,245.175,204.903,245.175z M210.379,241.532c1.275,0,2.3,1.024,2.3,2.3
	c0,1.275-1.025,2.298-2.3,2.298c-1.276,0-2.3-1.023-2.3-2.298C208.079,242.556,209.103,241.532,210.379,241.532z M215.136,239.575
	c0.811,0,1.457,0.646,1.457,1.457s-0.646,1.459-1.457,1.459c-0.81,0-1.458-0.648-1.458-1.459S214.326,239.575,215.136,239.575z"></path>
<path id="color_x5F_6" fill-rule="evenodd" clip-rule="evenodd" fill="#1ACEBD" d="M166.51,401.9
	c5.87,3.161,13.8,4.59,22.088,5.06l5.01,11.916c0.019,0.046,0.046,0.089,0.078,0.127c0,0,0,0.001,0,0.002
	c0.038,0.06,0.087,0.111,0.146,0.15l4.484,3.275c0.125,0.091,0.285,0.12,0.432,0.077c0,0,13.74-3.996,26.261-4.92
	c13.901-1.027,21.912,1.815,22.006,1.849c0.04,0.017,0.082,0.029,0.125,0.035c0.112,0.022,0.227,0.004,0.327-0.048
	c0.536-0.168,20.373-6.301,36.522-1.852c16.587,4.57,17.919,4.937,17.919,4.937c0.227,0.063,0.467-0.043,0.576-0.251l1.498-2.907
	c0.106-0.094,0.167-0.23,0.167-0.373c0-0.133-0.053-0.261-0.148-0.355c-6.137-6.116-16.045-11.638-27.176-16.302l172.915-0.098
	v4.401c0,6.736,5.02,12.257,11.248,12.257h21.497c6.228,0,11.248-5.521,11.248-12.257V402.2l13.142-0.007
	c-0.097,0,24.798,28.13,25.252,28.928c0.154,0.269,0.201,0.404,0.266,0.563l-470.352,2.885c0-0.154,16.246-32.377,16.125-32.377
	h87.883C166.248,402.195,166.428,402.08,166.51,401.9z M483.109,388.157h-9.248c0,0,0.155-7.162,1.802-12.902
	c0.878-3.057,2.183-6.071,4.069-8.232c1.887-2.162,4.31-3.49,7.611-3.295l-0.006-0.001c-0.018-0.002-0.04-0.004-0.063-0.009
	l0.063,0.009c0.026,0.003,0.045,0.003,0.049,0.003l-0.03-0.002c2.63,0.159,4.795,1.983,5.293,4.419
	c0.497,2.435-0.785,4.883-3.154,5.969c-0.643,0.276-1.298,0.711-1.979,1.317C482.837,379.606,483.034,386.819,483.109,388.157z
	 M454.271,363.726l-0.01,0.001c3.295-0.195,5.726,1.196,7.63,3.461c1.904,2.265,3.23,5.417,4.128,8.615
	c0.817,2.908,1.27,5.815,1.535,8.152c0,0,0.019,0.426,0.059,0.501c0.201,1.91,0.257,3.101,0.277,3.7h-9.428
	c0.066-0.93,0.455-8.417-4.374-12.724c-0.68-0.606-1.335-1.042-1.979-1.317c-2.371-1.086-3.654-3.533-3.156-5.969
	c0.495-2.427,2.648-4.246,5.264-4.417C454.221,363.729,454.242,363.729,454.271,363.726l0.057-0.009
	C454.307,363.721,454.288,363.724,454.271,363.726z M454.217,363.729L454.217,363.729l0.031-0.002
	C454.237,363.728,454.227,363.728,454.217,363.729z M151.339,260.581c2.015,0,3.641,1.626,3.641,3.641
	c0,2.013-1.626,3.641-3.641,3.641c-2.013,0-3.64-1.628-3.64-3.641C147.699,262.207,149.326,260.581,151.339,260.581z
	 M169.764,255.707h-35.494v-5.19h35.494V255.707z M151.339,237.832c2.015,0,3.641,1.626,3.641,3.641
	c0,2.014-1.626,3.638-3.641,3.638c-2.013,0-3.64-1.624-3.64-3.638C147.699,239.458,149.326,237.832,151.339,237.832z
	 M238.603,168.946l6.734,4.535l-5.548,8.236c-0.153,0.228-0.092,0.539,0.135,0.693l9.405,6.334l-4.535,6.734l-9.405-6.334
	c-0.227-0.153-0.539-0.092-0.693,0.135l-5.545,8.236l-6.734-4.535l5.545-8.236c0.153-0.227,0.092-0.539-0.134-0.693l-9.405-6.331
	l4.535-6.735l9.405,6.332c0.227,0.153,0.538,0.092,0.692-0.135L238.603,168.946z"></path>
<path id="color_x5F_5" fill-rule="evenodd" clip-rule="evenodd" fill="#FFD2BB" d="M188.472,361.679
	c-0.053,0.078-0.083,0.17-0.086,0.264l-1.126,24.769c-0.012,0.271,0.2,0.504,0.47,0.52l49.385,2.802
	c0.092,0.008,0.184-0.01,0.266-0.051c0.212-0.038,3.534-0.627,7.149-0.899c1.867-0.141,3.776-0.187,5.277-0.028
	c0.75,0.08,1.396,0.213,1.869,0.395c0.473,0.182,0.745,0.405,0.853,0.61c0.313,0.595,0.295,0.96,0.17,1.256
	c-0.125,0.297-0.411,0.561-0.782,0.772c-0.742,0.423-1.713,0.57-1.713,0.57c-0.247,0.033-0.432,0.246-0.432,0.494
	c0,0.216,0.14,0.408,0.345,0.474c0,0,2.954,0.973,5.479,2.788c1.262,0.908,2.402,2.023,3.022,3.282
	c0.619,1.258,0.758,2.646,0.006,4.303c-0.348,0.764-0.984,1.333-1.903,1.76c-0.919,0.426-2.112,0.692-3.478,0.813
	c-2.731,0.243-6.14-0.088-9.453-0.643c-6.345-1.064-12.189-2.897-12.688-3.055c-0.12-0.148-0.314-0.216-0.499-0.174
	c0,0-12.582,2.51-27.295,3.246c-14.713,0.737-31.542-0.378-39.883-7.295c-1.277-1.06-2.191-2.98-2.778-5.538
	c-0.586-2.559-0.85-5.731-0.919-9.227c-0.135-6.834,0.466-14.892,0.757-22.159L188.472,361.679z M303.391,310.354
	c0.164,0.001,0.265,0.034,0.388,0.157c0.124,0.122,0.272,0.368,0.372,0.817c0.199,0.899,0.19,2.562-0.276,5.25
	c-0.035,0.204-0.088,0.356,0.033,0.626c0.061,0.135,0.236,0.3,0.414,0.338c0.179,0.037,0.303-0.007,0.395-0.045
	c0.367-0.153,0.566-0.398,0.917-0.739c0.7-0.684,1.711-1.738,2.928-2.661c1.216-0.924,2.628-1.699,4.08-1.858
	c1.453-0.159,2.966,0.252,4.569,1.836c1.635,1.617,2.05,3.469,1.722,5.524c-0.328,2.056-1.448,4.292-2.923,6.438
	c-2.831,4.116-6.886,7.844-8.962,9.702c-0.219,0.034-0.391,0.209-0.419,0.427c-0.04,0.08-0.058,0.169-0.053,0.258
	c-0.137,0.249-12.173,22.128-20.609,37.462c-4.276,7.771-13.982,10.664-21.813,6.504c-0.012-0.007-0.024-0.013-0.035-0.018
	c0.081-8.159,0.143-16.776,0.203-26.659h7.913l0.619,7.032c0.022,0.256,0.24,0.455,0.497,0.455c0.17,0,0.33-0.088,0.421-0.232
	l16.928-26.355c0.205-0.069,0.343-0.264,0.34-0.479v-0.049l6.045-9.413c0.023-0.035,0.042-0.073,0.055-0.113l4.3-13.072
	C301.49,311.437,303.063,310.353,303.391,310.354z M171.361,303.909c0.177-0.012,0.354-0.011,0.531,0.002
	c0.473,0.037,8.787,4.21,8.787,4.21c1.8,0.928,2.504,3.129,1.577,4.928l-6.754,13.097c-0.928,1.8-3.128,2.502-4.928,1.574
	l-7.391-3.809c-1.799-0.928-2.503-3.13-1.574-4.93l6.753-13.095C168.972,304.705,170.13,303.995,171.361,303.909z M341.586,298.647
	c0.331-0.004,0.667,0.024,1.005,0.09c0.008,0.001,0.015,0.002,0.023,0.004l1.36,0.197c0.132,0.096,0.304,0.122,0.458,0.068
	l7.746,1.126l-2.348,25.619l-11.865-2.62c-0.005-0.001-0.009-0.002-0.014-0.003c-2.701-0.521-4.471-3.145-3.952-5.872l2.767-14.535
	C337.22,300.334,339.271,298.675,341.586,298.647z M251.79,255.014c0,0-0.2,14.369-0.2,22.984c0,5.118-1.173,9.179-3.991,13.421
	c-5.393,8.117-17.045,5.683-17.045,5.683c-0.034-0.007-0.069-0.011-0.103-0.011c-0.274,0-0.499,0.225-0.5,0.498v13.714
	c-4.023,4.053-8.045,5.982-12.11,5.952c-4.061-0.031-8.234-2.029-12.527-5.964l0.052-31.085v-0.001c0-0.274-0.225-0.499-0.499-0.499
	c-0.027,0-0.561,0.067-0.805,0.067c-3.009,0-5.57-3.146-5.57-7.159c0-2.083,0.202-3.714,0.736-4.742
	c0.517-0.996,1.295-1.48,2.753-1.509l0.009,0.007c0.097,0.084,0.241,0.218,0.407,0.381c0.33,0.327,2.945,3.001,3.003,3.045
	c0.058,0.044,0.056,0.102,0.303,0.143c0.268,0.049,0.529-0.129,0.581-0.397c0.052-0.089-0.277-10.52-0.277-10.52
	c0.205,0.291,0.224,0.543,0.536,0.833c1.696,1.57,5.062,2.913,11.75,2.481c13.265-0.857,19.583-3.056,28.508-3.848
	C249.565,258.241,250.941,256.505,251.79,255.014z M226.91,282.344c-0.001-0.001-0.001-0.001-0.001-0.001
	c-0.274,0-0.499,0.226-0.499,0.5c0,0.03,0.003,0.061,0.008,0.091c0.614,3.254,3.9,5.659,7.784,5.659c3.885,0,7.17-2.405,7.784-5.659
	c0.006-0.03,0.009-0.061,0.009-0.091c0-0.275-0.226-0.5-0.499-0.5h-0.001L226.91,282.344z M360.121,241.239
	c0.161,0.004,3.527,0.287,4.412,0.367c0,0-2.805,4.372-6.419,8.404c-3.615,4.033-8.388,7.979-12.769,7.979
	c-4.383,0-9.375-3.956-13.201-7.996c-3.354-3.541-5.705-6.921-6.264-7.743c0.303-0.02,0.795-0.057,1.072-0.074
	c0.998-0.064,1.819-0.113,2.409-0.143c0.295-0.015,1.035-0.028,1.044-0.028c0.275,0,0.499-0.226,0.499-0.499
	c0-0.108-0.034-0.212-0.098-0.298l0.037-10.372c0,0,0-0.001,0-0.002c0-0.274-0.226-0.499-0.499-0.499h-2.495
	c-5.757,0-11.279-2.303-15.352-6.404c-1.981-1.996-3.6-5.386-4.691-9.006c-1.092-3.621-1.67-7.474-1.67-10.374
	c0-8.248,0.556-22.028,0.571-22.397c0.361-0.191,3.224-1.688,6.623-2.407c0.905-0.192,4.486-0.295,5.275-0.08
	c1.579,0.427,2.86,1.36,3.623,3.24c2.427,5.972,5.788,9.333,9.504,10.86s7.736,1.217,11.46,0.029
	c3.725-1.187,7.174-3.248,9.822-5.293c1.324-1.022,2.449-2.04,3.307-2.949c0.486-0.515,0.674-0.896,0.981-1.33
	c0.025,0.477,0.357,6.362,0.876,8.823c0.025,0.115,0.473,0.625,0.681,0.607c0.208-0.019,0.319-0.115,0.4-0.19
	c0.082-0.075,0.139-0.15,0.196-0.232c0.225-0.327,1.04-2.307,1.194-2.71c0.047-0.122,0.077-0.199,0.113-0.291
	c3.352,0.202,6.146,3.693,6.146,8.172c0,4.61-2.946,8.243-6.432,8.243c-0.283,0-0.563-0.024-0.839-0.07
	c-0.027-0.004-0.054-0.007-0.082-0.007c-0.274,0-0.499,0.226-0.499,0.499c0,0.001,0,0.001,0,0.001v4.407
	c0,0.261,0.203,0.48,0.462,0.499h-0.392l0.512,28.6c-0.018,0.053-0.027,0.108-0.027,0.164c0,0.272,0.222,0.496,0.493,0.499H360.121z
	 M320.06,215.467c-0.273,0.001-0.496,0.226-0.496,0.499c0,0.034,0.004,0.068,0.011,0.101c0.442,2.277,2.783,3.917,5.518,3.917
	c2.737,0,5.079-1.64,5.521-3.917c0.006-0.031,0.009-0.063,0.009-0.095c0-0.274-0.226-0.499-0.5-0.499
	c-0.238,0-0.445,0.171-0.49,0.406c-0.331,1.704-2.202,3.107-4.539,3.107c-2.336,0-4.206-1.403-4.537-3.107
	C320.513,215.64,320.302,215.465,320.06,215.467z"></path>
<path id="color_x5F_4" fill-rule="evenodd" clip-rule="evenodd" fill="#00CEC9" d="M482.485,417.88h-21.497
	c-5.637,0-10.25-5.017-10.25-11.258v-7.335h41.996v7.335C492.734,412.864,488.122,417.88,482.485,417.88z M242.925,365.94
	l7.065,22.135c-0.027-0.003-0.051-0.009-0.078-0.012c-1.083-0.115-2.329-0.107-3.602-0.06l-6.71-20.984L242.925,365.94z
	 M250.697,287.779c0.044,0.428,0.116,0.894,0.24,1.396c0.544,2.213,2.01,5.074,5.567,7.665c0.442,0.322,0.706,0.608,0.828,0.821
	c0.121,0.213,0.122,0.321,0.078,0.449c-0.089,0.257-0.621,0.705-1.6,1.073c-1.958,0.736-5.421,1.247-9.13,1.533
	c-3.707,0.286-7.679,0.361-10.744,0.285c-1.533-0.038-2.842-0.114-3.765-0.217c-0.461-0.051-1.182-0.203-1.222-0.218v-2.406
	c1.606,0.293,12.109,1.896,17.481-6.189C249.355,290.578,250.095,289.19,250.697,287.779z M204.921,256.514l0.4,11.824
	c-0.306-0.313-2.801-2.827-2.866-2.871c-0.065-0.044-0.079-0.127-0.367-0.127c-1.802,0-3.07,0.766-3.747,2.069
	c-0.677,1.304-0.849,3.062-0.849,5.205c0,4.442,2.878,8.158,6.569,8.158c0.104,0,0.204-0.019,0.306-0.025l-0.033,19.617
	c-8.102-0.424-16.865,0.952-25.668-1.854c0.694-1.275,3.425-6.397,6.234-13.285c3.227-7.91,6.401-17.814,6.112-25.925
	c-0.282-7.919,0.58-14.058,3.866-19.314c3.286-5.257,9.038-9.686,18.667-14.076c4.161-1.898,8.596-2.724,12.988-2.71
	c5.647,0.017,11.224,1.422,16.058,3.721c8.593,4.087,14.749,10.988,14.892,17.701c0.147,6.935-1.277,10.115-2.618,11.546
	c-0.67,0.716-1.324,1.014-1.807,1.144c-0.193,0.052-0.178,0.026-0.299,0.037l0.053-4.368c0-0.001,0-0.003,0-0.004
	c0-0.275-0.226-0.5-0.499-0.5c-0.215,0-0.406,0.139-0.474,0.343c0,0-1.462,4.347-5.13,4.672c-9.045,0.803-15.307,2.994-28.483,3.846
	c-6.532,0.422-9.587-0.902-11.006-2.215c-0.71-0.657-1.028-1.319-1.177-1.815c-0.144-0.477-0.124-0.734-0.123-0.753l-0.002-0.074
	c0-0.002,0-0.003,0-0.005c0-0.274-0.226-0.499-0.499-0.499c-0.271,0-0.494,0.22-0.499,0.49c0,0,0.007,0.044,0.008,0.047H204.921z
	 M204.903,244.176c-1.35,0-2.456,1.105-2.456,2.456c0,1.35,1.106,2.456,2.456,2.456c1.351,0,2.456-1.106,2.456-2.456
	C207.359,245.281,206.254,244.176,204.903,244.176z M215.136,238.577c-1.35,0-2.457,1.106-2.457,2.456
	c0,0.169,0.018,0.333,0.05,0.491c-0.599-0.61-1.431-0.991-2.35-0.991c-1.816,0-3.299,1.483-3.299,3.299
	c0,1.816,1.483,3.297,3.299,3.297s3.299-1.481,3.299-3.297c0-0.339-0.067-0.659-0.163-0.968c0.434,0.386,1,0.626,1.621,0.626
	c1.351,0,2.456-1.108,2.456-2.458C217.592,239.682,216.488,238.577,215.136,238.577z M329.841,231.334l-0.035,9.68
	c-0.152,0.006-0.294,0.011-0.499,0.021c-0.598,0.031-20.44,1.403-25.397,1.752c-1.298-0.309-9.075-2.51-11.599-11.654
	c-0.675-2.445-0.337-4.585,0.466-6.654c0.803-2.068,2.082-4.045,3.261-6.063c1.18-2.019,2.261-4.085,2.599-6.365
	c0.338-2.281-0.103-4.758-1.879-7.472c-3.94-6.021-5.758-17.65-4.489-27.618c0.635-4.985,2.035-9.556,4.245-12.81
	c2.21-3.255,5.17-5.2,9.108-5.104c0.146,0.004,0.287-0.057,0.385-0.166c0,0,11.611-13.031,31.399-13.191
	c2.048-0.016,4.183,0.105,6.401,0.393c16.997,2.203,29.254,15.14,36.256,29.958c7.003,14.818,8.66,31.503,4.66,40.821
	c-1.447,3.372-1.909,5.656-1.646,7.364c0.263,1.708,1.314,2.759,2.589,3.492c2.548,1.467,5.999,2.015,7.962,5.337
	c2.051,3.466,2.79,6.231,3.024,8.119c0.199,1.599,0.061,2.38,0.01,2.628c-1.083-0.124-2.357-0.266-3.947-0.433
	c-3.598-0.38-31.712-3.067-32.086-3.09l-0.516-28.808c-0.002-0.081-0.024-0.16-0.063-0.231v-3.629
	c0.141,0.01,0.28,0.035,0.422,0.035c4.168,0,7.431-4.203,7.431-9.242c0-5.041-3.264-9.245-7.431-9.245c0,0-0.534,0.432-0.561,0.499
	c-0.056,0.132-0.122,0.304-0.2,0.506c-0.155,0.406-0.352,0.929-0.549,1.405c-0.046,0.108-0.076,0.147-0.121,0.25
	c-0.352-2.077-0.806-8.77-0.869-8.972c-0.015-0.05-0.348-0.44-0.581-0.413c-0.233,0.027-0.443,0.337-0.463,0.385
	c-0.18,0.426-0.721,1.187-1.536,2.05c-0.814,0.863-1.903,1.849-3.189,2.842c-2.573,1.987-5.939,3.993-9.513,5.133
	c-3.576,1.14-7.34,1.412-10.778,0c-3.438-1.412-6.604-4.518-8.96-10.313c-0.872-2.144-2.47-3.335-4.286-3.827
	c-0.908-0.247-4.793-0.135-5.743,0.066c-3.801,0.805-7.145,2.626-7.145,2.626c-0.155,0.085-0.253,0.244-0.26,0.419
	c0,0-0.581,14.332-0.581,22.736c0,3.032,0.593,6.949,1.713,10.663c1.12,3.713,2.754,7.222,4.937,9.422
	c4.259,4.29,10.039,6.699,16.062,6.699H329.841z M181.861,204.644h-19.312v-4.367h19.312V204.644z M181.861,196.417h-19.312v-4.366
	h19.312V196.417z"></path>
<path id="color_x5F_3" fill-rule="evenodd" clip-rule="evenodd" fill="#E84393" d="M532.526,448.862H62.283v-13.296
	l470.243-2.883V448.862z M227.243,414.866c5.251-0.031,9.39,0.488,12.492,1.138c4.817,1.008,7.048,2.278,7.179,2.354
	c-1.09-0.347-5.339-1.572-12.503-1.91c-2.768-0.131-5.939-0.121-9.476,0.141c-12.494,0.922-25.829,4.782-26.22,4.896l-3.562-2.602
	c0.47-0.116,1.123-0.263,2.254-0.474c2.936-0.549,8.542-1.44,19.167-2.8C220.542,415.102,224.092,414.885,227.243,414.866z
	 M272.559,413.645c13.431,0.307,27.848,4.805,30.343,5.615l-1.122,2.178c-0.063-0.017-1.303-0.362-17.527-4.832
	c-4.201-1.158-8.626-1.618-12.9-1.658c-12.166-0.113-22.791,3.095-23.88,3.434c0.038-0.023,0.072-0.049,0.102-0.08
	c0,0,0.114-0.127,0.61-0.417c0.497-0.292,1.342-0.707,2.697-1.177c2.708-0.939,7.451-2.086,15.498-2.862
	C268.376,413.654,270.453,413.597,272.559,413.645z M492.734,398.288h-41.996v-9.133h41.996V398.288z M343.768,339.728h-4.575
	v-15.304l4.575,1.011V339.728z M344.766,325.655c0,0,23.216,6.552,35.709,10.144l-35.709,3.866V325.655z M291.039,278.988
	l47.173,5.156l-0.018,14.627c-1.211,0.867-2.108,2.181-2.409,3.76l-2.766,14.535c-0.619,3.254,1.508,6.416,4.744,7.04l0.43,0.096
	v15.457l-29.835-3.774c2.198-1.988,5.792-5.384,8.473-9.284c1.524-2.217,2.721-4.555,3.086-6.846
	c0.365-2.289-0.151-4.557-2.006-6.392c-1.773-1.752-3.654-2.307-5.38-2.118c-1.727,0.189-3.278,1.071-4.574,2.055
	c-1.291,0.98-2.338,2.073-3.014,2.733c0.348-2.279,0.408-3.897,0.18-4.922c-0.127-0.571-0.333-1.006-0.639-1.31
	c-0.308-0.305-0.715-0.443-1.089-0.445c-0.749-0.003-2.747,1.502-2.747,1.502c-0.053,0.055-0.092,0.12-0.116,0.192l-4.323,13.14
	l-5.171,8.051V278.988z M391.859,278.988v28.24l-47.093-9.185v-13.879L391.859,278.988z M343.768,284.152v13.747l-0.988-0.145
	c-1.258-0.243-2.5-0.063-3.588,0.435l0.018-13.948L343.768,284.152z M324.746,242.326c0.015,0.047,0.036,0.091,0.064,0.131
	c0,0,2.714,4.109,6.609,8.222c2.944,3.109,6.557,6.26,10.288,7.616l-19.697,5.562l-3.615-21.093
	c0.261-0.019,0.548-0.039,0.804-0.057C321.376,242.553,323.048,242.44,324.746,242.326z M365.28,241.675
	c0.456,0.042,5.727,0.544,7.941,0.757l0.006,19.223l-23.493-3.684c3.372-1.491,6.537-4.411,9.122-7.294
	C362.542,246.566,365.28,241.675,365.28,241.675z"></path>
<path id="color_x5F_2" fill-rule="evenodd" clip-rule="evenodd" fill="#FBC02D" d="M230.524,403.732
	c0.028,0.016,0.058,0.029,0.09,0.039c0,0,2.341,0.724,5.557,1.539l9.323,11.322c-1.178-0.467-2.944-1.06-5.554-1.606
	c-5.075-1.062-12.81-1.774-23.492-0.408c-10.636,1.36-16.253,2.254-19.223,2.81c-1.485,0.277-2.307,0.47-2.773,0.598
	c-0.051,0.014-0.062,0.021-0.105,0.033l-4.64-11.041c4.558,0.211,9.201,0.148,13.649-0.075
	C217.696,406.227,229.775,403.879,230.524,403.732z M260.097,402.321h3.246c0.033,0.003,0.067,0.003,0.1,0h3.942
	c0.023,0.002,0.045,0.004,0.068,0.003l6.787-0.003c10.959,4.418,20.715,9.715,27.196,15.445c-5.278-1.634-21.532-6.225-35.151-4.914
	c-8.103,0.781-12.919,1.937-15.731,2.911c-1.405,0.486-2.31,0.928-2.874,1.257c-0.207,0.122-0.3,0.189-0.371,0.246l-9.513-11.556
	c1.816,0.43,3.76,0.857,5.829,1.204c3.36,0.563,6.826,0.909,9.707,0.653c1.44-0.127,2.738-0.402,3.809-0.901
	c1.073-0.497,1.928-1.237,2.39-2.255C259.859,403.694,260.038,402.995,260.097,402.321z M262.893,401.323h-2.802
	c-0.065-0.733-0.264-1.428-0.577-2.066c-0.728-1.48-1.993-2.684-3.336-3.65c-1.759-1.265-3.346-1.972-4.464-2.417
	c0.309-0.103,0.37-0.047,0.695-0.232c0.484-0.277,0.963-0.669,1.21-1.254c0.246-0.585,0.206-1.325-0.205-2.107
	c-0.272-0.517-0.779-0.846-1.379-1.077c-0.288-0.11-0.605-0.198-0.943-0.271l-7.368-23.089c-0.068-0.214-0.272-0.357-0.495-0.348
	c-0.045,0.001-0.091,0.009-0.134,0.023l-4.275,1.385c-0.26,0.084-0.405,0.368-0.322,0.628l6.781,21.202
	c-0.277,0.017-0.549,0.017-0.825,0.038c-3.798,0.285-7.391,0.932-7.391,0.932c-0.011,0.002-0.021,0.005-0.032,0.008l-48.751-2.767
	l1.104-24.274c0.007-0.11-0.024-0.22-0.086-0.311l1.22-0.002c0.127,0.002,0.25-0.045,0.344-0.131
	c0.149-0.087,0.243-0.245,0.248-0.417c0.255-8.819,1.227-16.27,1.726-22.592c0.002-0.015,0.003-0.031,0.003-0.047
	c0-0.274-0.226-0.499-0.5-0.499c-0.005,0-0.011,0-0.017,0c-0.255,0.01-0.463,0.213-0.48,0.466
	c-0.488,6.178-1.439,13.533-1.715,22.221l-29.684,0.053c0.361-10.533,2.607-23.345,6.098-33.967l3.578,1.846
	c2.28,1.176,5.1,0.275,6.275-2.006l6.752-13.095c1.176-2.279,0.275-5.098-2.006-6.274l-2.606-1.343l25.791-0.484l-0.009,6.12
	c-0.001,0.14,0.057,0.273,0.16,0.367c4.465,4.141,8.923,6.328,13.359,6.362c4.436,0.033,8.776-2.097,12.972-6.377
	c0.092-0.094,0.144-0.22,0.144-0.352v-6.382c0.772,0.057,16.65,1.225,26.915,1.832c3.017,0.178,5.383,2.662,5.434,5.709
	C263.713,337.323,262.912,399.834,262.893,401.323z M382.87,336.487c9.642,2.772,13.556,3.902,22.724,6.528l0.94,58.233
	l-115.155,0.065l0.845-36.733c6.904-12.548,15.248-27.714,15.292-27.794l31.112,3.937c0.016,0.002,0.088,0.004,0.1,0.004h5.426
	c0.029,0.002,0.197-0.005,0.239-0.016L382.87,336.487z M472.863,388.157h-3.974c-0.02-0.64-0.088-2.071-0.336-4.274v-29.746
	l2.251-2.821l2.041,2.804l0.018,33.21c-0.001,0.052-0.007,0.354,0,0.388V388.157z M272.192,352.716h-7.867
	c0.089-15.224,0.134-30.501-0.027-40.047c-0.031-1.869-0.818-3.558-2.065-4.775c3.188,1.167,6.086,3.232,8.351,6.287
	c1.041,1.404,1.604,3.107,1.604,4.855c0,7.344,0.005,26.42,0.005,30.699c-0.085,0.152-0.085,0.338,0,0.489
	C272.192,350.526,272.192,352.661,272.192,352.716z M374.221,242.527c1.89,0.183,14.795,1.454,18.39,1.834
	c1.797,0.19,6.42,0.744,6.457,0.753c7.858,1.91,13.203,7.774,15.291,13.297c6.102,16.125,15.103,52.067,15.103,52.067
	c0.001,0.002,0.002,0.004,0.002,0.006c0.012,0.051,1.435,6.446,2.008,14.032c0.432,5.803-1.98,11.452-6.459,15.127
	c-4.478,3.675-10.453,4.911-16.008,3.312c-0.001,0-0.001,0-0.002,0c-22.14-6.332-57.73-16.582-58.214-16.722l2.387-26.017
	l45.264,9.399c0.033,0.007,0.067,0.011,0.102,0.011c0.274,0,0.499-0.226,0.499-0.499c0-0.047-6.05-15.719-6.182-15.769v-14.925
	c-0.001-0.274-0.539-0.497-0.552-0.496l-47.83,5.256c-0.069-0.032-0.144-0.048-0.219-0.047l-5.341,0.106
	c-0.053-0.027-0.111-0.044-0.17-0.051l-48.152-5.264c-0.016-0.002-0.032-0.003-0.049-0.003c-0.001,0-0.003-0.001-0.005-0.001
	c-0.275,0-0.499,0.226-0.499,0.5v39.867c-0.028,0.032-0.051,0.067-0.069,0.105c-3.903,7.994-11.534,21.001-16.781,29.669
	c-0.001-5.804-0.005-22.09-0.005-29.037c0-1.963-0.63-3.873-1.799-5.45c-0.001,0-0.002,0-0.002,0
	c-2.929-3.951-6.898-6.359-11.189-7.331c6.821-16.118,21.939-40.688,27.733-53.909h-0.002c2.135-4.847,6.84-8.06,12.132-8.287
	c0.004,0.001,0.009,0.001,0.013,0c1.111-0.076,13.033-0.921,17.321-1.225l3.727,21.74c0.041,0.239,0.25,0.415,0.492,0.415
	c0.046,0,0.091-0.006,0.136-0.019l21.237-5.995c0.123-0.035,0.228-0.115,0.293-0.225c0.689,0.15,1.378,0.239,2.066,0.239
	c0.893,0,1.782-0.142,2.663-0.389c0.076,0.084,0.179,0.14,0.291,0.158l25.353,3.974c0.026,0.004,0.051,0.006,0.077,0.006
	c0.274,0,0.499-0.226,0.499-0.499L374.221,242.527z M392.858,295.63c2.22,5.568,4.106,10.344,4.892,12.82l-4.892-1.016V295.63z
	 M358.041,183.215c0,0.001,0.003,0.002-0.02,0.033c-0.001,0.001-0.007,0.003-0.008,0.004
	C358.018,183.241,358.036,183.225,358.041,183.215z"></path>
<path id="color_x5F_1" fill="#0984E3" d="M337.398,144.196c-0.705,0.006-1.399,0.028-2.083,0.065
	c-18.548,0.996-29.437,12.591-30.127,13.343c-4.226,0.068-7.592,2.289-9.912,5.706c-2.41,3.548-3.838,8.319-4.493,13.462
	c-1.31,10.286,0.418,22.055,4.72,28.627c1.613,2.465,1.939,4.487,1.651,6.434c-0.289,1.948-1.255,3.853-2.409,5.829
	c-1.155,1.976-2.486,4.009-3.366,6.275c-0.879,2.266-1.282,4.804-0.512,7.595c1.671,6.056,5.586,9.347,8.69,11.067
	c-5.68,0.405-10.695,3.91-13,9.143c0,0.001-0.001,0.001-0.002,0.002c-5.674,12.946-20.773,37.5-27.706,53.854
	c-0.294-0.055-0.59-0.099-0.895-0.117c-0.001,0-0.002,0-0.002,0c-10.033-0.593-25.132-1.704-26.504-1.805v-1.492
	c0.189,0.028,0.336,0.065,0.556,0.09c0.998,0.111,2.333,0.188,3.894,0.226c3.121,0.077,7.127,0.002,10.897-0.289
	c3.769-0.291,7.263-0.769,9.54-1.625c1.139-0.427,2.116-0.902,2.49-1.988c0.187-0.542,0.087-1.186-0.194-1.678
	c-0.281-0.492-0.699-0.893-1.246-1.291c-3.295-2.399-4.527-4.907-4.996-6.812c-0.468-1.905-0.168-3.119-0.168-3.119
	c0.053-0.209,0.036-0.43-0.047-0.628c0.615-2.22,0.913-4.542,0.913-7.071c0-8.238,0.16-13.206,0.176-19.204
	c0.063-0.013,0.12-0.019,0.186-0.037c0.717-0.193,1.644-0.641,2.509-1.564c1.728-1.847,3.175-5.453,3.023-12.602
	c-0.161-7.594-6.817-14.777-15.747-19.024c-4.465-2.124-9.542-3.519-14.753-3.814c-5.212-0.295-10.557,0.511-15.559,2.792
	c-9.77,4.455-15.813,9.045-19.315,14.646c-3.502,5.602-4.38,12.105-4.093,20.161c0.274,7.674-2.812,17.485-6.003,25.307
	c-3.08,7.552-6.158,13.134-6.371,13.519c-0.182,0.227-0.256,0.522-0.203,0.808c0.073,0.449,0.445,0.795,0.9,0.835
	c9.176,3.044,18.117,1.681,25.993,2.023l-0.004,2.071l-26.597,0.499c-0.116,0.002-0.231,0.025-0.34,0.067
	c0,0-4.213-2.009-4.88-2.059c-2.004-0.149-4.006,0.886-4.981,2.776l-6.751,13.096c-1.3,2.52-0.302,5.647,2.217,6.947l2.542,1.31
	c-3.521,10.808-5.769,23.698-6.108,34.364c-0.083,0.251-0.063,0.523,0.055,0.759c-0.29,7.226-0.892,15.297-0.755,22.241
	c0.07,3.553,0.332,6.807,0.956,9.531c0.624,2.725,1.6,4.963,3.281,6.357c0.373,0.309,0.764,0.602,1.163,0.89H78.167
	c-0.712,0-0.985,0.339-1.311,0.649c-0.326,0.311-16.352,32.979-16.322,33.422c0.016,0.222,0.046,0.472,0.243,0.765
	c0.002,0.003,0.007,0.006,0.009,0.009v13.821c0,0.548,0.451,0.999,0.999,0.999h471.242c0.547,0,0.999-0.45,0.999-0.999
	c0,0-0.011-17.602-0.047-17.753c-0.102-0.426-26.439-30.913-27.102-30.913c0,0-0.001,0-0.002,0l-12.641,0.007v-12.045
	c0-0.548-0.45-0.999-0.999-0.999h-8.623c-0.008-1.991,0.267-7.864,3.901-11.107c0.592-0.527,1.123-0.867,1.58-1.062
	c0.009-0.003,0.017-0.007,0.026-0.011c2.965-1.358,4.637-4.504,3.999-7.63c-0.637-3.116-3.384-5.396-6.641-5.606
	c0.034,0.002,0.042-0.002,0.088,0.007c-0.039-0.007-0.079-0.012-0.119-0.015c-0.005-0.001-0.01-0.002-0.016-0.002
	c-0.005,0-0.01,0-0.015,0c-0.01,0-0.02,0-0.029,0c-0.001,0,0.016,0.002,0.017,0.002c-3.74-0.212-6.693,1.391-8.799,3.805
	c-2.025,2.32-3.34,5.354-4.251,8.404l-0.008-17.927c2.535,0.775,4.68,0.772,6.271-0.301c1.626-1.096,2.388-3.121,2.525-5.709
	c0.011-0.229-0.057-0.455-0.192-0.64l-2.817-3.87l4.775-1.369c0.197-0.057,0.373-0.173,0.501-0.332
	c1.572-1.949,2.254-3.943,1.668-5.768c-0.587-1.826-2.27-3.19-4.726-4.283c-0.216-0.095-0.457-0.112-0.683-0.046l-4.838,1.384
	l0.108-4.755c0.006-0.25-0.082-0.493-0.247-0.681c-1.514-1.733-3.261-2.761-5.154-2.808c-1.892-0.047-3.767,0.868-5.594,2.532
	c-0.202,0.185-0.32,0.443-0.326,0.716l-0.11,4.764l-4.775-1.592c-0.253-0.084-0.529-0.064-0.767,0.057
	c-2.312,1.171-3.897,2.557-4.539,4.307c-0.641,1.75-0.183,3.691,1.095,5.54c0.123,0.178,0.301,0.312,0.505,0.381l4.701,1.566
	l-2.994,3.749c-0.137,0.173-0.214,0.387-0.217,0.607c-0.045,2.607,0.549,4.708,2.126,5.903c1.546,1.171,3.737,1.241,6.412,0.493
	v17.759c-0.915-2.881-2.168-5.698-4.016-7.896c-2.116-2.518-5.085-4.204-8.839-3.991c0.001,0,0.018-0.002,0.018-0.002
	c-0.01,0-0.02,0-0.03,0c-0.005,0-0.01,0-0.015,0c-0.006,0-0.011,0.001-0.016,0.002c-0.04,0.003-0.08,0.008-0.119,0.015
	c0.046-0.009,0.054-0.005,0.088-0.007c-3.257,0.211-6.002,2.49-6.639,5.606c-0.638,3.126,1.034,6.271,3.999,7.63
	c0.009,0.004,0.017,0.008,0.026,0.011c0.457,0.195,0.988,0.534,1.58,1.062c3.782,3.374,3.908,9.422,3.873,11.107h-6.726
	c-0.547,0-0.999,0.45-0.999,0.999v12.067l-41.216,0.023l-0.916-56.778c0.579,0.166,0.917,0.264,1.48,0.425
	c6.026,1.734,12.517,0.392,17.373-3.594c4.858-3.985,7.472-10.11,7.003-16.396c-0.572-7.595-1.974-13.941-2.027-14.18
	c-0.005-0.029-0.011-0.058-0.018-0.086c-0.002-0.009-0.003-0.017-0.006-0.026c0,0-0.017-0.071-0.017-0.072
	c-0.001-0.003-0.003-0.007-0.004-0.01c-0.062-0.25-8.964-35.848-15.132-52.15v-0.002c-2.264-5.983-7.953-12.183-16.342-14.221
	c-0.225-0.055-1.083-0.163-1.214-0.18v-0.002c0.047-0.589,0.062-1.44-0.068-2.487c-0.261-2.092-1.073-5.067-3.221-8.698
	c-2.316-3.918-6.36-4.636-8.505-5.872c-1.073-0.617-1.665-1.188-1.856-2.422c-0.19-1.236,0.149-3.296,1.543-6.545
	c4.311-10.041,2.464-26.928-4.683-42.053c-7.147-15.124-19.77-28.515-37.417-30.805
	C341.712,144.299,339.511,144.177,337.398,144.196z M337.409,146.187c2.026-0.016,4.137,0.106,6.332,0.391
	c16.781,2.175,28.917,14.961,35.87,29.677c6.955,14.715,8.55,31.332,4.652,40.41c-1.464,3.413-1.969,5.771-1.681,7.637
	c0.287,1.866,1.491,3.077,2.833,3.849c2.682,1.544,5.936,2.034,7.784,5.158c2.017,3.411,2.731,6.109,2.957,7.927
	c0.114,0.915,0.111,1.578,0.08,2.016c-1.016-0.115-2.072-0.233-3.469-0.381c-3.601-0.381-31.272-3.026-31.646-3.055l-0.509-28.355
	c-0.003-0.112-0.024-0.222-0.063-0.326v-3.008c4.468-0.055,7.852-4.502,7.852-9.722c0-5.256-3.422-9.744-7.93-9.744
	c0,0-0.992,0.733-1.022,0.805c-0.039,0.093-0.087,0.22-0.133,0.338c-0.155-1.394-0.57-6.79-0.667-7.102
	c-0.024-0.078-0.66-0.816-1.118-0.763c-0.457,0.054-0.837,0.62-0.866,0.689c-0.132,0.31-0.646,1.061-1.438,1.9
	c-0.793,0.84-1.864,1.813-3.131,2.792c-2.534,1.957-5.861,3.935-9.362,5.051c-3.5,1.115-7.137,1.368-10.436,0.013
	c-3.299-1.355-6.364-4.33-8.684-10.039c-0.926-2.276-2.685-3.597-4.619-4.121c-0.968-0.263-5.004-0.146-5.978,0.06
	c-3.893,0.824-7.28,2.675-7.28,2.675c-0.309,0.168-0.506,0.487-0.52,0.839c0,0-0.581,14.328-0.581,22.755
	c0,3.097,0.6,7.046,1.734,10.807s2.778,7.327,5.063,9.629c4.352,4.383,10.259,6.847,16.415,6.847h1.492l-0.031,8.702
	c-0.011,0.001-0.016,0.002-0.027,0.002c-0.602,0.031-20.392,1.397-25.331,1.744c-1.502-0.37-8.756-2.578-11.158-11.281
	c-0.642-2.33-0.328-4.338,0.449-6.339c0.777-2.003,2.04-3.961,3.228-5.993c1.188-2.033,2.307-4.152,2.661-6.543
	c0.354-2.391-0.124-5.024-1.955-7.82c-3.82-5.837-5.667-17.418-4.411-27.282c0.628-4.931,2.019-9.435,4.163-12.592
	c2.144-3.157,4.918-4.976,8.682-4.885c0.293,0.007,0.574-0.115,0.769-0.334C306.379,159.212,317.832,146.34,337.409,146.187z
	 M191.742,148.45c-0.542,0.008-0.984,0.456-0.984,0.999c0,0.005,0,0.01,0,0.015v5.2c0,0.004,0,0.009,0,0.014
	c0,0.547,0.451,0.999,0.999,0.999c0.548,0,0.999-0.451,0.999-0.999c0-0.005,0-0.01,0-0.014v-5.2c0-0.005,0-0.01,0-0.015
	c0-0.548-0.45-0.999-0.999-0.999C191.752,148.45,191.747,148.45,191.742,148.45z M182.362,157.861c-0.005,0-0.009,0-0.014,0
	c-0.548,0-0.999,0.45-0.999,0.999c0,0.547,0.45,0.999,0.999,0.999c0.005,0,0.009,0,0.014,0h5.199c0.005,0,0.009,0,0.014,0
	c0.548,0,0.999-0.451,0.999-0.999c0-0.548-0.45-0.999-0.999-0.999c-0.005,0-0.009,0-0.014,0H182.362z M195.951,157.861
	c-0.004,0-0.009,0-0.014,0c-0.547,0-0.999,0.45-0.999,0.999c0,0.547,0.451,0.999,0.999,0.999c0.005,0,0.01,0,0.014,0h5.201
	c0.005,0,0.01,0,0.015,0c0.547,0,0.999-0.451,0.999-0.999c0-0.548-0.451-0.999-0.999-0.999c-0.005,0-0.01,0-0.015,0H195.951z
	 M191.742,162.041c-0.547,0.009-0.991,0.465-0.984,1.013v5.201c0,0.005,0,0.009,0,0.014c0,0.548,0.451,0.999,0.999,0.999
	c0.548,0,0.999-0.45,0.999-0.999c0-0.005,0-0.009,0-0.014v-5.201c0-0.005,0-0.009,0-0.014c0-0.547-0.45-0.999-0.999-0.999
	C191.752,162.041,191.747,162.041,191.742,162.041z M124.363,167.239c-0.543,0.008-0.986,0.456-0.986,0.999c0,0.006,0,0.011,0,0.016
	v5.199c0,0.005,0,0.009,0,0.014c0,0.548,0.451,0.999,0.999,0.999c0.548,0,0.999-0.45,0.999-0.999c0-0.005,0-0.009,0-0.014v-5.199
	c0-0.005,0-0.01,0-0.016c0-0.547-0.45-0.999-0.999-0.999C124.372,167.239,124.367,167.239,124.363,167.239z M238.458,167.255
	c-0.329,0.003-0.635,0.168-0.819,0.44l-5.27,7.82l-8.989-6.053c-0.165-0.112-0.36-0.171-0.558-0.171
	c-0.332,0-0.643,0.165-0.828,0.439l-5.094,7.564c-0.111,0.165-0.171,0.359-0.171,0.557c0,0.333,0.166,0.644,0.442,0.829l8.989,6.054
	l-5.268,7.822c-0.306,0.453-0.184,1.079,0.27,1.385l7.563,5.093c0.165,0.112,0.36,0.172,0.559,0.172c0.332,0,0.642-0.166,0.828-0.44
	l5.267-7.822l8.989,6.055c0.165,0.111,0.36,0.171,0.558,0.171c0.332,0,0.643-0.166,0.829-0.441l5.093-7.564
	c0.306-0.453,0.183-1.079-0.271-1.384l-8.989-6.056l5.269-7.82c0.111-0.165,0.171-0.359,0.171-0.558
	c0-0.332-0.166-0.643-0.441-0.828l-7.564-5.094C238.856,167.312,238.66,167.253,238.458,167.255z M238.736,169.64l5.905,3.977
	l-5.267,7.822c-0.306,0.454-0.184,1.079,0.27,1.385l8.989,6.055l-3.976,5.905l-8.991-6.053c-0.453-0.306-1.079-0.184-1.385,0.269
	l-5.269,7.823l-5.905-3.978l5.267-7.822c0.306-0.453,0.185-1.079-0.269-1.385l-8.989-6.055l3.977-5.905l8.989,6.053
	c0.454,0.306,1.079,0.184,1.385-0.269L238.736,169.64z M114.981,176.65c-0.005,0-0.009,0-0.014,0c-0.548,0-0.999,0.451-0.999,0.999
	c0,0.548,0.45,0.999,0.999,0.999c0.005,0,0.009,0,0.014,0h5.199c0.005,0,0.01,0,0.014,0c0.548,0,0.999-0.45,0.999-0.999
	c0-0.547-0.45-0.999-0.999-0.999c-0.004,0-0.009,0-0.014,0H114.981z M128.573,176.65c-0.005,0-0.01,0-0.015,0
	c-0.547,0-0.999,0.451-0.999,0.999c0,0.548,0.451,0.999,0.999,0.999c0.005,0,0.01,0,0.015,0h5.199c0.004,0,0.009,0,0.014,0
	c0.547,0,0.999-0.45,0.999-0.999c0-0.547-0.451-0.999-0.999-0.999c-0.005,0-0.01,0-0.014,0H128.573z M313.432,180.236
	c0.881-0.187,4.312-0.284,5.042-0.086c1.461,0.397,2.58,1.199,3.289,2.945c2.463,6.06,5.922,9.549,9.777,11.133
	c3.856,1.584,8.002,1.253,11.803,0.043c3.799-1.211,7.29-3.301,9.976-5.374c1.343-1.037,2.483-2.067,3.363-3
	c0.09-0.096,0.103-0.163,0.188-0.256c0.005,0.108,0.006,0.146,0.011,0.258c0.098,2.003,0.276,4.739,0.806,7.251
	c0.032,0.153,0.833,1.035,1.216,1.001c0.383-0.035,0.568-0.204,0.692-0.319c0.124-0.114,0.198-0.215,0.268-0.316
	c0.278-0.403,1.06-2.316,1.208-2.704c2.883,0.405,5.336,3.484,5.336,7.591c0,4.397-2.789,7.744-5.933,7.744
	c-0.254,0-0.507-0.02-0.757-0.062c-0.054-0.009-0.109-0.014-0.164-0.014c-0.547,0-0.999,0.451-0.999,0.999v4.407
	c0,0.548,0.451,0.999,0.999,0.999h-0.919l0.505,28.162c-0.043,0.415,0.611,1.026,0.636,1.036c0.115,0.045,0.238,0.068,0.361,0.068
	c0.114,0.003,2.991,0.244,3.412,0.281c-0.512,0.816-2.67,4.159-5.805,7.657c-3.58,3.993-8.305,7.812-12.397,7.812
	c-4.092,0-9.046-3.837-12.838-7.84c-2.653-2.802-4.684-5.529-5.704-6.963c0.048-0.003,0.135-0.008,0.182-0.011
	c0.997-0.064,1.815-0.115,2.401-0.145c0.294-0.015,1.003-0.011,1.128-0.037c0.001,0,0.001,0,0.002,0
	c0.496-0.063,0.873-0.49,0.873-0.991c0-0.137-0.028-0.273-0.083-0.399l0.037-10.266c0-0.001,0-0.002,0-0.004
	c0-0.547-0.45-0.999-0.999-0.999h-2.495c-5.624,0-11.02-2.248-14.999-6.255c-1.88-1.894-3.49-5.227-4.567-8.8
	c-1.078-3.574-1.648-7.395-1.648-10.23c0-8.114,0.534-21.349,0.563-22.075C307.852,182.137,310.34,180.89,313.432,180.236z
	 M124.363,180.831c-0.548,0.007-0.993,0.464-0.986,1.012v5.201c0,0.005,0,0.01,0,0.015c0,0.547,0.451,0.999,0.999,0.999
	c0.548,0,0.999-0.451,0.999-0.999c0-0.005,0-0.01,0-0.015v-5.201c0-0.004,0-0.009,0-0.013c0-0.548-0.45-0.999-0.999-0.999
	C124.372,180.831,124.367,180.831,124.363,180.831z M162.049,190.553c-0.547,0-0.999,0.451-0.999,0.999v5.364
	c0,0.548,0.451,0.999,0.999,0.999h20.311c0.548,0,0.999-0.45,0.999-0.999v-5.364c0-0.547-0.45-0.999-0.999-0.999H162.049z
	 M163.048,192.551h18.314v3.367h-18.314V192.551z M162.049,198.779c-0.547,0.001-0.999,0.451-0.999,0.999v5.365
	c0,0.547,0.451,0.999,0.999,0.999h20.311c0.548,0,0.999-0.451,0.999-0.999v-5.365c0-0.547-0.45-0.998-0.999-0.999H162.049z
	 M163.048,200.777h18.314v3.368h-18.314V200.777z M133.743,209.21c-0.124,0.005-0.245,0.033-0.359,0.082l-23.031,9.658
	c-0.412,0.173-0.661,0.603-0.604,1.048l1.98,15.516l-6.143-3.363c-0.151-0.087-0.322-0.132-0.495-0.132
	c-0.548,0-0.999,0.451-0.999,0.999c0,0.371,0.206,0.712,0.534,0.884l7.861,4.306c0.147,0.081,0.313,0.123,0.48,0.123
	c0.547,0,0.999-0.45,0.999-0.999c0-0.042-0.003-0.085-0.008-0.127l-2.132-16.706l22.33-9.366c0.376-0.153,0.623-0.52,0.623-0.926
	c0-0.547-0.451-0.999-1-0.999C133.768,209.209,133.756,209.209,133.743,209.21z M330.116,214.947
	c-0.482,0.006-0.895,0.36-0.974,0.835c-0.276,1.418-1.913,2.704-4.05,2.704c-2.136,0-3.772-1.285-4.047-2.704
	c-0.086-0.476-0.505-0.826-0.99-0.823c-0.545,0.003-0.993,0.452-0.993,0.999c0,0.069,0.008,0.137,0.022,0.205
	c0.497,2.563,3.072,4.321,6.008,4.321c2.937,0,5.512-1.758,6.011-4.321c0.016-0.071,0.024-0.144,0.024-0.217
	c0-0.548-0.451-0.999-0.999-0.999C330.124,214.947,330.12,214.947,330.116,214.947z M226.537,223.701
	c5.565,0.018,11.07,1.402,15.84,3.671c8.481,4.034,14.47,10.843,14.607,17.263c0.146,6.863-1.272,9.899-2.483,11.193
	c-0.475,0.507-0.867,0.644-1.234,0.786l0.045-3.627c0-0.003,0-0.006,0-0.009c0-0.548-0.45-0.999-0.999-0.999
	c-0.429,0-0.813,0.277-0.948,0.684c0,0-1.4,4.038-4.699,4.331c-9.105,0.808-15.342,2.997-28.473,3.846
	c-6.455,0.417-9.353-0.9-10.633-2.085c-0.641-0.592-0.911-1.169-1.039-1.591c-0.122-0.406-0.102-0.568-0.101-0.581l-0.004-0.12
	c-0.026-0.528-0.468-0.95-0.998-0.95c-0.519,0-0.956,0.406-0.996,0.923c0,0,0.014,0.09,0.014,0.096h-0.016l0.355,10.522
	c-0.041-0.044-1.949-1.939-2.041-2.002c-0.091-0.063-0.089-0.213-0.647-0.213c-1.928,0-3.441,0.897-4.19,2.339
	c-0.75,1.442-0.906,3.262-0.906,5.434c0,4.575,2.945,8.474,6.873,8.608l-0.031,18.622c-7.846-0.34-16.15,0.837-24.443-1.633
	c1.091-2.055,3.551-6.863,5.972-12.796c3.239-7.94,6.443-17.875,6.149-26.132c-0.281-7.874,0.578-13.89,3.792-19.032
	s8.866-9.519,18.449-13.887C217.841,224.499,222.208,223.687,226.537,223.701z M151.339,236.333c-2.824,0-5.138,2.313-5.138,5.139
	c0,2.825,2.314,5.136,5.138,5.136c2.826,0,5.139-2.311,5.139-5.136C156.478,238.647,154.164,236.333,151.339,236.333z
	 M215.136,238.077c-1.451,0-2.667,1.074-2.906,2.462c-0.55-0.313-1.177-0.505-1.851-0.505c-2.085,0-3.798,1.713-3.798,3.798
	c0,0.141,0.028,0.275,0.043,0.411c-0.487-0.354-1.079-0.567-1.721-0.567c-1.62,0-2.955,1.334-2.955,2.955
	c0,1.62,1.335,2.955,2.955,2.955c1.617,0,2.947-1.329,2.953-2.944c0.674,0.605,1.553,0.986,2.523,0.986
	c2.085,0,3.798-1.711,3.798-3.796c0-0.006-0.002-0.012-0.002-0.018c0.303,0.107,0.623,0.176,0.961,0.176
	c1.621,0,2.955-1.336,2.955-2.957C218.092,239.413,216.757,238.077,215.136,238.077z M151.339,238.331
	c1.744,0,3.141,1.397,3.141,3.141c0,1.743-1.397,3.138-3.141,3.138c-1.742,0-3.14-1.395-3.14-3.138
	C148.199,239.728,149.597,238.331,151.339,238.331z M215.136,240.075c0.541,0,0.958,0.417,0.958,0.958
	c0,0.541-0.416,0.96-0.958,0.96c-0.54,0-0.959-0.418-0.959-0.96C214.177,240.492,214.596,240.075,215.136,240.075z M210.379,242.031
	c1.006,0,1.801,0.795,1.801,1.801c0,1.006-0.795,1.799-1.801,1.799s-1.801-0.793-1.801-1.799
	C208.578,242.827,209.373,242.031,210.379,242.031z M365.614,242.209c0.394,0.036,5.066,0.481,7.108,0.677l0.006,18.183
	l-21.357-3.348c2.926-1.643,5.609-4.205,7.855-6.711C362.947,246.861,365.612,242.389,365.614,242.209z M324.472,242.847
	c0.207,0.31,2.811,4.191,6.584,8.175c2.621,2.768,5.765,5.601,9.126,7.186l-17.773,5.016l-3.428-20.003
	C319.062,243.216,322.837,242.957,324.472,242.847z M374.72,243.077c1.714,0.166,14.247,1.402,17.839,1.781
	c1.797,0.19,6.415,0.748,6.389,0.741c7.682,1.867,12.913,7.62,14.944,12.988c6.065,16.027,15.054,51.885,15.078,51.98
	c0.001,0.002,0.001,0.004,0.002,0.006l0.006,0.026c0.016,0.072,1.427,6.423,1.996,13.955c0.421,5.641-1.925,11.13-6.277,14.701
	c-4.353,3.572-10.157,4.772-15.553,3.219c-0.001,0-0.002,0-0.002,0c-21.988-6.289-56.855-16.33-57.817-16.607l2.298-25.05
	l44.715,9.285c0.067,0.014,0.135,0.021,0.203,0.021c0.548,0,0.999-0.45,0.999-0.999c0-0.095-6.071-15.936-6.181-16.039v-14.655
	c-0.001-0.547-1.081-0.996-1.106-0.994l-47.718,5.244c-0.001,0-0.001,0-0.002,0c-0.093-0.026-0.189-0.038-0.285-0.037l-5.238,0.104
	c-0.068-0.023-0.138-0.038-0.209-0.045l-48.152-5.266c-0.033-0.003-0.066-0.005-0.1-0.005c-0.003-0.001-0.006-0.001-0.009-0.001
	c-0.548,0-0.999,0.451-0.999,1v39.721c-0.006,0.011-0.012,0.022-0.018,0.033c-3.668,7.512-10.642,19.461-15.835,28.085
	c-0.001-6.978-0.003-20.719-0.003-27.234c0-2.069-0.666-4.084-1.899-5.747c0-0.001,0-0.001,0-0.002
	c-2.867-3.866-6.722-6.296-10.899-7.376c6.893-16.045,21.73-40.204,27.498-53.364v-0.002c2.06-4.674,6.592-7.769,11.695-7.987
	c0.009,0,0.017-0.001,0.026-0.001c1.086-0.075,12.727-0.899,16.871-1.193l3.651,21.293c0.082,0.476,0.499,0.829,0.984,0.829
	c0.092,0,0.182-0.013,0.27-0.038l21.238-5.994c0.118-0.03,0.23-0.081,0.33-0.151c0.628,0.118,1.26,0.184,1.895,0.184
	c0.865,0,1.72-0.127,2.563-0.342c0.098,0.052,0.205,0.088,0.315,0.105l25.351,3.974c0.051,0.008,0.103,0.012,0.155,0.012
	c0.547,0,0.999-0.451,0.999-0.999l0,0L374.72,243.077z M204.903,245.674c0.541,0,0.958,0.416,0.958,0.958
	c0,0.54-0.416,0.958-0.958,0.958c-0.54,0-0.958-0.417-0.958-0.958C203.945,246.091,204.362,245.674,204.903,245.674z
	 M133.771,249.019c-0.548,0-0.999,0.451-0.999,0.999v6.188c0,0.547,0.45,0.999,0.999,0.999h36.493c0.547,0,0.999-0.451,0.999-0.999
	v-6.188c0-0.547-0.451-0.999-0.999-0.999H133.771z M134.77,251.017h34.495v4.191H134.77V251.017z M251.272,256.536
	c0,0-0.182,12.867-0.182,21.462c0,5.04-1.135,8.971-3.907,13.144c-5.186,7.806-16.526,5.47-16.526,5.47
	c-0.069-0.015-0.138-0.022-0.207-0.022c-0.548,0-1,0.45-1,0.999v13.49c-3.91,3.89-7.75,5.706-11.607,5.677
	c-3.85-0.029-7.855-1.918-12.031-5.698l0.052-30.849c0-0.001,0-0.001,0-0.002c0-0.548-0.45-0.999-0.999-0.999
	c-0.055,0-0.589,0.066-0.805,0.066c-2.668,0-5.071-2.861-5.071-6.66c0-2.055,0.218-3.624,0.679-4.512
	c0.421-0.811,0.984-1.151,2.146-1.212c0.072,0.068,0.131,0.119,0.228,0.215c0.323,0.319,2.976,3.028,3.055,3.087
	c0.078,0.06,0.043,0.158,0.52,0.237c0.494,0.086,0.981-0.213,1.128-0.693c0.078-0.156-0.195-9.274-0.195-9.274
	c1.907,1.575,5.35,2.788,11.771,2.372c13.31-0.86,19.655-3.063,28.52-3.85C248.885,258.802,250.258,257.699,251.272,256.536z
	 M151.339,259.083c-2.824,0-5.138,2.313-5.138,5.139c0,2.825,2.314,5.139,5.138,5.139c2.826,0,5.139-2.314,5.139-5.139
	C156.478,261.396,154.164,259.083,151.339,259.083z M151.339,261.08c1.744,0,3.141,1.397,3.141,3.141
	c0,1.743-1.397,3.141-3.141,3.141c-1.742,0-3.14-1.398-3.14-3.141C148.199,262.478,149.597,261.08,151.339,261.08z M291.538,279.545
	l46.174,5.048l-0.018,13.933c-1.206,0.939-2.093,2.297-2.401,3.913l-2.766,14.534c-0.67,3.519,1.639,6.948,5.142,7.624l-0.027-0.004
	l0.052,0.012v14.488l-28.204-3.568c2.222-2.051,5.336-5.124,7.753-8.641c1.548-2.252,2.784-4.642,3.168-7.049
	c0.384-2.407-0.184-4.883-2.148-6.826c-1.857-1.837-3.919-2.463-5.784-2.259c-1.864,0.204-3.488,1.139-4.824,2.151
	c-0.895,0.679-1.443,1.264-2.057,1.865c0.168-1.569,0.211-2.873,0.013-3.762c-0.14-0.633-0.377-1.164-0.776-1.559
	c-0.4-0.396-0.958-0.587-1.437-0.589c-0.959-0.004-3.108,1.657-3.108,1.657c-0.105,0.107-0.184,0.238-0.232,0.38l-4.302,13.08
	l-4.217,6.566V279.545z M391.36,279.545v27.068l-46.094-9v-13.002L391.36,279.545z M226.91,281.845c-0.548,0-0.999,0.45-0.999,0.999
	c0,0.062,0.006,0.124,0.017,0.185c0.666,3.533,4.184,6.065,8.273,6.065c4.091,0,7.61-2.532,8.275-6.065
	c0.012-0.061,0.018-0.123,0.018-0.185c0-0.548-0.451-1-0.999-1c-0.001,0-0.001,0-0.002,0L226.91,281.845z M228.388,283.843h11.629
	c-0.951,1.846-3.113,3.253-5.816,3.253C231.5,287.096,229.339,285.688,228.388,283.843z M343.268,284.662v12.661l-0.439-0.065
	l0.045,0.008c-1.097-0.212-2.183-0.129-3.18,0.193l0.016-12.727L343.268,284.662z M114.486,286.87
	c-0.547,0.008-0.991,0.465-0.983,1.012v5.2c0,0.004,0,0.009,0,0.014c0,0.547,0.45,0.999,0.999,0.999
	c0.547,0,0.999-0.451,0.999-0.999c0-0.005,0-0.01,0-0.014v-5.2c0-0.004,0-0.009,0-0.013c0-0.548-0.451-0.999-0.999-0.999
	C114.496,286.87,114.491,286.87,114.486,286.87z M250.486,289.412c0.592,2.299,2.136,5.22,5.723,7.831
	c0.407,0.297,0.621,0.546,0.689,0.665c0.023,0.042,0.026,0.041,0.031,0.047c-0.005-0.005-0.383,0.418-1.295,0.761
	c-1.851,0.696-5.304,1.218-8.991,1.502c-3.687,0.285-7.649,0.359-10.696,0.283c-1.523-0.038-2.823-0.112-3.721-0.213
	c-0.35-0.039-0.572-0.082-0.777-0.123v-1.431c2.796,0.417,12.263,1.241,17.397-6.486c0-0.001,0-0.002,0-0.002
	C249.471,291.305,250.007,290.361,250.486,289.412z M105.106,296.278c-0.004,0-0.009,0-0.014,0c-0.547,0-0.999,0.45-0.999,0.999
	c0,0.547,0.451,0.999,0.999,0.999c0.005,0,0.01,0,0.014,0h5.199c0.005,0,0.01,0,0.015,0c0.547,0,0.999-0.451,0.999-0.999
	c0-0.548-0.451-0.999-0.999-0.999c-0.005,0-0.01,0-0.015,0H105.106z M118.698,296.278c-0.005,0-0.01,0-0.014,0
	c-0.548,0-0.999,0.45-0.999,0.999c0,0.547,0.45,0.999,0.999,0.999c0.004,0,0.009,0,0.014,0h5.199c0.005,0,0.009,0,0.014,0
	c0.548,0,0.999-0.451,0.999-0.999c0-0.548-0.45-0.999-0.999-0.999c-0.005,0-0.009,0-0.014,0H118.698z M393.357,298.268
	c1.56,3.954,2.891,7.389,3.601,9.507l-3.601-0.747V298.268z M341.59,299.144c0.298-0.004,0.6,0.023,0.905,0.082
	c0.016,0.003,0.031,0.005,0.047,0.008l1.24,0.179c0.214,0.12,0.465,0.157,0.704,0.104l7.151,1.04l-2.254,24.583l-11.311-2.497
	c-0.008-0.002-0.017-0.004-0.025-0.006c-2.434-0.469-4.027-2.828-3.559-5.291l2.767-14.532
	C337.666,300.658,339.506,299.168,341.59,299.144z M114.486,300.458c-0.547,0.009-0.991,0.465-0.983,1.013v5.201
	c0,0.005,0,0.009,0,0.014c0,0.548,0.45,0.999,0.999,0.999c0.547,0,0.999-0.45,0.999-0.999c0-0.005,0-0.009,0-0.014v-5.201
	c0-0.005,0-0.009,0-0.014c0-0.547-0.451-0.999-0.999-0.999C114.496,300.458,114.491,300.458,114.486,300.458z M171.395,304.407
	c0.152-0.01,0.305-0.01,0.458,0.002c0.409,0.032,8.599,4.155,8.599,4.155c1.559,0.805,2.165,2.699,1.361,4.257l-6.754,13.096
	c-0.804,1.559-2.697,2.163-4.256,1.359l-7.39-3.81c-1.558-0.803-2.163-2.695-1.359-4.254l6.754-13.098
	C169.336,305.091,170.332,304.479,171.395,304.407z M231.448,305.679c1.585,0.117,16.403,1.205,26.386,1.795
	c2.76,0.163,4.918,2.424,4.965,5.218c0.409,24.319-0.363,85.219-0.4,88.132h-1.873c-0.103-0.631-0.294-1.234-0.566-1.788
	c-0.783-1.591-2.107-2.84-3.492-3.834c-1.251-0.9-2.526-1.534-3.601-2.03c0.464-0.303,0.95-0.651,1.212-1.273
	c0.307-0.73,0.235-1.659-0.225-2.534c-0.354-0.674-0.977-1.056-1.641-1.311c-0.227-0.087-0.478-0.147-0.727-0.211l-7.288-22.835
	c-0.136-0.425-0.542-0.711-0.989-0.694c-0.092,0.003-0.182,0.019-0.27,0.047l-4.274,1.386c-0.52,0.169-0.81,0.734-0.643,1.254
	l6.581,20.583c-0.062,0.004-0.125,0.003-0.187,0.008c-3.803,0.285-7.357,0.925-7.409,0.934l-48.207-2.733l1.075-23.616l0.644-0.002
	c0.246,0.003,0.484-0.086,0.669-0.248c0.255-0.181,0.41-0.471,0.419-0.784c0.254-8.791,1.225-16.227,1.726-22.569
	c0.003-0.03,0.005-0.061,0.005-0.092c0-0.548-0.451-0.999-1-0.999c-0.012,0-0.024,0-0.037,0.001
	c-0.509,0.018-0.926,0.423-0.96,0.932c-0.478,6.045-1.401,13.259-1.697,21.763l-28.68,0.051c0.406-10.197,2.558-22.46,5.874-32.749
	l3.049,1.572c2.52,1.299,5.647,0.301,6.947-2.22l6.754-13.097c1.298-2.519,0.298-5.647-2.222-6.947l-0.849-0.436l23.306-0.437
	l-0.009,5.61c-0.001,0.279,0.115,0.544,0.32,0.734c4.521,4.193,9.097,6.459,13.694,6.494c4.596,0.034,9.076-2.184,13.333-6.528
	c0.184-0.186,0.287-0.437,0.287-0.7V305.679z M263.792,309.093c2.415,1.193,4.601,2.97,6.391,5.383h-0.002
	c0.977,1.319,1.506,2.918,1.506,4.559c0,7.32,0.005,26.275,0.005,30.6c-0.078,0.218-0.078,0.456,0,0.674c0,0.224,0,1.824,0,1.907
	h-6.865c0.087-15.056,0.128-30.108-0.031-39.558C264.775,311.361,264.407,310.147,263.792,309.093z M303.389,310.854
	c0.058,0.001,0.008-0.021,0.039,0.01c0.031,0.031,0.148,0.185,0.234,0.573c0.173,0.777,0.181,2.398-0.279,5.055
	c-0.041,0.239-0.146,0.435,0.07,0.917c0.108,0.241,0.435,0.55,0.765,0.62c0.33,0.07,0.546-0.012,0.69-0.072
	c0.577-0.241,0.714-0.493,1.072-0.841c0.713-0.696,1.705-1.729,2.883-2.622c1.178-0.893,2.518-1.614,3.833-1.758
	c1.315-0.143,2.645,0.193,4.163,1.694c1.526,1.508,1.89,3.152,1.58,5.091c-0.31,1.94-1.391,4.122-2.843,6.232
	c-2.747,3.996-6.697,7.652-8.791,9.529c-0.346,0.114-0.602,0.407-0.669,0.765c-0.029,0.077-0.048,0.158-0.057,0.24
	c-0.204,0.371-12.139,22.067-20.551,37.358c-4.105,7.46-13.355,10.271-20.911,6.413c0.08-7.955,0.141-16.259,0.2-25.845h6.96
	l0.578,6.576c0.045,0.512,0.479,0.911,0.995,0.911c0.34,0,0.657-0.173,0.84-0.458l16.842-26.222c0-0.001,0.001-0.002,0.002-0.002
	c0.284-0.162,0.47-0.453,0.499-0.779l5.971-9.295c0.046-0.071,0.083-0.147,0.11-0.227l4.256-12.943
	C301.957,311.689,303.272,310.854,303.389,310.854z M289.541,322.564v11.085l-15.45,24.055l-0.401-4.53c0-0.006,0.001-2.643,0-3.024
	C278.266,342.623,285.109,331.045,289.541,322.564z M339.692,325.045l3.577,0.79v13.393h-3.577V325.045z M345.266,326.277
	c0,0,21.589,6.126,32.626,9.299l-32.626,3.532V326.277z M471.489,329.335c1.131,0.028,2.258,0.645,3.443,1.907l-0.131,5.653
	c0,0.007,0,0.015,0,0.023c0,0.547,0.45,0.999,0.999,0.999c0.093,0,0.186-0.013,0.275-0.039l5.737-1.644
	c1.966,0.933,3.057,1.95,3.364,2.902c0.307,0.956-0.014,2.135-1.189,3.676l-5.776,1.654c-0.427,0.122-0.724,0.515-0.724,0.96
	c0,0.212,0.067,0.418,0.192,0.589l3.408,4.683c-0.164,2.034-0.724,3.28-1.586,3.86c-0.869,0.585-2.319,0.673-4.444,0.053
	c0,0-3.916-5.118-4.235-5.118c-0.304,0-4.429,4.948-4.429,4.948c-2.259,0.603-3.727,0.453-4.545-0.166
	c-0.811-0.614-1.283-1.914-1.301-3.987l3.635-4.553c0.141-0.177,0.218-0.397,0.218-0.622c0-0.429-0.277-0.813-0.684-0.948
	l-5.67-1.889c-0.891-1.388-1.104-2.483-0.744-3.466c0.36-0.98,1.437-2.018,3.256-3.004l5.603,1.865
	c0.102,0.034,0.209,0.051,0.316,0.051c0.539,0,0.987-0.436,0.999-0.976l0.129-5.618C469.06,329.888,470.36,329.307,471.489,329.335z
	 M382.925,337.022c9.43,2.71,13.177,3.791,22.176,6.369l0.926,57.357l-114.136,0.065l0.831-36.101
	c6.801-12.361,14.885-27.055,15.068-27.389c0,0,30.952,3.902,30.976,3.902h5.372c0.039,0.002,0.273-0.008,0.343-0.024
	C344.481,341.202,382.854,337.044,382.925,337.022z M470.786,352.139l1.559,2.142l0.018,33.042
	c-0.001,0.052-0.009,0.318-0.008,0.334h-2.985c-0.04-0.849-0.132-2.156-0.318-3.811v-29.533L470.786,352.139z M187.876,362.178
	l-1.116,24.509c-0.025,0.544,0.398,1.014,0.943,1.044l49.385,2.802c0.14,0.007,0.279-0.015,0.41-0.065
	c0.255-0.045,3.511-0.618,7.069-0.885c1.85-0.139,3.739-0.186,5.186-0.032c0.723,0.077,1.334,0.208,1.744,0.366
	c0.409,0.157,0.565,0.327,0.591,0.377c0.263,0.501,0.214,0.678,0.15,0.831c-0.064,0.152-0.256,0.354-0.569,0.532
	c-0.628,0.357-1.534,0.509-1.534,0.509c-0.491,0.068-0.862,0.492-0.862,0.989c0,0.431,0.279,0.816,0.689,0.95
	c0,0,2.896,0.96,5.34,2.718c1.223,0.878,2.301,1.948,2.865,3.095c0.565,1.149,0.698,2.341,0,3.876
	c-0.29,0.638-0.816,1.123-1.658,1.514c-0.842,0.391-1.983,0.651-3.31,0.768c-2.656,0.236-6.036-0.086-9.327-0.637
	c-6.089-1.021-11.65-2.736-12.481-2.996c-0.241-0.216-0.572-0.302-0.888-0.231c0,0-12.552,2.502-27.223,3.236
	c-14.67,0.735-31.426-0.453-39.538-7.18c-1.142-0.947-2.037-2.763-2.61-5.266c-0.573-2.502-0.839-5.648-0.907-9.125
	c-0.131-6.65,0.438-14.494,0.735-21.65L187.876,362.178z M454.426,364.207l-0.135,0.018c3.136-0.186,5.386,1.106,7.217,3.285
	c1.832,2.179,3.142,5.273,4.029,8.429c0.805,2.868,1.254,5.738,1.517,8.051c0,0,0.023,0.485,0.072,0.606
	c0.135,1.288,0.207,2.333,0.244,3.061h-8.382c0.063-2.261-0.17-8.673-4.568-12.598c-0.715-0.637-1.418-1.107-2.128-1.409l0.025,0.01
	c-2.173-0.995-3.324-3.207-2.874-5.413c0.451-2.205,2.419-3.874,4.834-4.02l-0.06,0.002
	C454.223,364.229,454.321,364.228,454.426,364.207z M487.177,364.207c0.104,0.021,0.203,0.022,0.209,0.022l-0.061-0.002
	c2.415,0.146,4.385,1.815,4.836,4.02c0.45,2.206-0.702,4.419-2.875,5.413l0.025-0.01c-0.71,0.303-1.413,0.772-2.128,1.409
	c-4.305,3.84-4.638,10.159-4.597,12.598h-8.224c0,0,0.158-6.606,1.783-12.266c0.865-3.016,2.152-5.964,3.963-8.039
	c1.812-2.075,4.057-3.313,7.206-3.127L487.177,364.207z M242.603,366.572l6.686,20.947c-0.829-0.056-1.71-0.057-2.618-0.031
	l-6.442-20.148L242.603,366.572z M290.636,368.505l-0.745,32.309l-15.545,0.01h-9.949c0.012-0.974,0.097-8.457,0.201-18.595
	c8.325,3.693,18.223,0.48,22.679-7.62C288.652,372.11,289.132,371.238,290.636,368.505z M451.238,389.655h40.997v8.134h-40.997
	V389.655z M451.238,399.786h40.997v6.836c0,5.995-4.409,10.759-9.75,10.759h-21.497c-5.342,0-9.75-4.764-9.75-10.759V399.786z
	 M166.625,402.518c5.862,3.065,13.579,4.464,21.64,4.935l4.883,11.617c0.043,0.102,0.103,0.195,0.178,0.277
	c0.06,0.081,0.131,0.152,0.212,0.211l4.484,3.276c0.25,0.182,0.57,0.239,0.868,0.152c0,0,13.714-3.983,26.157-4.902
	c13.752-1.016,21.606,1.755,21.772,1.814c0.079,0.033,0.162,0.056,0.246,0.069c0.001,0,0.002,0,0.002,0
	c0.204,0.035,0.412,0.006,0.599-0.082c0.785-0.243,20.361-6.195,36.19-1.834c16.587,4.569,17.918,4.939,17.918,4.939
	c0.454,0.126,0.939-0.086,1.155-0.505l1.463-2.845c0.351-0.392,0.335-0.998-0.037-1.371c-5.796-5.775-14.821-10.983-25.054-15.449
	l169.939-0.098v3.901c0,6.983,5.224,12.756,11.748,12.756h21.497c6.524,0,11.748-5.773,11.748-12.756v-3.923l12.643-0.007
	c-0.351,0,24.25,27.736,24.699,28.498l-468.962,2.875c0.015-0.091,15.755-31.366,15.781-31.374h87.657
	C166.255,402.694,166.455,402.634,166.625,402.518z M260.525,402.821h2.743c0.08,0.009,0.16,0.009,0.24,0h3.856
	c0.03,0.002,0.06,0.003,0.09,0.003l6.686-0.003c9.924,4.007,18.819,8.745,25.182,13.822c-7.085-2.019-21.179-5.434-33.085-4.288
	c-8.132,0.784-12.984,1.944-15.847,2.936c-1.431,0.496-2.364,0.95-2.961,1.299c-0.011,0.006-0.007,0.007-0.017,0.013l-8.289-10.066
	c1.409,0.313,2.896,0.615,4.419,0.87c3.383,0.567,6.878,0.92,9.834,0.658c1.478-0.132,2.827-0.413,3.975-0.947
	s2.115-1.356,2.636-2.501C260.262,404.01,260.431,403.41,260.525,402.821z M230.468,404.248c0.013,0.004,2.282,0.707,5.425,1.508
	l8.083,9.818c-1.044-0.337-2.279-0.691-3.934-1.038c-5.131-1.074-12.925-1.787-23.659-0.413c-10.641,1.361-16.263,2.254-19.25,2.813
	c-1.321,0.248-1.984,0.408-2.489,0.538l-4.169-9.913c4.325,0.165,8.702,0.093,12.906-0.118
	C217.505,406.737,229.327,404.471,230.468,404.248z M272.543,414.146c12.364,0.289,25.79,4.208,29.646,5.411l-0.665,1.291
	c-0.137-0.037-1.274-0.354-17.138-4.724c-4.255-1.173-8.723-1.64-13.034-1.682c-5.876-0.057-11.392,0.681-15.733,1.498
	c2.666-0.58,6.168-1.151,10.809-1.597C268.399,414.153,270.456,414.098,272.543,414.146z M227.244,415.366
	c4.588-0.028,8.285,0.373,11.203,0.905c-1.235-0.132-2.542-0.25-4.004-0.32c-2.792-0.133-5.988-0.122-9.545,0.141
	c-12.388,0.914-25.312,4.632-26.076,4.853l-2.481-1.812c0.351-0.073,0.668-0.141,1.159-0.233c2.919-0.545,8.518-1.437,19.137-2.796
	C220.585,415.6,224.115,415.385,227.244,415.366z M532.027,433.186v15.176H62.783v-12.299L532.027,433.186z"></path>
</svg>