<?xml version="1.0" standalone="no"?>
<svg version="1.1" id="Layer_1" xmlns="http://www.w3.org/2000/svg" xmlns:xlink="http://www.w3.org/1999/xlink" x="0px" y="0px" width="595.279px" height="595.281px" viewBox="0 0 595.279 595.281" enable-background="new 0 0 595.279 595.281" xml:space="preserve">
<path id="color_x5F_2" fill="#FBC02D" d="M381.857,307.526c0.468-0.088,0.936-0.18,1.403-0.275c-0.354,0.148-0.552,0.23-0.552,0.23
	L381.857,307.526z M402.039,283.812c-7.623,3.154-16.602,5.039-25.093,5.687c-1.393,0.22-2.256,0.345-2.256,0.345
	s-0.646-0.05-1.724-0.132c-0.443,0.014-0.896,0.043-1.333,0.049c-11.261,0.156-22.448-1.621-33.666-1.549
	c-0.454,0.017-0.862,0.031-1.213,0.047c-2.189,8.789,4.088,16.584,12.449,18.438c9.423,2.09,19.542,1.459,29.004-0.085
	c9.761-1.593,19.526-4.226,24.761-13.495c2.078-3.684,3.608-7.912,4.138-12.182C405.644,282.063,403.938,283.026,402.039,283.812z
	 M360.376,266.387c6.809-2.447,13.566-4.04,20.608-3.853c-1.491-3.468-2.982-6.936-4.475-10.403
	c-0.827,0.034-1.619,0.041-2.355,0.008c-0.889-0.04-1.003-0.434-0.751-0.846c-0.013-0.019-0.028-0.03-0.039-0.05
	c-5.329-9.023-13.303-16.879-16.547-27.014c-0.419-1.312,2.473-2.106,2.898-0.777c3.178,9.931,11.076,17.667,16.301,26.517
	c0.068,0.115,0.102,0.229,0.118,0.342c8.904,0.021,24.266-5.048,25.055-15.135c-8.504-14.292-16.104-29.664-28.818-40.821
	c-5.99-5.257-12.601-7.399-20.53-7.073c-6.012,0.247-11.96,0.83-17.971,0.639c0.78,9.147-0.757,19.433-11.246,21.627
	c-0.493,0.104-0.879,0.029-1.155-0.127c-0.604,0.164-1.259,0.15-1.559-0.194c-2.512-2.896-4.31-6.386-6.887-9.199
	c-0.235-0.257-0.475-0.497-0.718-0.726c-0.447,0.194-0.917,0.33-1.179,0.304c-17.286-1.726-19.381,19.146-23.927,34.662
	l-0.102,0.524l-0.097,0.144c-1.366,4.538-2.967,8.573-5.261,11.384c-0.071,0.087-0.188,0.167-0.333,0.239
	c4.914,4.11,13.282,5.252,19.208,6.407c5.494,1.068,11.04,1.946,16.612,2.521c-4.39-7.914-8.376-16.083-12.723-23.957
	c-0.301-0.544,2.454-1.578,2.897-0.775c4.562,8.261,8.713,16.864,13.364,25.146c0.308,0.125,0.39,0.332,0.316,0.562
	c2.687,4.75,5.546,9.385,8.746,13.781c2.574,0.378,5.146,0.767,7.721,1.043C345.86,272.18,352.664,269.157,360.376,266.387z
	 M385.207,262.86l-1.767-2.13c0.24,0.559,0.479,1.114,0.719,1.671c0.046,0.105,0.002,0.22-0.093,0.331
	C384.446,262.771,384.825,262.811,385.207,262.86z M342.022,274.104c0,0,0.627-0.217,1.62-0.562
	c-0.617,0.051-1.234,0.082-1.854,0.073c-0.802-0.01-1.602-0.047-2.4-0.097L342.022,274.104z M135.434,326.513
	c0.532-0.015,0.954,0.134,0.914,0.526c-0.078,0.762-0.166,1.522-0.262,2.285c5.74,0.965,11.431,0.487,17.184,0.229
	c-6.052-3.895-12.413-7.277-18.402-11.277c-0.161,0.074-0.316,0.154-0.481,0.223c-3.813,1.588-7.759,0.908-11.462-0.882
	c-0.375,0.64-0.792,1.255-1.172,1.892c4.272,2.229,8.744,4.035,13.075,6.146C135.305,325.887,135.466,326.198,135.434,326.513z
	 M76.876,397.201c0.242,0.491,0.868,1.553,1.724,2.952c-1.069-2.582-2.034-5.205-2.9-7.858
	C76.164,394.828,76.573,396.586,76.876,397.201z M149.505,323.603l-3.849-1.726c1.87,1.105,3.741,2.211,5.602,3.332L149.505,323.603
	z M130.72,359.27c-0.071-0.225-0.03-0.436,0.083-0.621c-1.229-0.136-2.446-0.298-3.651-0.479c-0.405,0.742-0.82,1.479-1.253,2.205
	c-0.25,0.418-1.355,0.727-2.088,0.692c-3.421,0.117-7.022,0.849-10.433,0.372c-2.438-0.342-4.645-1.126-6.999-1.814
	c-4.86-1.42-10.296-2.567-14.194-6.007c-0.563-0.496,2.08-1.596,2.718-1.032c3.488,3.075,8.227,4.188,12.592,5.465
	c2.45,0.717,5.179,1.97,7.729,2.082c2.8,0.124,5.571-0.158,8.356-0.312c5.106-8.776,8.123-19.032,9.496-29.129
	c-0.361-0.189-0.235-0.503,0.108-0.799c0.092-0.722,0.176-1.442,0.251-2.161c-0.094-0.021-0.186-0.048-0.273-0.09
	c-6.007-2.927-12.698-5.128-18.093-9.171c-4.898-3.672-9.612-12.256-16.619-8.89c-1.49,0.716-3.082-0.9-1.297-1.758
	c0.117-0.057,0.231-0.101,0.347-0.151c-0.794-1.062-1.362-2.229-1.653-3.563c-0.183,0.111-0.365,0.228-0.547,0.343l-1.756,1.355
	c0,0-1.214,0.757-2.982,2.005c-4.84,3.869-9.091,8.66-12.162,13.836c-4.264,7.188-5.158,14.772-5.597,23.005
	c-0.798,14.939,0.576,30.056,5.015,44.39c3.171,10.242,7.586,20.226,13.806,29.002c2.869,4.05,6.749,9.994,11.584,11.963
	c0.134,0.056,0.236,0.117,0.324,0.184c4.57-3.331,9.882-5.032,15.394-6.238c7.772-1.699,17.549-2.705,22.996-9.187
	c4.151-4.938,7.962-11.188,9.532-17.511c0.68-2.741,1.879-4.164,3.525-5.209l0.149-0.303c-0.348-0.008-0.665-0.1-0.872-0.312
	C144.688,381.645,134.962,372.694,130.72,359.27z"></path>
<path id="color_x5F_1" d="M140.075,294.565c0.483-0.473,1.449-0.56,2.104-0.363c0.079-0.037,0.141-0.064,0.15-0.067
	c0.551-0.191,1.279-0.406,1.855-0.207c1.033,0.356,2.008,0.858,3.041,1.216c0.444,0.153-0.837,0.73-0.884,0.748
	c-0.551,0.19-1.279,0.405-1.855,0.207c-0.375-0.13-0.738-0.287-1.104-0.441c0.051,1.038,0.425,1.995,0.881,2.921
	c0.314,0.639-0.758,1.225-1.194,1.34c-0.652,0.177-1.386,0.084-1.704-0.563c-0.282-0.573-0.502-1.135-0.66-1.713
	c-2.28,3.335-3.46,7.411-6.406,10.287c-0.686,0.67-1.807,0.939-2.542,0.199c-0.911-0.918-1.708-1.816-2.253-2.994
	c-0.576-1.244,2.294-2.08,2.897-0.777c0.197,0.426,0.474,0.811,0.776,1.174C135.781,302.1,136.92,297.651,140.075,294.565z
	 M120.102,302.032c0.027,0.013,0.078,0.029,0.172,0.067c0.158,0.063,0.301,0.218,0.42,0.335c0.319,0.313,0.483,0.755,0.599,1.178
	c0.217,0.8,3.114,0.021,2.897-0.777c-0.188-0.69-0.56-1.354-1.167-1.761c-0.852-0.569-1.921-0.436-2.864-0.232
	c-0.312,0.067-1.435,0.44-1.299,0.946C118.965,302.186,119.642,302.117,120.102,302.032z M127.882,291.341
	c0.496,0.021,0.965,0.297,1.4,0.514c0.485,0.241,1.189,0.057,1.705-0.119c0.877,0.442,3.217-0.534,2.529-1.233
	c-1.011-1.03-1.873-2.193-2.737-3.346c-0.571-0.764-3.37,0.219-2.695,1.116c0.482,0.645,0.971,1.283,1.478,1.907
	c-0.631,0.016-1.325,0.217-1.846,0.541C127.243,291.014,127.336,291.315,127.882,291.341z M137.708,289.023
	c0.806,0.501,3.484-0.672,2.306-1.404c-2.617-1.626-2.315-5.521-4.674-7.469c-0.794-0.655-3.486,0.479-2.69,1.135
	C135.159,283.356,134.807,287.222,137.708,289.023z M149.267,291.407c0.503-0.067,1.473-0.317,1.676-0.875
	c0.207-0.567-0.964-0.461-1.199-0.43c-1.579,0.213-3.03,0.201-4.356-0.786c-0.719-0.535-3.311,0.605-2.713,1.051
	C144.614,291.813,146.977,291.717,149.267,291.407z M288.23,180.896c-3.343-0.16-2.395-5.537-2.102-7.676
	c0.188-1.374-2.759-0.926-2.923,0.27c-0.49,3.578-0.948,9.119,3.98,9.355c0.681,0.031,1.546-0.206,1.896-0.854
	C289.411,181.379,288.798,180.925,288.23,180.896z M298.076,183.359c-1.563,2.002-3.4,3-5.949,3.049
	c-1.557,0.03-2.307,1.914-0.323,1.875c3.434-0.065,6.529-1.533,8.649-4.25C301.556,182.621,298.785,182.451,298.076,183.359z
	 M291.125,167.053c0.044,1.899,0.622,3.687,1.217,5.475c0.272,0.82,3.148-0.021,2.897-0.774c-0.595-1.789-1.172-3.575-1.217-5.476
	C294.008,165.607,291.104,166.106,291.125,167.053z M280.882,168.711c-0.015-0.67-2.919-0.17-2.897,0.774
	c0.044,1.899,0.621,3.687,1.216,5.476c0.272,0.818,3.148-0.023,2.897-0.777C281.504,172.396,280.927,170.609,280.882,168.711z
	 M288.59,162.819c2.026-0.616,4.198-0.539,6.295-0.54c1.676-0.001,2.206-2.179,0.242-2.178c-2.371,0.001-4.795-0.023-7.085,0.675
	C286.275,161.314,286.805,163.364,288.59,162.819z M523.697,459.789c-7.725,5.313-20.661,2.553-28.789,0.179
	c-3.946-1.153-10.952-2.086-13.852-5.482c-2.305-2.698-1.797-6.754-1.8-10.058c0-0.342,0.313-0.624,0.734-0.824
	c-0.744-0.297-1.464-0.86-2.153-1.779c-0.137-0.019-0.251-0.059-0.321-0.131c-9.225-9.291-18.438-18.596-27.545-28
	c-5.816-6.005-10.679-12.139-15.582-18.936c-6.612-9.162-18.21-15.423-22.041-26.363c-0.026-0.074,0.001-0.154,0.063-0.235
	c-0.858-0.086-1.708-0.194-2.54-0.326c-0.134-0.021-0.248-0.052-0.351-0.089c-0.299,0.063-0.596,0.061-0.837-0.045
	c-15.03-6.539-21.24-23.713-34.552-32.217c-0.075,0.113-0.168,0.229-0.304,0.351c-10.876,9.698-20.797,21.1-25.972,34.897
	c18.785,14.188,14.426,41.56,25.771,60.322c0.201,0.118,0.311,0.313,0.28,0.582c0.104,0.025,0.202,0.063,0.278,0.118
	c2.823,2.086,6.021,4.487,7.369,7.869c0.582,1.459,1.705,4.969,0.327,6.381c-3.286,3.369-6.721,6.738-10.505,9.548
	c-4.716,3.502-10.212,3.742-15.97,3.856c-6.893,0.137-13.747-0.457-20.633-0.527c-0.65-0.006-0.868-0.2-0.836-0.457
	c-0.066-0.046-0.092-0.104-0.048-0.18c4.855-8.367,19.857-9.216,21.289-19.449c0.021-0.157,0.16-0.307,0.36-0.436
	c-0.086-0.129-0.174-0.25-0.256-0.388c-0.199-0.332-0.147-0.647,0.04-0.916c-0.337-0.07-0.621-0.239-0.767-0.537
	c-7.289-14.852-20.739-25.841-30.865-38.653c-8.943-11.315-16.558-24.657-12.336-39.466c0.06-0.207,0.201-0.39,0.389-0.543
	c-0.894,0.229-1.854,0.065-1.604-0.666c6.622-19.327,18.639-35.361,30.681-51.594c0.013-0.018,0.03-0.031,0.045-0.048
	c-5.508-3.637-8.77-10.138-6.989-17.046c0.017-0.063,0.043-0.123,0.079-0.181c-2.058,0.104-4.116,0.278-6.179,0.562
	c-0.214,0.029-0.383,0.039-0.526,0.037c-7.56,2.626-19.28,13.012-22.75-0.215c-0.017-0.064-0.018-0.129-0.008-0.191
	c-0.281-0.176-0.529-0.386-0.751-0.621c-5.446,4.341-11.642,6.813-18.692,7.58c-7.544,0.821-14.559-1.406-21.967-1.937
	c-8.161-0.582-16.491,0.048-24.556,1.353c-7.385,1.193-15.483,2.619-21.947,6.617c-0.29,0.18-1.139,0.319-1.782,0.325
	c-0.448,0.264-0.905,0.514-1.364,0.76c-3.773,4.753-8.965,8.89-13.074,13.313c-5.242,5.642-10.396,11.369-15.365,17.254
	c-1.321,1.563-2.601,3.233-3.883,4.932c3.962-0.045,7.204,1.885,10.681,3.646c5.087,2.58,10.972,5.013,16.447,6.616
	c9.21,2.7,18.176,2.229,25.313,9.593c0.047,0.05,0.078,0.099,0.108,0.146c0.276,0.056,0.504,0.178,0.62,0.396
	c1.417,2.689,1.972,5.322,1.993,7.928c0.475-0.103,0.906-0.104,1.067,0.081c5.093,5.854,10.345,11.547,16.201,16.653
	c6.057,5.281,12.629,9.988,18.534,15.437c5.421,5.002,10.526,10.343,16.028,15.255c3.301,2.947,9.4,9.314,14.635,9.499
	c-0.031-0.137-0.051-0.272-0.088-0.408c-0.072-0.272,0.523-0.589,1.195-0.787c5.45-6.629,13.617-17.541,23.438-14.403
	c6.896,2.203-1.977,17.367-3.743,20.867c-2.563,5.079-4.526,10.54-7.767,15.246c-2.191,3.184-4.612,6.291-7.482,8.9
	c-1.104,1.003-2.41,2.734-4.104,2.676c-2.48-0.089-5.712-2.072-7.707-3.327c-3.967-2.495-7.332-5.688-8.022-10.518
	c-0.015-0.104,0.004-0.202,0.037-0.298c-5.79-6.354-13.273-10.733-20.811-14.726c-6.681-3.536-13.241-7.507-20.063-10.746
	c-9.07-4.307-20.215-7.927-26.685-15.931c-6.205,7.705-12.529,15.307-19.13,22.678c-0.241,0.27-0.626,0.424-1.033,0.485
	c-6.618,6.104-12.528,13.334-20.636,17.518c-8.338,4.304-17.144,5.614-26.437,5.569c-17.687-0.088-37.708-0.908-50.853-14.354
	c-0.437,0.202-0.939,0.284-1.332,0.125c-5.489-2.232-9.862-8.623-13.031-13.293c-3.918-5.773-7.211-11.993-9.889-18.465
	c-1.069-2.582-2.034-5.205-2.9-7.858c-0.664-2.035-1.29-4.083-1.832-6.148c-4.251-16.182-5.308-33.184-3.235-49.788
	c1.866-14.945,12.649-27.679,25.624-34.865c0.176-0.099,0.355-0.16,0.529-0.193c0.286-0.287,0.571-0.553,0.804-0.783
	c1.414-1.4,2.906-2.719,4.419-4.012c-0.054-0.03-0.104-0.064-0.146-0.106c-7.53-7.493-10.045-19.599-6.518-29.59
	c0.189-1.764,1.205-3.637,2.703-5.458c0.53-0.805,1.104-1.585,1.736-2.33c6.407-7.554,18.569-12.916,27.002-6.143
	c0.156,0.06,0.293,0.113,0.422,0.166c0.027-0.057,0.049-0.11,0.086-0.17c4.243-6.733,13.256-9.775,20.295-5.14
	c3.904,2.571,6.047,6.292,7.863,10.502c0.644,1.492,1.254,2.833,1.916,4.032c1.371,1.532,0.625,2.823,9.008,4.62
	c9.335,2.001,11.333,6.848,10.799,11.825c-0.534,4.977-9.299,9.855-14.966,10.56c-1.389,0.173-2.919,0.034-4.52-0.357
	c-4.454,5.673-8.929,11.341-12.526,17.614c-2.186,3.812-4.312,7.682-7.755,10.238c2.698,1.788,5.465,3.461,8.248,5.108
	c1.87,1.105,3.741,2.211,5.602,3.332c1.93,1.164,3.843,2.356,5.721,3.606c6.855-5.091,12.36-11.486,18.932-16.889
	c6.2-5.098,13.08-9.188,19.851-13.457c-0.739-0.338-1.404-0.792-1.589-1.446c-0.355-1.254,0.449-2.262,1.281-3.12
	c0.486-0.502,1.232-0.742,1.922-0.754c0.094-0.002,0.236,0.018,0.379,0.053c0.067-0.008,0.141-0.011,0.209-0.018
	c-0.135-0.166-0.249-0.342-0.305-0.542c-0.355-1.254,0.449-2.262,1.281-3.12c0.486-0.502,1.232-0.743,1.922-0.754
	c0.007,0,0.018,0.001,0.026,0.002c-0.458-0.341-0.802-0.755-0.81-1.271c-0.019-1.295,0.765-2.109,1.659-2.959
	c0.217-0.205,0.732-0.364,1.245-0.433c-0.037-0.112-0.072-0.226-0.074-0.348c-0.019-1.294,0.765-2.109,1.659-2.958
	c0.295-0.28,1.141-0.476,1.782-0.467c0.501-1.276,1.246-2.444,2.488-3.129c1.394-0.767,2.821-0.554,4.02,0.271
	c0.007-0.001,0.014-0.003,0.021-0.003c0.905-0.04,1.752-0.202,2.576-0.424c-2.662-9.833,10.705-9.847,17.58-8.64
	c0.502,0.088,0.769,0.289,0.87,0.533c16.928,7.778,34.549-2.87,51.823-0.883c1.294-5.177,2.747-10.723,1.664-16.048
	c-3.616-1.086-7.083-2.604-9.538-5.075c-0.667-0.671,0.83-1.482,1.906-1.45c10.856-14.854,6.395-48.049,30.985-47.423
	c-3.441-2.26-7.519-2.163-11.827-1.031c-5.652,1.484-12.068,2.774-16.616-1.977c-6.398-6.684-8.813-16.617-9.645-26.104
	c-0.213,0.083-0.431,0.135-0.638,0.133c-4.82-0.054-10.423-0.197-14.909-2.229c-1.82-0.825-3.641-2.671-1.264-4.226
	c3.76-2.457,8.742-3.145,13.425-3.838c2.105-14.577,14.224-24.246,28.419-26.084c14.353-1.859,27.236,6.226,29.786,20.791
	c0.521,6.807,0.861,13.539-2.99,19.048c1.413,5.86,5.66,10.145,10.717,13.153c13.79,0.31,28.229-3.786,39.382,6.907
	c12.614,12.095,20.553,26.675,29.406,41.522c0.028,0.047,0.03,0.092,0.05,0.139c0.028,0.053,0.05,0.109,0.063,0.173
	c0.013,0.06,0.02,0.114,0.021,0.171c0,0.01,0.003,0.016,0.003,0.023c-0.005,0.086-0.02,0.168-0.025,0.253
	c-0.184,2.37-1.069,4.491-2.452,6.366c4.087,8.254,8.342,17.071,10.368,26.075c0.944,4.2,0.127,7.701-1.899,10.52
	c0.054,0.088,0.088,0.188,0.084,0.313c-0.089,2.931-0.668,5.877-1.637,8.702c0.335-0.059,0.654-0.051,0.889,0.061
	c10.011,4.696,12.513,17.563,15.554,27.077c1.911,5.982,4.522,11.72,6.879,17.537c3.004,7.425,6.295,14.582,11.227,20.947
	c0.201,0.26,0.191,0.519,0.055,0.75c-0.003,0.008-0.002,0.014-0.005,0.021c-0.37,1.099-0.823,2.119-1.342,3.082
	c5.521,4.304,6.468,11.054,9.772,16.92c4.47,7.937,13.212,11.791,18.921,18.572c11.056,13.135,16.653,29.721,27.315,43.113
	c0.492-0.124,0.979-0.148,1.26,0.027C503.516,437.787,533.568,453,523.697,459.789z M272.146,158.344
	c0.701-0.121,1.389-0.249,2.055-0.396c7.761-1.704,15.496-3.465,23.393-4.417c0.15-0.018,0.28-0.02,0.399-0.014
	c0.147-0.06,0.304-0.104,0.478-0.123c8.451-0.916,16.976-1.735,25.481-1.818c-3.168-11.268-13.137-18.622-25.309-17.735
	C284.958,134.836,274.102,144.787,272.146,158.344z M272.515,167.133c-0.163-2.397-0.235-4.751-0.251-6.998
	c0-0.075,0.017-0.146,0.044-0.217c-3.23,0.709-6.444,1.444-9.622,2.188c-0.695,0.162-6.452,1.482-4.468,2.598
	c1.028,0.578,2.15,0.961,3.297,1.229C265.131,166.775,268.812,167.067,272.515,167.133z M311.188,195.429
	c5.151,2.464,7.571,8.032,11.102,12.258c9.742-2.165,9.438-13.89,8.373-21.776c-0.008-0.06-0.003-0.116,0.001-0.174
	c-3.453-2.443-6.382-5.553-8.063-9.402c-0.208,1.709-0.788,3.353-2.088,4.445c-2.881,2.424-6.564,1.652-9.62-0.003
	c-1.251-0.678,1.401-1.939,2.291-1.459c1.829,0.991,4.463,2.313,5.729-0.054c0.662-1.237,0.901-2.691,0.892-4.127
	c-0.229-0.199-0.286-0.479-0.033-0.819c-0.033-0.456-0.084-0.907-0.158-1.343c-0.363-2.135-1.073-4.518-2.667-6.076
	c-1.681-1.645-2.896-0.92-4.343,0.653c-0.061,0.063-0.139,0.121-0.227,0.174c-0.212,0.236-0.34,0.395-0.34,0.395l-0.76,4.021
	c0,0-7.234-1.089-10.9-7.162c-1.697-2.811-2.056-5.098-1.958-6.753c-0.16-0.873-0.312-1.746-0.47-2.607
	c-0.263-0.005-0.466-0.063-0.618-0.156c-0.016,0.002-0.03,0.007-0.045,0.009c-7.409,0.894-14.9,2.287-22.312,3.87
	c0.119,0.118,0.196,0.271,0.198,0.477c0.01,1.412,0.058,2.834,0.131,4.258c1.298-1.174,2.819-2.071,4.625-2.121
	c0.571-0.017,1.43,0.206,1.341,0.955c-0.084,0.704-0.958,1.156-1.596,1.174c-0.932,0.026-1.655,0.556-2.309,1.191
	c-0.508,0.493-1.248,0.769-1.952,0.564c0.348,4.854,1.1,9.708,2.452,14.339c1.955,6.69,6.118,17.803,15.106,16.466
	C298.816,195.77,305.341,192.633,311.188,195.429z M287.002,234.934c-1.366,4.538-2.967,8.574-5.261,11.384
	c-0.071,0.087-0.188,0.167-0.333,0.239c4.914,4.11,13.282,5.252,19.208,6.407c5.494,1.069,11.04,1.946,16.612,2.521
	c-4.389-7.914-8.376-16.083-12.724-23.957c-0.299-0.544,2.455-1.577,2.898-0.774c4.562,8.26,8.713,16.863,13.364,25.145
	c0.308,0.125,0.39,0.332,0.316,0.563c2.687,4.749,5.545,9.384,8.746,13.781c2.574,0.377,5.146,0.766,7.721,1.043
	c8.308,0.896,15.11-2.127,22.822-4.897c6.809-2.447,13.566-4.04,20.608-3.853c-1.491-3.468-2.982-6.936-4.475-10.402
	c-0.827,0.033-1.619,0.04-2.355,0.007c-0.889-0.04-1.003-0.433-0.751-0.846c-0.013-0.019-0.028-0.03-0.039-0.05
	c-5.329-9.023-13.303-16.879-16.547-27.014c-0.419-1.311,2.473-2.105,2.897-0.777c3.179,9.931,11.077,17.668,16.302,26.517
	c0.068,0.116,0.102,0.229,0.118,0.342c8.904,0.021,24.266-5.048,25.055-15.135c-8.504-14.292-16.104-29.664-28.818-40.821
	c-5.991-5.257-12.601-7.399-20.531-7.072c-6.011,0.246-11.96,0.83-17.97,0.638c0.78,9.147-0.757,19.433-11.246,21.628
	c-0.494,0.104-0.879,0.029-1.155-0.128c-0.604,0.165-1.259,0.15-1.559-0.194c-2.512-2.895-4.31-6.385-6.887-9.199
	c-0.235-0.257-0.476-0.497-0.718-0.725c-0.447,0.193-0.917,0.329-1.179,0.303c-17.286-1.725-19.381,19.146-23.927,34.662
	C287.136,234.488,287.069,234.711,287.002,234.934z M315.91,269.004c0.245-0.004,0.485-0.007,0.716-0.008
	c3.137-0.009,6.257,0.303,9.369,0.71c-2.682-3.821-5.128-7.804-7.444-11.87c-0.399,1.828-0.801,3.655-1.217,5.48
	C316.981,264.866,316.836,267.529,315.91,269.004z M211.777,282.972c-1.13-0.666-2.356-1.028-3.622-1.175
	c-0.257,0.127-0.538,0.215-0.816,0.24c-0.255,0.024-0.763-0.029-1.072-0.232c-0.665,0.963-0.335,1.681,0.422,2.24
	c1.936,0.148,3.986,0.647,5.399,1.813c0.406,0.041,0.814,0.075,1.224,0.048c0.018-0.003,0.024-0.003,0.041-0.006
	C213.984,284.719,212.708,283.52,211.777,282.972z M209.703,287.258c-1.375-0.219-2.719-0.635-3.86-1.152
	c-0.348-0.157-0.889-0.364-1.414-0.636c-0.312-0.013-0.625-0.009-0.938,0.001c-1.247,1.705,0.595,2.654,2.46,3.318
	c0.375,0.135,0.755,0.258,1.138,0.371c0.071,0.021,0.143,0.045,0.215,0.063c0.564,0.159,1.137,0.287,1.722,0.351
	c0.483,0.053,0.969,0.103,1.456,0.069c0.018-0.003,0.024-0.003,0.041-0.006C210.99,288.764,210.416,287.881,209.703,287.258z
	 M199.44,297.666c1.506,0.535,3.779,1.316,5.409,0.812c-0.154,0.048-0.124-1.092-0.272-1.356c-0.371-0.655-1.015-1.215-1.688-1.548
	c-1.699-0.838-3.501-1.134-5.376-0.973C196.502,296.098,197.482,296.967,199.44,297.666z M208.336,294.097
	c-0.154,0.048-0.124-1.093-0.272-1.356c-0.371-0.656-1.015-1.215-1.688-1.548c-1.699-0.838-3.501-1.134-5.376-0.973
	c-1.01,1.497-0.03,2.366,1.928,3.064C204.434,293.82,206.707,294.603,208.336,294.097z M163.144,355.155
	c-9.037,3.688-19.439,4.541-29.375,3.769c4.268,13.031,13.813,21.719,23.151,31.271c0.266,0.272,0.235,0.557,0.043,0.81
	c0.089-0.041,0.182-0.081,0.273-0.122c1.022-0.594,2.11-1.055,3.234-1.43c0.134-0.063,0.266-0.123,0.403-0.188
	c0.289-0.14,0.6-0.2,0.887-0.206c0.939-0.26,1.893-0.48,2.849-0.675c5.835-1.188,11.234-3.588,16.923-5.272
	c0.134-0.574,1.516-1.094,2.311-0.975c0.117-0.096,0.216-0.178,0.275-0.23c1.234-1.111,2.48-2.213,3.774-3.255
	c2.643-2.129,5.399-4.073,8.276-5.853c-0.751-0.155-1.325-0.545-1.503-1.329c-0.618-2.725,3.07-5.624,5.084-7.222
	c-6.515-0.432-13.62-1.129-19.822-3.095c-5.173-1.639-9.414-4.95-14.292-7.215C164.833,354.385,164.01,354.803,163.144,355.155z
	 M134.866,318.274c-0.161,0.074-0.316,0.154-0.481,0.223c-3.813,1.588-7.759,0.908-11.462-0.882
	c-0.375,0.64-0.792,1.255-1.172,1.891c4.272,2.229,8.744,4.036,13.075,6.146c0.479,0.232,0.64,0.546,0.607,0.859
	c0.532-0.016,0.954,0.134,0.914,0.526c-0.078,0.761-0.166,1.522-0.262,2.285c5.74,0.964,11.431,0.487,17.184,0.228
	C147.216,325.658,140.855,322.274,134.866,318.274z M98.487,302.614c0.084,0.056,0.141,0.127,0.156,0.222
	c0.242,1.508,0.817,2.774,1.688,3.926c3.899-0.735,7.292,0.854,10.507,4.027c2.794,2.758,5.449,5.36,8.702,7.438
	c0.316-0.49,0.632-0.98,0.899-1.5c0.065-0.128,0.162-0.23,0.258-0.333c-4.453-2.724-8.414-6.794-11.16-10.008
	c-0.771-0.901,2.007-1.947,2.686-1.152c5.233,6.125,14.304,14.354,21.776,11.269c0.293-0.298,0.755-0.531,1.225-0.616
	c1.504-0.905,2.93-2.317,4.224-4.374c5.08-8.072,10.208-15.748,16.021-23.292c-4.341-1.619-8.968-4.854-12.655-8.838
	c-3.662-3.956-5-7.023-5.491-8.728c-0.216-0.249-0.435-0.495-0.67-0.729c-2.832,2.937-6.367,5.229-9.512,7.871
	c-0.436,0.366-0.865,0.737-1.283,1.12c-1.604,1.469-3.051,3.078-4.173,4.979c-0.513,0.868-2.682,1.039-2.871,0.259
	c-0.546-0.045-0.967-0.313-0.884-0.879c0.506-3.404-4.814-4.295-7.153-3.133c-3.634,1.809-2.062,8.392,2.068,8.079
	c1.983-0.149,1.311,1.903-0.283,2.023c-0.061,0.005-0.121-0.002-0.182,0.001c-0.002,0.125-0.098,0.277-0.334,0.463
	c-2.218,1.736-4.407,3.515-6.558,5.333c-1.668,1.409-3.339,2.829-4.91,4.349C100.018,300.936,98.895,301.771,98.487,302.614z
	 M91.624,418.047c2.869,4.049,6.749,9.994,11.584,11.963c0.134,0.055,0.236,0.117,0.324,0.183c4.57-3.331,9.882-5.032,15.394-6.237
	c7.772-1.7,17.549-2.705,22.996-9.188c4.151-4.938,7.962-11.188,9.532-17.511c0.68-2.741,1.879-4.163,3.525-5.208
	c0.178-0.113,0.359-0.225,0.547-0.328c-0.135,0.02-0.268,0.029-0.398,0.025c-0.348-0.009-0.665-0.101-0.872-0.313
	c-9.568-9.79-19.293-18.739-23.536-32.165c-0.071-0.226-0.03-0.435,0.083-0.621c-1.229-0.136-2.446-0.298-3.651-0.479
	c-0.405,0.743-0.82,1.48-1.253,2.207c-0.25,0.418-1.355,0.726-2.088,0.691c-3.421,0.117-7.022,0.85-10.433,0.372
	c-2.438-0.342-4.645-1.126-6.999-1.813c-4.86-1.422-10.296-2.568-14.194-6.008c-0.563-0.496,2.08-1.596,2.718-1.033
	c3.488,3.076,8.227,4.189,12.592,5.466c2.45,0.717,5.179,1.97,7.729,2.082c2.8,0.124,5.571-0.158,8.356-0.312
	c5.106-8.777,8.123-19.033,9.496-29.129c-0.361-0.189-0.235-0.503,0.108-0.799c0.092-0.722,0.176-1.441,0.251-2.161
	c-0.094-0.021-0.186-0.048-0.273-0.09c-6.007-2.927-12.698-5.128-18.093-9.171c-4.898-3.672-9.612-12.256-16.619-8.89
	c-1.49,0.716-3.082-0.9-1.297-1.759c0.117-0.056,0.231-0.1,0.347-0.15c-0.794-1.063-1.362-2.229-1.653-3.563
	c-0.183,0.11-0.365,0.227-0.547,0.342c-1.625,1.02-3.212,2.141-4.738,3.361c-4.84,3.868-9.091,8.659-12.162,13.836
	c-4.264,7.188-5.158,14.771-5.597,23.004c-0.798,14.939,0.576,30.057,5.015,44.39C80.989,399.287,85.403,409.27,91.624,418.047z
	 M198.754,422.746c-0.04-0.02-0.081-0.037-0.114-0.063c-12.222-9.198-8.443-26.755-16.483-38.454
	c-4.242,1.267-8.426,3.524-12.722,4.451c-2.28,0.491-4.782,0.787-7.106,1.462c-0.098,0.063-0.208,0.128-0.344,0.193
	c-0.627,0.303-1.901,0.767-3.203,1.326c-0.396,0.248-0.78,0.52-1.143,0.824c-0.227,0.191-0.771,0.34-1.301,0.398
	c-0.796,0.494-1.379,1.02-1.485,1.549c-0.161,0.803-0.277,1.637-0.511,2.425c-0.752,2.531-1.759,4.993-2.958,7.347
	c-2.338,4.59-5.191,10.23-9.549,13.264c-10.899,7.584-25.755,5.466-36.278,13.295c11.179,11.457,27.596,13.74,42.923,14.108
	c11.207,0.269,22.765,0.438,32.465-6.147C187.597,434.209,192.826,428.104,198.754,422.746z M305.741,422.938
	c2.124,9.617-5.145,16.772-14.193,17.551c0.035,0.04,0.073,0.076,0.108,0.116c0.277,0.314,0.156,0.643-0.152,0.911
	c1.342,6.43,7.973,10.35,13.89,12.184c-0.796-0.246-0.646-0.282,0.567-1.465c0.78-0.736,1.535-1.499,2.266-2.286
	c2.105-2.352,4.101-4.842,5.727-7.556c2.07-3.455,3.476-7.169,5.294-10.74c1.785-3.506,3.627-7.01,5.102-10.661
	c1.092-2.707,2.9-6.438,2.396-9.461c-1.697-10.188-18.261,8.388-20.475,11.063C306.158,422.728,305.97,422.845,305.741,422.938z
	 M230.638,388.812c-0.114,0.664-1.425,1.103-2.248,0.996c-0.373,0.264-0.838,0.452-1.253,0.435
	c-3.896-0.177-4.275-3.039-3.788-6.112c-0.906,1.134-1.854,2.204-2.825,3.148c-2.564,2.497-6.963,4.515-8.224-0.094
	c-2.785,1.322-5.78,1.24-5.566-2.953c0.007-0.137,0.051-0.262,0.113-0.377c-0.348,0.042-0.706,0.061-1.082,0.038
	c-4.187-0.24-0.164-10.058,1.544-14.757c-1.708,1.063-3.58,1.928-5.3,2.578c-0.649,0.245-2.084,0.771-3.52,1.024
	c-4.338,2.699-8.362,5.791-12.161,9.232c-0.416,0.377-0.9,0.83-1.43,1.227c7.733,11.322,4.545,28.188,15.359,37.521
	c6.621-7.441,12.98-15.101,19.214-22.867c-0.748-1.154-1.422-2.377-1.972-3.711c-0.431-1.045,2.433-1.903,2.897-0.777
	c5.613,13.618,22.303,16.396,33.753,23.156c12.264,7.242,26.483,12.408,36.431,22.939c0.115-0.023,0.213-0.036,0.28-0.033
	c8.675,0.424,13.398-7.358,12.111-15.028c-4.815,0.647-9.336-2.696-12.895-5.565c-6.4-5.166-12.089-11.111-18.052-16.759
	c-6.428-6.088-13.584-11.289-20.251-17.104c-5.619-4.9-10.732-10.233-15.66-15.806C235.31,375.683,231.798,382.082,230.638,388.812z
	 M179.65,340.037c-3.48,4.612-7.104,9.237-11.715,12.47c4.577,2.146,8.786,5.878,13.755,7.032c6.485,1.51,13.124,2.631,19.77,3.058
	c0.125,0.008,0.232,0.021,0.327,0.042c2.283-1.764,4.764-3.469,7.421-4.444c1.142-0.419,2.964,0.056,1.03,0.767
	c-2.29,0.841-4.462,2.522-6.385,3.986c-2.07,1.577-4.776,3.514-5.949,5.934c-0.849,1.75-0.242,2.357,0.807,2.419
	c0.44-0.16,1.498-0.341,2.027-0.32c0.545-0.166,1.065-0.371,1.47-0.568c2.038-0.996,4.327-2.153,5.892-3.845
	c0.477-0.515,3.053-0.843,2.697-0.246c0.05,0.066,0.076,0.146,0.06,0.248c-0.38,2.41-1.546,4.749-2.323,7.048
	c-0.716,2.117-2.494,5.955-1.529,8.203c0.563,1.313,1.256-0.33,1.907-1.271c1.041-1.502,1.948-3.086,2.804-4.698
	c1.158-2.183,2.142-4.627,3.673-6.583c0.489-0.625,3.348-0.971,2.658-0.09c-2.708,3.459-4.599,11.434-9.018,13.947
	c0.39,0.127,0.666,0.412,0.641,0.892c-0.126,2.479,1.125,1.846,2.615,0.681c0.854-0.668,1.728-1.374,2.392-2.241
	c2.723-3.553,5.018-7.28,7.041-11.272c0.582-1.149,3.52-1.137,2.772,0.338c-2.461,4.856-5.324,10.672-9.779,14.146
	c0.206,0.104,0.357,0.268,0.413,0.504c0.374,1.581,0.652,2.368,2.02,1.259c1.34-1.09,2.475-2.455,3.514-3.826
	c1.884-2.488,3.81-5.223,5.025-8.118c0.456-1.087,3.368-1.228,2.749,0.25c-0.275,0.655-0.593,1.317-0.929,1.978
	c0.1,0.123,0.146,0.283,0.101,0.492c-0.486,2.252-3.523,9.543,0.297,10.096c1.983-9.777,8.628-18.91,3.6-28.795
	c-0.237-0.047-0.449-0.139-0.603-0.298c-6.908-7.128-15.704-5.938-24.34-8.946c-4.814-1.677-9.764-3.521-14.406-5.633
	c-3.725-1.693-7.493-4.703-11.765-4.488C180.078,340.153,179.839,340.111,179.65,340.037z M209.91,303.573
	c-0.177-0.09-0.211-0.248,0.034-0.513c0.602-0.65,1.25-1.29,1.935-1.852c0.163-0.135,0.67-0.297,1.197-0.389
	c3.436-2.041,6.428-4.75,10.023-6.608c3.056-1.58,4.964-3.334,6.036-6.12c-0.519-0.118-1.045-0.555-0.719-1.133
	c0.276-0.487,0.476-0.98,0.61-1.479c-0.225,0.079-0.456,0.142-0.678,0.174c-0.161,0.024-1.528,0.077-1.208-0.462
	c0.997-1.681,1.749-3.961,1.161-5.856c-0.178,0.335-0.387,0.65-0.627,0.938c-0.89,1.064-3.638,0.492-2.446-0.934
	c0.731-0.875,1.482-2.35,0.509-3.442c-0.678-0.763-1.09,0.02-1.647,0.271c-1.251,0.568-2.576,0.938-3.842,1.48
	c-0.515,0.223-1.026,0.432-1.538,0.631c-0.335,0.552-1.31,0.873-2.04,0.711c-1.29,0.386-2.609,0.649-4.019,0.713
	c-0.352,0.016-0.621-0.047-0.821-0.152c-0.369,0.003-0.729-0.092-1.007-0.354c-0.193-0.182-0.406-0.354-0.646-0.477
	c-0.073,0.084-0.246,0.213-0.324,0.315c-0.277,0.369-0.477,0.8-0.649,1.239c2.413,0.14,5.078,0.813,6.488,2.627
	c1.236,1.59,0.71,3.338-1.179,4.043c-0.402,0.148-0.826,0.251-1.258,0.328c0.677,1.397,0.068,2.798-1.572,3.41
	c-0.442,0.164-0.91,0.269-1.388,0.346c1.362,1.551,0.899,3.306-0.997,4.104c-0.709,0.299-1.495,0.454-2.308,0.521
	c1.113,1.486,0.618,3.103-1.179,3.859c-2.248,0.946-5.226,0.574-7.547-0.159c-7.723,4.882-16.063,9.399-22.664,15.801
	c-5.739,5.563-11.284,11.147-17.843,15.767c-0.003,0.004-0.008,0.004-0.011,0.008c-0.582,0.399-1.468,0.59-2.025,0.233
	c-6.722,0.107-13.247,0.896-19.892,0.028c-1.28,8.732-3.806,17.487-7.813,25.35c11.458,1.842,26.348,2.348,36.544-3.705
	c5.022-2.981,8.037-7.863,11.656-12.312c4.039-4.964,8.163-9.858,12.411-14.646c4.25-4.789,8.566-9.518,12.99-14.146
	C204.165,309.071,207.354,306.432,209.91,303.573z M302.874,286.545c-0.617-1.382-0.771-3.08-0.787-4.48
	c-1.004-1.646-1.783-3.739-0.859-5.602c1.007-2.03,3.008-3.062,5.09-3.705c0.311-0.097,0.578-0.112,0.806-0.077
	c0.92-2.318,3.396-3.181,5.901-3.497c-0.015-0.253,0.067-0.483,0.213-0.682c-0.194,0.211,0.047-0.298,0.094-0.478
	c0.137-0.527,0.268-1.056,0.394-1.586c0.335-1.41,0.658-2.823,0.976-4.237c0.37-1.646,0.733-3.296,1.092-4.945
	c-6.485-0.664-12.978-1.688-19.327-3.086c-1.836-0.404-3.863-0.811-5.92-1.308c0.593,5.101-0.763,10.313-1.988,15.229
	c-0.035,0.139-0.112,0.266-0.22,0.38c2.219,0.431,4.431,1.081,6.635,2.049c0.978,0.43-1.675,1.503-2.359,1.203
	c-19.75-8.673-40.326,7.186-60.181-1.195c-0.132,0.013-0.266,0.015-0.399-0.009c-3.244-0.568-6.899-1.094-10.153-0.33
	c-3.453,0.811-4.267,3.011-3.581,5.873c0.85-0.342,1.703-0.7,2.591-1.021c1.372-0.495,3.412-2.254,4.99-2.031
	c2.057,0.289,2.987,1.732,3.087,3.368c0.409-0.057,0.778-0.023,0.968,0.157c1.276,1.219,1.612,2.845,1.414,4.475
	c0.239,0.103,0.426,0.273,0.505,0.537c0.291,0.966,0.372,1.934,0.261,2.879c0.429,0.063,0.729,0.275,0.656,0.69
	c-0.755,4.267-2.696,7.292-6.541,9.377c-2.064,1.12-4,2.428-5.926,3.746c9.876-4.19,21.619-5.458,31.894-6.022
	c5.708-0.313,11.741-0.569,17.373,0.633c11.877,2.533,23.822,2.224,33.288-6.295C302.862,286.551,302.868,286.548,302.874,286.545z
	 M364.405,288.357c11.273,0.57,23.749-0.386,34.462-4.415c2.983-1.122,6.284-2.771,8.43-5.288c0.003-0.042,0.009-0.083,0.01-0.124
	c0.009-0.289,0.28-0.545,0.653-0.729c0.705-1.021,1.226-2.168,1.478-3.467c0.692-3.563-0.415-7.101-1.541-10.474
	c-2.311-6.917-5.191-13.666-8.371-20.234c-5.006,4.652-13.174,7.379-19.897,8.237c1.271,2.956,2.542,5.911,3.813,8.867
	c0.24,0.558,0.479,1.113,0.719,1.671c0.046,0.104,0.002,0.219-0.093,0.331c0.38,0.039,0.759,0.076,1.141,0.128
	c0.507,0.064,1.015,0.138,1.523,0.224c1.939,0.328,0.295,2.194-1.041,1.969c-10.078-1.7-19.024,0.973-28.365,4.488
	c-4.338,1.633-8.978,3.61-13.682,4.002c-0.617,0.051-1.234,0.082-1.854,0.074c-0.802-0.01-1.602-0.047-2.4-0.097
	c-4.632-0.285-9.236-1.149-13.829-1.731c-2.872-0.363-14.646-2.876-15.708,1.19c-0.184,0.698-1.285,1.114-2.089,1.071
	c-0.169,0.265-0.471,0.502-0.928,0.644c-3.251,1.007-3.698,3.583-1.973,6.308c0.022,0.039,0.034,0.074,0.052,0.111
	c0.041,0.037,0.068,0.079,0.069,0.133c0,0.024,0.001,0.054,0.001,0.078c0.001,0.08,0.003,0.161,0.005,0.244
	c0.048,2.161,0.408,5.426,2.753,6.146c0.554,0.171,0.127,0.576-0.185,0.781c0.611,2.201,1.686,5.092,4.252,5.358
	c2.247,0.233,4.51-0.974,6.42-2.011c2.624-1.426,5.18-3.124,8.021-4.086c0.58-0.196,1.259-0.117,1.65,0.087
	c0.133-0.042,0.268-0.075,0.401-0.095C340.437,286.086,352.275,287.744,364.405,288.357z M336.763,288.227
	c-0.002,0.011-0.003,0.021-0.007,0.031c-2.189,8.789,4.088,16.584,12.449,18.438c9.423,2.09,19.542,1.459,29.004-0.085
	c9.761-1.593,19.526-4.226,24.761-13.495c2.079-3.684,3.608-7.912,4.138-12.182c-1.463,1.13-3.169,2.093-5.067,2.878
	c-7.623,3.154-16.602,5.039-25.093,5.687c-1.343,0.102-2.669,0.174-3.979,0.213c-0.443,0.014-0.896,0.043-1.333,0.049
	c-11.261,0.156-22.448-1.621-33.666-1.549C337.566,288.214,337.164,288.219,336.763,288.227z M373.006,434.071
	c-2.854,5.535-10.481,10.058-15.481,6.412c-2.989,8.374-15.551,9.488-20.373,16.695c4.541,0.101,9.074,0.449,13.617,0.509
	c5.497,0.072,13.358,0.946,18.013-2.509c3.551-2.637,6.783-5.724,9.898-8.854C382.292,442.695,376.349,436.799,373.006,434.071z
	 M345.564,372.05c-0.332-0.081-0.594-0.257-0.696-0.531c-9.357-5.065-19.614-12.563-30.567-13.699
	c0.021,0.095,0.023,0.201-0.013,0.327c-4.635,16.259,5.262,30.656,15.382,42.486c9.618,11.242,21.192,21.664,27.792,35.108
	c0.105,0.216,0.08,0.421-0.028,0.604c0.219,0.064,0.402,0.186,0.518,0.376c3.821,6.375,11.505,0.901,12.976-4.563
	C359.48,413.633,363.828,386.34,345.564,372.05z M438.545,356.834c0.033-0.054,0.064-0.106,0.098-0.159
	c0.616-0.997,1.146-2.083,1.579-3.265c-4.226-5.525-7.354-11.636-9.996-18.058c-2.497-6.071-5.35-12.133-7.401-18.368
	c-3.13-9.507-5.275-23.045-15.005-28.144c-1.336,3.206-3.175,6.2-5.385,8.754c-4.884,5.642-12.002,8.175-19.173,9.655
	c-0.469,0.097-0.937,0.188-1.403,0.275c-1.356,0.256-2.71,0.482-4.045,0.687c-10.409,1.586-22.393,2.782-32.593-0.558
	c-0.791-0.259-1.552-0.584-2.289-0.942c-11.609,15.645-23.231,31.182-29.698,49.765c11.69,0.159,22.264,7.261,32.254,12.879
	c5.435-13.752,15.49-25.127,26.415-34.871c0.073-0.064,0.153-0.12,0.235-0.169c-1.329-0.721-2.723-1.364-4.205-1.896
	c-1.697-0.608,0.588-2.224,1.709-1.82c18.014,6.463,23.592,27.672,40.573,35.195c0.217-0.062,0.442-0.086,0.666-0.051
	C420.829,367.326,433.006,365.586,438.545,356.834z M453.388,413.414c8.34,8.582,16.748,17.098,25.177,25.594
	c0.515-0.053,0.986,0.043,1.16,0.385c1.483,2.914,2.901,3.419,5.502,1.439c1.497-1.142,2.978-2.412,4.641-3.311
	c1.705-0.921,3.454-1.509,5.236-1.573c-5.158-6.479-9.168-13.645-13.098-20.909c-4.284-7.92-8.651-17.096-15.339-23.293
	c-5.552-5.146-13.536-9.83-17.319-16.549c-3.112-5.524-4.358-12.179-8.896-16.667c-5.398,7.45-15.508,10.108-24.903,9.829
	c4.09,10.471,15.366,16.551,21.738,25.622C442.237,401.029,447.41,407.264,453.388,413.414z M522.847,456.379
	c-1.494-5.125-8.175-8.922-12.333-11.64c-3.857-2.519-7.851-4.813-11.773-7.217c-0.611,0.397-1.688,0.711-2.16,0.504
	c-4.803-2.101-9.934,4.971-14.426,5.762c-0.02,2.743-0.655,7.533,1.607,9.607c2.678,2.457,6.999,3.313,10.371,4.332
	c6.913,2.088,14.271,4.059,21.565,3.096C517.924,460.529,523.904,460.008,522.847,456.379z" fill="#0984E3"></path>
</svg>