<?xml version="1.0" standalone="no"?>
<svg version="1.1" id="Layer_1" xmlns="http://www.w3.org/2000/svg" xmlns:xlink="http://www.w3.org/1999/xlink" x="0px" y="0px" width="595.28px" height="595.28px" viewBox="0 0 595.28 595.28" enable-background="new 0 0 595.28 595.28" xml:space="preserve">
<path id="color_x5F_2" fill="#FBC02D" d="M469.828,205.808c-4.804-5.655-7.851-12.726-12.925-18.136
	c-2.624-2.797-5.733-4.117-9.066-4.711c-1.798-0.064-4.089-0.246-6.178-0.439c-1.86,0.013-3.738,0.104-5.6,0.175
	c0.31,1.241,0.778,2.527,1.361,3.85c0.789,0.059,1.409,0.516,0.783,1.344c-5.494,7.265-18.735,3.973-23.222-3.012
	c-2.354,1.077-4.711,2.156-7.045,3.281l-15.886,9.483c-2.019,1.761-3.708,3.824-4.653,6.402c-3.528,9.624-3.237,19.828-4.697,29.819
	c-0.036,0.248-0.317,0.438-0.688,0.576c0.192,0.486,0.417,0.955,0.684,1.398c0.402,0.039,0.693,0.202,0.671,0.541
	c-0.008,0.127-0.026,0.254-0.036,0.38c4.806,6.286,17.226,7.917,24.445,6.89c-0.105-0.146-0.145-0.338-0.078-0.585
	c1.651-6.156,2.986-12.392,4.637-18.548c0.35-1.304,3.322-1.628,2.94-0.203c-1.651,6.156-2.986,12.391-4.637,18.548
	c-0.071,0.266-0.254,0.487-0.492,0.665c0.6,0.298,0.442,1.021-0.797,1.271c-1.427,0.289-3.112,0.488-4.945,0.578
	c-1.001,5.321-4.292,11.588-3.402,17.02c0.718,4.382,3.96,7.194,6.378,10.703c4.333,6.288,8.681,15.808,15.676,19.53
	c0.165,0.088,0.266,0.186,0.317,0.288c0.574,0.005,1.083,0.226,1.17,0.681c1.782,0.432,3.598,0.723,5.435,0.85
	c3.174-0.221,7.956-0.652,11.56-1.076c0.739-0.235,1.454-0.491,2.129-0.772c4.34-1.809,8.865-4.004,12.107-5.64
	c0.191-0.135,0.39-0.263,0.579-0.4c2.746-2.013,12.591-9.633,6.54-11.369c0.152,0.528,0.293,1.06,0.469,1.583
	c0.291,0.865-2.587,1.701-2.897,0.777c-4.827-14.386-0.641-30.507-0.538-45.269c0.053-7.613-1.057-15.005-4.173-22.001
	c-2.983-6.696-6.795-12.977-9.78-19.674c-0.348-0.78,2.485-1.702,2.897-0.777c3.169,7.112,7.487,13.725,10.327,20.979
	c2.044,5.22,3.095,10.476,3.458,15.906c0.832-1.316,1.57-2.683,2.229-4.087l2.391-6.121c0.974-3.005,1.743-6.09,2.464-9.149
	c-0.032-0.152-0.02-0.318,0.063-0.488c0.019-0.038,0.053-0.06,0.074-0.095c0.064-0.275,0.129-0.55,0.193-0.824
	C469.97,205.917,469.884,205.874,469.828,205.808z M430.518,232.909c-2.721,0.608-6.755,0.411-7.719-2.85
	c-0.71-2.402,0.431-4.632,2.198-6.172c-1.404-0.209-2.663-0.869-3.104-2.363c-0.71-2.402,0.947-4.504,2.911-5.68
	c0.418-0.25,1.013-0.445,1.547-0.401c0.399-0.388,1.137-0.74,1.671-0.702c2.376,0.168,4.6,1.429,4.671,4.048
	c0.032,1.189-0.459,2.245-1.223,3.086c2.298,0.597,4.201,2.218,4.272,4.841C435.825,229.752,433.403,232.265,430.518,232.909z
	 M430.467,231.032c-1.949,0.873-4.257-0.012-4.86-2.053c-0.61-2.063,0.928-3.943,2.575-4.929c0.168-0.101,0.313-0.254,0.408-0.425
	c0.107-0.029,0.213-0.06,0.319-0.096c0.016,0.001,0.027,0.005,0.043,0.006C433.021,223.824,434.375,229.279,430.467,231.032z
	 M424.719,220.509c-0.458-1.548,0.618-3.051,1.881-3.807c0.123-0.074,0.252-0.186,0.356-0.311c2.884,0.267,4.042,4.524,1.188,5.804
	C426.699,222.843,425.137,221.923,424.719,220.509z M268.878,364.09c0.016,0.037,0.033,0.075,0.049,0.113l-0.242,0.161
	C268.75,364.272,268.815,364.183,268.878,364.09z M243.603,393.191c0.005,0.013,0.013,0.024,0.019,0.037l-0.035-0.029
	C243.592,393.196,243.598,393.194,243.603,393.191z M316.657,380.484c0.65,3.77,2.995,11.804,0.505,15.275
	c-0.114,0.159-0.13,0.282-0.086,0.379c-5.579,5.488-13.357,6.024-20.965,6.073c-6.662,0.043-15.45,0.871-21.403-2.742
	c0.143-9.203,1.636-18.438,0.242-27.605c-0.629-4.139-2.373-7.797-4.025-11.471c0.071-0.3-0.051-0.504-0.281-0.627
	c-1.858-4.17-3.511-8.396-3.194-13.402c0.034-0.529-2.839-0.153-2.897,0.775c-0.325,5.129,1.254,9.68,3.142,14.182
	c-5.641,10.846-22.5,17.078-24.027,29.82c-9.663-5.234-16.48-14.591-25.249-21.072c-1.569-1.159-3.17-2.274-4.707-3.477
	c-1.394-1.089-0.292-1.408,0.685-2.395c2.233-2.253,3.774-4.979,5.681-7.49c0.471-0.621,0.955-1.231,1.432-1.848
	c1.363,1.783,2.767,3.459,4.158,4.998c0.788,0.872,3.553-0.235,2.67-1.213c-1.676-1.855-3.38-3.921-5.012-6.13
	c0.991-1.26,1.994-2.511,3-3.758l5.115-6.251c5.163-6.229,10.399-12.397,15.464-18.701c8.014,11.311,21.988,15.79,35.427,16.151
	c8.839,0.237,21.853,0.185,29.178-6.255c-0.287,9.054-0.17,18.091,1.384,26.994C314.048,367.311,315.515,373.867,316.657,380.484z
	 M84.673,432.942c0.287-0.342,0.568-0.688,0.834-1.049l-0.173,0.371C85.136,432.487,84.91,432.714,84.673,432.942z M61.983,412.579
	c0.236-0.08,0.45-0.199,0.608-0.365c6.159-6.465,10.901,10.032,12.938,13.903c0.481,0.914,2.193,0.483,2.651-0.39
	c3.542-1.456,6.993-3.104,10.378-4.889c0.083,0.134,0.154,0.273,0.239,0.406c0.725,1.121,3.483,0.002,2.65-1.285
	c-0.109-0.169-0.2-0.347-0.305-0.518c0.752-0.476,0.28-0.68-0.408-0.693c-1.28-2.228-2.312-4.59-3.71-6.752
	c-0.086-0.134-0.203-0.233-0.338-0.307c0.517-0.663,1.059-1.29,1.638-1.869c3.958,1.69,5.705,6.502,6.985,10.285
	c0.04,0.116,0.142,0.192,0.278,0.242c-2.45,2.333-4.415,5.078-5.519,8.253c-0.044-0.587-0.132-1.173-0.266-1.753
	c-0.191-0.829-1.58-1.192-2.278-0.944c-0.341,0.12-0.645,0.231-0.923,0.471c-0.133,0.103-0.247,0.223-0.341,0.36
	c-0.097,0.128-0.151,0.201-0.188,0.254c-0.15,0.125-0.26,0.265-0.328,0.413c-0.29,0.134-0.516,0.302-0.597,0.5
	c-3.131,7.645-10.569,11.798-18.138,14.156c0.929-3.697,2.245-7.258,2.427-11.063l0.429-1.533c0.337,1.831,0.553,3.623,0.674,5.242
	c0.082,1.1,2.989,0.45,2.897-0.777C72.852,426.085,70.183,415.534,61.983,412.579z M100.01,463.405
	c-4.259,1.068-8.367,2.615-12.521,4.068c-1.839-0.748-4.128-1.805-6.165-2.012c0.437-0.64-0.479-1.094-1.378-1.049
	c-0.118-0.336-0.486-0.6-1.186-0.603c-6.343-0.031-12.678-0.413-19.021-0.443c-1.633-0.008-2.243,2.045-0.275,2.055
	c5.991,0.029,11.974,0.362,17.964,0.426c-6.01,4.666-9.339,10.975-9.913,18.58l-0.511,0.83c-0.137-0.015-0.271-0.031-0.41-0.046
	c-1.544-0.204-7.277-0.998-12.183-2.151c-2.596-0.951-4.902-2.393-6.569-4.719c-4.83-6.742,2.559-15.867,7.077-21.228
	c3.961,1.994,8.943,2.501,13.073,2.063c8.378-0.887,16.29-5.509,23.031-10.723C91.939,455.059,95.305,460.028,100.01,463.405z"></path>
<path id="color_x5F_1" d="M71.176,395.597c-0.616,0.458-1.403,0.516-2.077,0.18c-0.651-0.325-1.303-0.646-2.04-0.673
	c-0.616-0.021-1.179-0.583-0.879-1.201c0.337-0.695,1.186-0.907,1.888-0.883c1.182,0.041,2.233,0.58,3.269,1.097
	C72.003,394.449,71.599,395.282,71.176,395.597z M98.707,383.779c2.122-0.897,4.636-3.026,3.482-5.589
	c-0.541-1.2-3.402-0.342-2.897,0.777c0.714,1.586-0.426,2.668-1.826,3.259c-0.479,0.203-1.15,0.844-0.711,1.394
	C97.204,384.183,98.142,384.018,98.707,383.779z M86.184,391.172c-0.72-0.043-1.564,0.187-1.88,0.915
	c-0.276,0.639,0.253,1.285,0.912,1.325c0.036,0.002,0.199,0.03,0.194,0.021c0.141,0.042,0.28,0.088,0.419,0.134
	c0.372,0.124,0.763,0.265,1.156,0.288c0.72,0.043,1.564-0.188,1.88-0.915c0.276-0.639-0.253-1.285-0.912-1.325
	c-0.036-0.002-0.199-0.029-0.194-0.021c-0.141-0.042-0.28-0.087-0.419-0.134C86.968,391.336,86.577,391.195,86.184,391.172z
	 M99.853,374.34c0.545,0.496,1.305,0.493,1.96,0.185c0.399-0.188,1.246-0.94,0.699-1.438c-0.192-0.174-0.377-0.346-0.593-0.489
	c-0.056-0.035-0.111-0.07-0.167-0.105c-0.002-0.018-0.003-0.023-0.006-0.051c-0.075-0.707-1.247-0.684-1.703-0.562
	c-0.629,0.169-1.271,0.623-1.194,1.337C98.916,373.845,99.455,373.978,99.853,374.34z M83.25,378.948
	c0.764,0.392,1.159,0.797,1.563,1.583c0.318,0.618,1.493,0.399,1.959,0.181c0.585-0.274,1.025-0.8,0.701-1.431
	c-0.449-0.874-1.102-1.507-1.976-1.956c-0.66-0.339-1.472-0.241-2.073,0.193C82.998,377.826,82.595,378.611,83.25,378.948z
	 M150.044,435.452c0.178,7.431-1.024,15.237-5.375,21.462c-1.497,2.142-3.361,3.991-5.473,5.565
	c0.018,0.018,0.041,0.031,0.056,0.051c6.002,8.031-16.214,14.963-21.737,6.327c-5.592-0.157-11.075-1.535-15.606-4.207
	c-4.113,0.853-8.066,2.297-12.018,3.723c3.777,1.376,7.601,2.793,11.138,4.684c0.256,0.138,0.284,0.306,0.172,0.477
	c3.428,1.046,5.95,3.146,2.698,7.087c-3.817,4.625-10.311,8.767-16.49,8.767c-2.529-0.001-5.457-1.412-7.147-3.421
	c-3.561,1.234-7.313,1.318-11.062,1.32c-0.466,0-0.697-0.089-0.773-0.223c-0.436-0.029-0.806-0.199-0.938-0.547
	c-0.279,0.074-0.526,0.115-0.678,0.094c-6.258-0.896-16.885-0.541-21.043-6.346c-5.851-8.165,1.848-17.333,7.1-23.565
	c0.134-0.159,0.382-0.281,0.677-0.373c-2.286-1.464-4.101-3.517-4.977-6.316c-2.246-7.176-1.422-15.536,0.667-22.647
	c1.597-5.434,4.164-11.564,9.447-14.192c0.212-0.341,0.751-0.688,1.294-0.864c-0.222-0.243-0.227-0.587,0.174-1.008
	c2.405-2.523,4.529-3.314,6.418-2.988c0.021-0.048,0.043-0.097,0.082-0.151c1.467-2.106,1.923-4.065,1.726-6.504
	c-0.991,0.033-2.014-0.065-2.994-0.309c-2.272,3.681-6.137,5.669-10.692,4.878c-1.938-0.337-0.515-2.466,0.977-2.207
	c3.375,0.586,5.761-0.953,7.278-3.671c-1.185-0.733-2.104-1.79-2.513-3.207c-2.234,2.793-6.499,3.647-9.689,1.052
	c-0.894-0.727,1.813-1.885,2.678-1.182c3.087,2.512,5.508-0.494,5.611-3.675c0.011-0.336,0.303-0.621,0.699-0.814
	c-5.991-6.722-10.096-14.843-3.683-22.796c0.15-0.187,0.472-0.34,0.845-0.448c0.399-4.131,1.983-7.556,6.054-9.316
	c5.619-2.431,11.065-3.294,15.248-8.264c0.027-0.032,0.064-0.064,0.108-0.096c0.322-1.756,0.416-3.439,0.2-4.925
	c-0.203-1.395,2.702-2.122,2.897-0.775c0.401,2.757-0.058,5.976-1.118,9.171c14.198-5.021,30.351,8.072,32.078,22.556
	c0.601,5.04-0.109,9.902-2.316,14.161c3.021-1.087,5.807-2.774,8.663-4.225c0.015-0.008,0.03-0.012,0.045-0.019
	c-0.061-4.13-0.598-8.393,3.698-10.547c0.376-0.188,2.058-0.813,2.301-0.133c0.618,1.724,0.801,3.502,0.857,5.301
	c1.576-1.488,3.529-2.62,5.52-3.323c0.45-0.159,1.844-0.54,2.028,0.233c0.116,0.484,0.151,0.938,0.133,1.37
	c0.126-0.045,0.25-0.092,0.383-0.131c0.63-0.183,1.743-0.082,1.708,0.789c-0.036,0.926-0.257,1.786-0.58,2.606
	c0.617-0.116,1.242-0.198,1.887-0.225c0.261-0.01,0.85,0.108,0.891,0.457c0.178,1.497-0.274,2.803-1.035,3.959
	c3.605,3.297-6.072,9.93-8.6,11.069c-0.702,0.316-1.414,0.121-1.809-0.259c-5.358,4.547-10.936,8.832-16.269,13.407
	c8.583-2.914,17.568-2.832,25.729,1.586C143.887,418.193,149.812,425.777,150.044,435.452z M103.952,417.12
	c0.067,0.18,0.009,0.413-0.258,0.707c-3.163,3.482,1.609,3.573,4.142,2.904c3.584-0.945,7.714-3.401,6.496-7.703
	c0-0.001,0-0.002,0-0.002c-0.239,0.062-0.479,0.111-0.716,0.181C110.505,414.112,107.11,415.396,103.952,417.12z M108.653,394.1
	c-0.801,1.16-1.726,2.266-2.788,3.302c-4.767,4.649-11.17,6.915-16.103,11.097c0.27-0.047,0.507-0.054,0.656,0.003
	c4.115,1.568,6.077,5.94,7.465,9.89c1.887-1.46,3.949-2.723,6.069-3.793c6.828-6.226,14.275-11.717,21.259-17.763
	c0.492-0.426,1.72-0.515,2.338-0.271c1.995-1.299,6.15-4.432,6.764-6.188c-0.33,0.294-0.666,0.576-1,0.847
	c-0.551,0.446-1.34,0.704-2.049,0.549c-0.574-0.126-0.775-0.664-0.285-1.063c0.809-0.655,1.68-1.386,2.377-2.221
	c0.008-0.4,0.315-0.806,0.742-1.064c0.363-0.648,0.591-1.354,0.605-2.127c-0.281,0.063-0.556,0.143-0.826,0.243
	c-0.677,1.103-1.497,2.139-2.302,3.146c-0.762,0.954-3.53,0.668-2.397-0.75c1.103-1.38,2.211-2.779,2.815-4.394
	c-0.859,1.051-2.019,1.953-3.104,2.814c-0.558,0.442-1.334,0.706-2.049,0.549c-0.568-0.125-0.783-0.669-0.285-1.064
	c0.807-0.641,1.689-1.287,2.404-2.023c-0.146-0.261-0.053-0.598,0.474-0.97c0.181-0.127,0.355-0.255,0.527-0.382
	c0.237-0.463,0.385-0.967,0.406-1.523c-1.828,1.003-3.393,2.455-4.387,4.316c-0.428,0.801-2.957,1.111-2.792,0.157
	c-0.271-0.026-0.452-0.109-0.452-0.257c-0.002-1.982-0.015-3.955-0.426-5.876c-1.189,2.186-0.679,5.398-0.658,7.755
	c0.003,0.364-0.462,0.655-1.02,0.837c0.195,0.344,0.056,0.8-0.701,1.184c-3.599,1.827-7.071,3.926-10.993,5.001
	C108.833,394.089,108.749,394.086,108.653,394.1z M65.717,389.354c0.04-0.091,0.121-0.196,0.263-0.319
	c6.038-5.276,4.9-13.736-0.212-19.206c-0.247-0.265,0-0.578,0.432-0.83c0.113-0.205,0.337-0.403,0.721-0.566
	c4.582-1.942,8.73-7.929,10.62-13.818c-2.368,1.819-5.059,3.112-8.024,4.067c-5.954,1.918-9.398,3.886-9.793,10.664
	c-0.024,0.41-0.667,0.703-1.34,0.855c-5.513,7.325-1.686,14.66,3.693,20.813C63.033,390.153,64.296,389.595,65.717,389.354z
	 M68.165,408.876c4.574,2.426,7.615,11.24,9.859,15.643c3.375-1.43,6.66-3.043,9.887-4.781c-1.046-1.863-1.96-3.797-3.053-5.635
	c-1.02,0.607-2.994,0.431-2.309-0.732c6.943-11.779,24.922-13.137,26.87-28.319c1.854-14.458-13.37-34.825-29.275-27.759
	c-0.258,0.115-0.521,0.16-0.769,0.156c-2.222,5.178-5.937,9.946-10.142,12.187c4.952,6.027,5.216,14.317-0.97,19.722
	c-0.076,0.066-0.188,0.128-0.323,0.183c0.334,0.481-0.406,1.347-1.444,1.396c-2.898,0.139-4.11,2.944-3.069,5.504
	c0.316,0.778,0.747,1.407,1.252,1.919c0.93-0.201,1.981,0.154,1.654,1.11c1.064,0.444,2.297,0.57,3.627,0.372
	c0.329-0.049,1.208-0.023,1.265,0.467c0.353,2.986-0.135,5.489-1.862,7.968C69.163,408.562,68.678,408.771,68.165,408.876z
	 M70.605,456.593c8.517-2.19,15.92-7.114,22.535-12.774c0.272-0.232,0.616-0.347,0.958-0.369c0.666-0.456,1.174-0.966,1.554-1.588
	c-0.126,0.015-0.25,0.035-0.378,0.04c-0.489,0.021-1.42-0.094-1.302-0.811c0.058-0.348,0.336-0.621,0.673-0.809
	c0.079-0.094,0.173-0.19,0.307-0.293c1.183-0.912,2.088-2.064,2.798-3.344c-0.47,0.239-0.924,0.529-1.395,0.843
	c-0.163,0.108-0.359,0.194-0.565,0.266c-0.482,0.302-1.074,0.423-1.63,0.217c-0.602-0.224-0.882-0.952-0.389-1.452
	c1.146-1.162,2.359-2.457,2.941-3.995c-0.916,0.396-1.777,0.896-2.522,1.598c-0.939,0.885-2.748,0.218-2.326-0.841
	c-0.063-0.32,0.129-0.704,0.743-1.045c0.81-0.45,1.542-1.121,2.136-1.891c-1.777,0.691-3.456,1.64-4.574,3.199
	c-0.43,0.599-1.158,0.91-1.897,0.85c-0.259-0.021-0.602-0.161-0.803-0.376c-0.729-0.043-1.306-0.437-0.947-1.215
	c0.502-1.087,0.71-2.311,0.633-3.513c-0.488,0.919-1.042,1.784-1.647,2.604c-0.266,0.36-0.547,0.707-0.834,1.049
	c-4.729,5.641-12.14,8.854-19.168,10.789c-0.296,0.082-1.751,0.354-1.59-0.347c1.007-4.386,2.813-8.527,2.643-13.104
	c-0.035-0.951,2.872-1.471,2.897-0.777c0.019,0.503,0.004,0.999-0.019,1.492c-0.182,3.806-1.498,7.366-2.427,11.063
	c7.569-2.358,15.007-6.512,18.138-14.156c0.081-0.198,0.307-0.366,0.597-0.5c0.068-0.148,0.178-0.288,0.328-0.413
	c0.038-0.053,0.092-0.126,0.188-0.254c0.094-0.138,0.208-0.258,0.341-0.36c0.278-0.239,0.582-0.351,0.923-0.471
	c0.699-0.248,2.087,0.115,2.278,0.944c0.134,0.58,0.222,1.166,0.266,1.753c1.104-3.175,3.069-5.92,5.519-8.253
	c-0.136-0.05-0.238-0.126-0.278-0.242c-1.28-3.783-3.027-8.595-6.985-10.285c-0.579,0.579-1.122,1.206-1.638,1.869
	c0.135,0.073,0.251,0.173,0.338,0.307c1.398,2.162,2.43,4.524,3.71,6.752c0.688,0.014,1.161,0.218,0.408,0.693
	c0.105,0.171,0.196,0.349,0.305,0.518c0.833,1.287-1.925,2.406-2.65,1.285c-0.085-0.133-0.157-0.272-0.239-0.406
	c-3.385,1.785-6.835,3.433-10.378,4.889c-0.458,0.873-2.17,1.304-2.651,0.39c-2.038-3.871-6.78-20.368-12.938-13.903
	c-0.158,0.166-0.372,0.285-0.608,0.365c8.2,2.955,10.869,13.506,11.453,21.348c0.092,1.228-2.815,1.877-2.897,0.777
	c-0.121-1.619-0.337-3.411-0.674-5.242c-1.114-6.051-3.634-12.554-9.076-14.947c-0.012,0.004-0.022,0.01-0.034,0.014
	c-5.563,1.859-8.08,9.904-9.203,15.001c-1.271,5.771-2.082,12.301-0.547,18.105C53.23,456.054,62.791,458.604,70.605,456.593z
	 M67.004,485.258c0.156,0.018,0.312,0.035,0.466,0.053c0.014-0.295,0.023-0.592,0.045-0.883c0.574-7.605,3.903-13.914,9.913-18.58
	c-5.99-0.063-11.974-0.396-17.964-0.426c-1.967-0.01-1.357-2.063,0.275-2.055c6.343,0.03,12.678,0.412,19.021,0.443
	c0.7,0.003,1.068,0.267,1.186,0.603c0.899-0.045,1.815,0.409,1.378,1.049c2.036,0.207,4.326,1.264,6.165,2.012
	c4.154-1.453,8.261-3,12.521-4.068c-4.705-3.377-8.071-8.347-8.986-14.95c-6.741,5.214-14.652,9.836-23.031,10.723
	c-4.13,0.438-9.112-0.069-13.073-2.063c-4.518,5.36-11.907,14.485-7.077,21.228c1.667,2.326,3.973,3.768,6.569,4.719
	c3.785,1.386,8.19,1.72,12.183,2.151C66.732,485.227,66.867,485.243,67.004,485.258z M96.649,474.548
	c-4.081-0.065-9.272,1.457-12.54,3.898c-4.722,3.527-0.534,9.792,4.668,9.189c4.554-0.526,9.628-3.445,12.41-7.125
	c0.697-0.923,2.303-3.066,1.013-4.155C100.92,475.275,98.225,474.749,96.649,474.548z M86.949,469.415
	c-0.197,0.067-0.394,0.139-0.592,0.206c-1.235,0.42-1.77-0.279-1.375-0.925c-0.937-0.334-1.878-0.658-2.825-0.962
	c-0.783-0.251-1.567-0.513-2.365-0.714c-0.088-0.022-0.251-0.036-0.407-0.05c-5.955,4.665-8.83,11.071-9.025,18.769
	c3.038-0.002,6.193,0.064,9.089-0.965c-0.959-1.813-0.874-3.925,1.17-5.885c3.704-3.552,9.803-5.643,15.126-6.01
	c-2.604-1.176-5.304-2.176-7.964-3.161C87.505,469.616,87.226,469.517,86.949,469.415z M114.355,466.33
	c-6.017-4.481-9.202-12.282-10.751-19.462c-1.616-7.484-2.734-16.498,0.042-23.877c-1.146-0.042-2.262-0.283-3.155-0.905
	c-0.862-0.601-1.018-1.386-0.827-2.183c-3.17,2.442-5.702,5.498-6.868,9.263c1.338-0.605,2.753-1.077,4.167-1.489
	c0.714-0.208,2-0.004,1.609,1c-0.155,0.397-0.353,0.775-0.57,1.143c0.083-0.022,0.167-0.049,0.25-0.07
	c0.694-0.182,1.786,0.009,1.746,0.926c-0.061,1.391-0.593,2.655-1.339,3.808c0.441-0.1,0.895-0.167,1.367-0.184
	c0.642-0.022,1.536,0.151,1.191,0.984c-0.68,1.647-1.64,3.075-2.843,4.317c0.427,0.085,0.852,0.303,0.729,0.767
	c-0.498,1.87-1.594,3.171-3.179,4.243c-0.171,0.116-0.378,0.205-0.595,0.277c-0.07,0.09-0.153,0.18-0.261,0.272
	c-0.469,0.401-0.946,0.804-1.431,1.205c0.076,0.106,0.13,0.232,0.146,0.39c0.72,7.131,4.85,12.479,10.481,15.862
	c0.203,0.038,0.335,0.122,0.4,0.236C107.595,464.546,110.911,465.71,114.355,466.33z M136.841,464.063
	c-4.645,2.787-10.199,4.377-15.822,4.735C126.075,474.16,140.438,470.036,136.841,464.063z M139.637,459.177
	c-0.063-0.106-0.103-0.23-0.101-0.383c0.178-16.244-7.967-36.747-26.503-38.148c-0.089-0.007-0.163-0.021-0.237-0.033
	c-1.813,1.026-3.874,1.712-5.654,2.05c-0.167,0.032-0.345,0.061-0.521,0.091c-0.014,0.077-0.034,0.157-0.068,0.244
	c-2.762,6.97-1.729,16.01-0.051,23.095c1.855,7.837,5.258,16.959,13.205,20.399c0.239,0.104,0.396,0.229,0.498,0.365
	C127.554,466.854,134.815,464.371,139.637,459.177z M138.72,418.95c-6.039-4.764-13.81-7.467-21.45-6.492
	c0.669,2.653-0.349,4.801-2.113,6.445c17.848,2.02,26.488,20.229,27.239,36.692C149.459,444.527,149.44,427.405,138.72,418.95z
	 M284.649,232.672c0.702,0.218,1.539-0.039,2.049-0.549c0.167-0.167,0.333-0.333,0.5-0.5c0.471-0.471,0.263-1.103-0.346-1.291
	c-0.702-0.218-1.539,0.039-2.049,0.549c-0.167,0.167-0.333,0.333-0.5,0.5C283.833,231.852,284.041,232.483,284.649,232.672z
	 M257.864,230.914c-0.268,0.148-0.529,0.304-0.785,0.471c-0.029,0.021-0.058,0.04-0.087,0.061c0.091-1.759,0.454-3.53,1.393-5.036
	c0.391-0.628-0.339-1.135-0.878-1.196c-0.745-0.085-1.493,0.247-1.889,0.882c-1.147,1.841-1.552,4.132-1.583,6.272
	c-0.004,0.288,0.083,0.556,0.348,0.713c0.767,0.453,1.545,0.743,2.449,0.605c0.923-0.141,1.524-0.659,2.308-1.096
	C260.861,231.63,259.297,230.115,257.864,230.914z M265.052,226.14c0,0.667,0,1.334,0,2c0,0.446,2.897,0.037,2.897-0.775
	c0-0.667,0-1.334,0-2C267.95,224.918,265.052,225.327,265.052,226.14z M254.47,224.646c0-0.5,0-1,0-1.5
	c0-0.73-0.696-1.02-1.345-0.973c-0.578,0.042-1.593,0.46-1.593,1.184c0,0.5,0,1,0,1.5c0,0.73,0.696,1.02,1.345,0.973
	C253.455,225.788,254.47,225.37,254.47,224.646z M269.709,220.165c0.436-0.499,0.277-1.17-0.368-1.375
	c-1.558-0.496-3.083-0.578-4.707-0.578c-0.625-0.001-1.513,0.474-1.6,1.156c-0.097,0.755,0.78,0.924,1.333,0.924
	c1.135,0.001,2.206,0.075,3.293,0.422C268.353,220.935,269.227,220.718,269.709,220.165z M271.018,232.254
	c-0.744-0.073-1.478,0.249-1.894,0.864c-0.668,0.988-1.261,1.609-2.478,1.635c-0.61,0.013-1.511,0.451-1.608,1.127
	c-0.106,0.736,0.795,0.882,1.318,0.871c2.476-0.053,4.188-1.395,5.522-3.365C272.291,232.775,271.524,232.304,271.018,232.254z
	 M338.95,338.364c1.321,5.649,4.805,11.268,4.698,17.181c-0.104,5.697-3.723,8.997-8.539,11.434
	c-0.639,0.323-1.324,0.226-1.704-0.06c-0.593,0.476-1.528,0.425-2.016,0.069c-0.596,0.2-1.311,0.191-1.731-0.159
	c-3.787-3.156-3.269-8.3-3.133-12.808c-2.053,1.243-4.221,2.257-6.523,3.06c-0.268,0.093-2.044,0.616-1.93-0.074
	c0.75-4.537,3.966-8.227,5.5-12.5c0.083-0.229,0.409-0.418,0.813-0.552c-0.226-0.093-0.363-0.255-0.33-0.51
	c1.514-11.628-3.99-21.168-8.739-31.038c-0.173,5.634-0.471,11.274-0.677,16.911c0.063,0.18,0.068,0.388-0.023,0.628
	c-0.388,11.019-0.377,22.02,1.719,32.91c1.355,7.04,2.943,14.063,3.892,21.174c0.379,2.838,1.411,7.324,0.286,10.407
	c0.481,0.209,0.703,0.631,0.198,1.234c-4.44,5.302-10.417,7.386-16.795,8.18c6.001,7.227,9.145,16.837,11.284,25.825
	c2.25,9.454,3.723,19.221,3.509,28.964c1.639,4.987,3.845,9.862,5.134,14.956c0.528,2.086,1.571,5.418,0.147,7.419
	c-2.299,3.231-8.101,2.848-11.594,3.13c-7.085,0.574-14.217,0.9-21.326,0.713c-5.848-0.155-12.252-0.256-17.75-2.511
	c-0.172-0.07-0.319-0.145-0.253-0.358c3.598-11.673,21.276-10.332,26.163-21.201c-0.081-0.034-0.145-0.08-0.177-0.148
	c-4.886-10.317-9.567-20.668-13.827-31.258c-3.218-7.998-8.338-16.373-8.173-25.242c0.006-0.325,0.514-0.576,1.102-0.734
	c-2.055-0.501-4.009-1.235-5.771-2.322c-0.109-0.067-0.187-0.14-0.25-0.213c-0.201-0.037-0.333-0.11-0.331-0.23
	c0.105-9.338,2.773-20.324-0.123-29.407c-0.767-2.406-1.756-4.726-2.752-7.029c-0.016-0.038-0.033-0.076-0.049-0.113
	c-0.063,0.093-0.129,0.183-0.193,0.274c-3.031,4.332-7.338,7.809-11.186,11.334c-4.909,4.498-10.998,9.697-11.042,16.898
	c-0.006,0.98-2.393,1.531-2.835,0.632c-0.006-0.013-0.013-0.024-0.019-0.037c-0.005,0.003-0.011,0.005-0.017,0.008
	c-0.232,0.121-0.487,0.197-0.744,0.209c2.056,3.451,3.611,7.316,4.992,10.899c2.052,5.326,4.105,10.942,4.891,16.654
	c0.47-0.067,0.91-0.017,1.123,0.228c1.037,1.188,2.082,2.391,3.133,3.592c1.955,1.851,4.831,4.693,7.24,7.553
	c0.514,0.493,0.958,1.002,1.216,1.5c2.316,2.982,3.835,5.785,2.906,7.25c-1.897,2.992-18.861,10.917-18.861,10.917l-2.169,0.921
	c-3.477,2.008-7.076,3.768-10.564,5.3c-1.903,0.836-9.333,3.995-12.086,1.982l-1.078-0.001c0,0-0.054-0.772,0.067-1.876
	c-0.019-0.168-0.028-0.346-0.026-0.533c0.1-10.457,12.301-16.471,13.428-26.856c0.025-0.227,0.208-0.429,0.469-0.594
	c-10.888-15.979-41.962-40.307-24.725-60.847c-1.586-1.07-3.282-2.494-2.815-3.901c0.828-2.499,4.227-4.757,5.626-7.04
	c1.264-2.062,2.7-4.052,4.212-6.003c-5.2-7.362-9.412-16.19-9.277-24.658c0.018-1.144,2.94-1.673,2.918-0.285
	c-0.122,7.73,3.555,15.745,8.223,22.604c2.862-3.495,5.907-6.876,8.7-10.266c5.392-6.543,10.889-13.012,16.144-19.665
	c0.065-0.083,0.145-0.153,0.229-0.218c3.151-3.973,5.015-8.49,6.589-13.152c-6.808,3.672-18.02,1.531-24.558,0.813
	c-8.335-0.918-15.39-0.668-23.673,1.3c-2.073,0.492-4.148,0.979-6.23,1.376c1.135,12.495,4.921,24.695,12.44,33.699
	c0.986,1.181-1.757,2.369-2.646,1.305c-7.684-9.202-11.571-21.716-12.735-34.515c-3.682,0.521-7.388,0.644-11.138-0.095
	c-0.351-0.069-0.004-0.334,0.531-0.586c-2.209,0.161-4.43-0.077-6.524-0.887c-0.891-0.345,1.723-1.394,2.376-1.141
	c3.257,1.259,6.598,1.019,9.806-0.276c1.11-0.448,2.922-0.078,1.012,0.693c-1.311,0.529-2.69,0.943-4.093,1.234
	c2.661,0.446,5.309,0.463,7.953,0.225c-0.277-3.398-0.361-6.812-0.277-10.185c-0.178-0.004-0.335-0.034-0.448-0.106
	c-4.8-3.06-9.47-0.577-14.396,0.117c-0.141,0.284-0.457,0.555-1.021,0.7c-1.648,0.425-2.913,1.476-3.568,3.001
	c1.835,0.283,3.546-0.641,5.263-1.328c1.557-0.624,3.094-1.138,4.752-1.41c1.985-0.327,1.119,1.57-0.341,1.811
	c-2.378,0.392-4.611,1.645-6.907,2.353c-0.092,0.575-0.298,1.034-0.415,1.606c-0.11,0.54,3.536,0.119,3.735,0.075
	c2.326-0.516,4.533-1.436,6.753-2.277c1.106-0.419,2.938-0.056,1.007,0.676c-4.532,1.718-9.262,3.713-14.193,2.729
	c-0.194-0.039-0.278-0.126-0.24-0.313c0.133-0.65,0.4-1.179,0.481-1.865c0.005-0.046,0.022-0.089,0.042-0.132
	c-0.8,0.013-1.617-0.099-2.459-0.393c-0.28-0.098-0.712-0.324-0.59-0.71c0.641-2.02,2.008-3.504,3.745-4.481
	c-0.071-0.011-0.142-0.013-0.213-0.024c-0.097-0.016-0.538-0.058-0.524-0.26c0.219-3.275,2.076-4.581,5.044-5.343
	c0.036-0.241,0.27-0.501,0.808-0.73c4.483-1.908,9.362-2.571,14.315-2.704c0.422-3.646,1.032-7.18,1.81-10.515
	c0.313-1.344,3.288-1.667,2.943-0.191c-0.79,3.385-1.406,6.974-1.828,10.678c4.562,0.045,9.134,0.424,13.472,0.594
	c11.406,0.447,27.398,1.754,34.023-9.754c0.116-0.201,0.351-0.365,0.635-0.489c-0.272-0.504-0.521-1.017-0.722-1.545
	c-0.048-0.127-0.058-0.247-0.05-0.363c-0.126-0.059-0.199-0.146-0.182-0.275c1.647-12.33,13.705-23.649,24.34-28.961
	c0.112-0.056,0.278-0.104,0.465-0.144c-3.128-3.225-7.156-5.05-12.199-6.115c-3.876-0.819-7.632-2.188-9.259-6.151
	c-3.733-9.091-1.004-20.034-0.887-29.526c0.002-0.152,0.045-0.291,0.113-0.418c-3.955-2.704-6.842-6.624-7.592-11.796
	c-0.058-0.396,0.28-0.735,0.741-0.964c-0.015-0.966,1.754-1.795,2.566-1.041c3.167,2.94,6.954,4.075,10.966,4.116
	c-2.82-2.166-4.871-5.449-6.273-8.611c-0.217-0.488,0.771-1.022,1.661-1.145c0.487-0.146,0.975-0.209,1.217-0.098
	c5.224,2.402,10.934,3.303,16.67,3.102c4.283-0.15,8.21-1.911,12.443-2.161c5.89-0.349,7.432,2.896,9.943,7.104
	c0.118-0.036,0.24-0.064,0.374-0.075c12.174-1.001,20.614,9.588,18.365,21.546c-2.259,12.009-14.581,17.071-18.332,28.046
	c0.12-0.013,0.241-0.018,0.361-0.002c19.525,2.604,31.195,22.132,37.835,38.883c0.437-0.006,0.7,0.077,0.47,0.293
	c-0.102,0.096-0.208,0.181-0.31,0.274c-0.006,0.525-0.591,0.935-1.25,1.079c-0.627,0.509-1.269,0.979-1.92,1.422
	c0.047,0.062,0.088,0.13,0.12,0.207c6.625,15.973,7.915,33.229,11.482,49.986C338.691,337.938,338.888,338.101,338.95,338.364z
	 M275.597,208.304c0.963-0.529,3.522-0.046,1.808,0.896c-0.098,0.054-0.203,0.102-0.302,0.153c0.455,0.008,0.815,0.161,0.847,0.511
	c0.519,5.787,2.209,11.074,6.015,15.373c2.215-2.179,5.718-2.717,8.199,0.107c4.384,4.989-2.143,8.852-6.585,10.394
	c0.914,2.841,2.5,5.327,3.95,7.899c3.596-7.911,11.891-12.214,15.629-20.085c5.2-10.947,0.184-26.313-13.765-25.165
	c-0.32,0.026-0.568-0.018-0.763-0.101c-0.655,0.187-1.349,0.218-1.578-0.147c-1.59-2.537-2.725-6.649-5.996-7.473
	c-4.313-1.084-8.021,1.495-12.163,1.742c-6.01,0.359-11.998,0.121-17.675-1.731c1.501,2.8,3.575,5.516,6.297,7.043
	c0.199-0.028,0.398-0.055,0.598-0.088c1.953-0.322,1.394,1.972-0.226,2.238c-5.297,0.872-10.719,0.403-15.168-2.456
	C248.316,209.108,265.301,213.962,275.597,208.304z M277.76,254.494c0.342-0.149,0.68-0.266,0.878-0.289
	c4.138-0.493,8.286-2.839,9.694-6.867c-0.132-0.036-0.233-0.099-0.28-0.198c-1.739-3.742-4.316-7.003-5.5-11
	c-0.126-0.425,1.106-0.763,1.333-0.821c3.549-0.921,8.715-4.015,5.968-8.363c-0.66-1.045-1.742-2.164-3.043-2.343
	c-0.59-0.08-1.122,1.033-1.479,2.048c0.004,0.004,0.007,0.008,0.011,0.012c0.319,0.302,0.111,0.65-0.307,0.925
	c-0.044,0.155-0.08,0.291-0.106,0.396c-0.18,0.711-3.007,1.115-2.856,0.518c0.083-0.326,0.194-0.64,0.32-0.944
	c-4.693-4.581-6.76-10.456-7.34-16.927c-0.012-0.129,0.019-0.25,0.074-0.363c-7.022,2.839-16.344,2.545-23.455-0.965
	c-0.067,2.174-0.199,4.345-0.352,6.515c0.335-0.363,0.894-0.592,1.322-0.592c0.333,0,0.667,0,1,0c0.535,0,1.427,0.146,1.325,0.896
	c-0.092,0.674-0.989,1.14-1.605,1.14c-0.333,0-0.667,0-1,0c-0.346,0-0.837-0.063-1.117-0.31c-0.143,2.068-0.276,4.138-0.319,6.211
	c-0.094,4.508-0.632,11.132,2.4,14.934c3.665,4.595,10.966,3.599,15.839,6.596C273.164,247.161,275.71,250.348,277.76,254.494z
	 M195.672,297.585c0.078-1.623,0.191-3.235,0.344-4.828c-4.424,0.042-8.883,0.463-12.919,2.181
	c-0.294,0.125-0.601,0.166-0.885,0.151c-0.158,0.071-0.345,0.137-0.57,0.191c-2.98,0.716-3.742,4.168,0.103,3.425
	c1.186-0.229,2.322-0.554,3.479-0.886c1.415-0.405,2.823-0.756,4.274-0.998C191.706,296.452,193.742,296.77,195.672,297.585z
	 M254.089,304.643c0.933-2.905,1.819-5.839,2.896-8.708c0.688-1.834,1.398-3.667,2.108-5.502c-3.935-1.301-7.987-3.907-10.565-7.309
	c-5.75,8.389-16.601,10.108-26.228,10.279c-6.782,0.12-13.542-0.378-20.317-0.555c-1.002-0.026-2.018-0.054-3.04-0.072
	c-0.518,5.51-0.592,11.239-0.121,16.922c8.512-1.3,17-4.542,25.713-3.766c4.531,0.403,9.037,1.062,13.577,1.361
	c4.639,0.307,12.184,1.424,15.583-2.414C253.769,304.796,253.911,304.716,254.089,304.643z M252.649,424.676
	c0.111-0.105,0.208-0.197,0.312-0.295c-0.039-0.045-0.078-0.089-0.117-0.134C252.782,424.393,252.716,424.534,252.649,424.676z
	 M237.27,438.163c0.712-1.034,1.235-2.183,1.617-3.279C238.443,436.032,237.89,437.116,237.27,438.163z M245.414,406.323
	c-0.114-0.295-0.231-0.598-0.346-0.896c-5.678,4.433-12.498,5.758-19.684,5.955c5.855,7.036,12.009,13.53,15.522,18.918
	c0.474-0.201,1.01-0.283,1.506-0.244c0.286,0.022,0.563,0.02,0.838,0.007c0.611-0.098,1.261-0.225,1.922-0.396
	c2.254-0.843,3.953-2.895,4.889-5.198c0.047-0.116,0.145-0.223,0.272-0.318c-0.156-0.115-0.262-0.28-0.281-0.51
	C249.551,417.731,247.533,411.823,245.414,406.323z M236.675,389.892c-0.073-0.078-0.12-0.156-0.155-0.234
	c-7.629-5.636-13.908-13.204-21.584-18.777c-0.123-0.089-0.285-0.195-0.465-0.311c-9.345,12.689-0.421,26.996,9.974,39.675
	c0.249-0.089,0.487-0.147,0.665-0.149c7.086-0.053,13.698-0.972,19.069-6.027c0.067-0.063,0.169-0.123,0.293-0.178
	C242.529,398.925,240.289,393.758,236.675,389.892z M267.694,361.321c-1.887-4.502-3.467-9.053-3.142-14.182
	c0.059-0.929,2.931-1.305,2.897-0.775c-0.317,5.006,1.335,9.232,3.194,13.402c0.23,0.123,0.352,0.327,0.281,0.627
	c1.653,3.674,3.396,7.332,4.025,11.471c1.395,9.167-0.099,18.402-0.242,27.605c5.953,3.613,14.741,2.785,21.403,2.742
	c7.608-0.049,15.386-0.585,20.965-6.073c-0.044-0.097-0.028-0.22,0.086-0.379c2.49-3.472,0.146-11.506-0.505-15.275
	c-1.142-6.617-2.609-13.174-3.764-19.788c-1.555-8.903-1.671-17.94-1.384-26.994c-7.326,6.439-20.339,6.492-29.178,6.255
	c-13.439-0.361-27.414-4.841-35.427-16.151c-5.065,6.304-10.302,12.473-15.464,18.701c-1.719,2.072-3.424,4.156-5.115,6.251
	c-1.006,1.247-2.009,2.498-3,3.758c1.632,2.209,3.336,4.274,5.012,6.13c0.883,0.978-1.882,2.085-2.67,1.213
	c-1.391-1.539-2.794-3.215-4.158-4.998c-0.477,0.616-0.96,1.227-1.432,1.848c-1.907,2.511-3.448,5.237-5.681,7.49
	c-0.977,0.986-2.078,1.306-0.685,2.395c1.537,1.202,3.138,2.317,4.707,3.477c8.769,6.481,15.586,15.838,25.249,21.072
	C245.193,378.399,262.053,372.167,267.694,361.321z M313.557,436.027c-5.411,5.431-14.084,6.5-21.008,3.401
	c2.879,6.646,5.975,13.2,9.075,19.746c0.519-0.019,0.907,0.082,0.812,0.34c-0.012,0.033-0.029,0.063-0.042,0.097
	c3.764,1.775,10.795,2.78,13.237-0.972c0.044-0.067,0.102-0.129,0.167-0.188C315.918,450.977,315.061,443.396,313.557,436.027z
	 M300.545,404.16c-1.56,0.096-3.129,0.141-4.697,0.151c-4.934,0.034-10.657,0.393-15.891-0.53
	c0.001,8.796,5.126,16.829,8.166,24.824c1.077,2.833,2.217,5.64,3.397,8.429c0.45-0.123,0.874-0.162,1.098-0.014
	c6.225,4.114,14.548,4.36,19.456-2.002c0.193-0.25,0.663-0.414,1.168-0.511c-0.295-1.36-0.605-2.714-0.941-4.056
	c-2.292-9.16-5.309-18.869-11.639-26.104C300.609,404.286,300.571,404.224,300.545,404.16z M312.551,306.248
	c-1.5-3.69-2.68-7.494-3.173-11.523c-1.124,0.347-2.252,0.703-3.381,1.086c-0.956,0.324-2.514,0.114-1.539-0.394
	c-0.012-0.017-0.029-0.03-0.04-0.049c-4.749-8.206-10.494-17.795-10.879-27.483c-0.047-1.178,2.867-1.704,2.924-0.266
	c0.369,9.272,6.099,18.703,10.621,26.517c0.069,0.12,0.098,0.237,0.106,0.352c0.727-0.228,1.454-0.449,2.179-0.666
	c0.343-0.692,1.958-1.094,2.583-0.775c4.279-1.295,8.444-2.695,12.194-5.146c0.172-0.243,0.471-0.437,0.819-0.557
	c0.72-0.51,1.421-1.069,2.105-1.672c-0.005-0.011-0.013-0.02-0.018-0.031c-6.245-15.854-17.437-35.359-36.055-37.842
	c-0.081-0.011-0.146-0.029-0.215-0.045c-2.19,4.576-7.927,6.757-12.761,7.454c-0.02,1.031-2.406,1.605-2.969,0.433
	c-0.919-1.912-1.983-3.535-3.187-4.93c-10.096,5.207-21.115,16.144-22.681,27.771c0.112,0.102,0.206,0.227,0.265,0.383
	c1.57,4.135,6.199,7.742,10.511,9.309c2.475-6.449,4.832-12.957,6.09-19.747c0.189-1.02,3.116-1.505,2.901-0.348
	c-1.353,7.305-4.07,14.142-6.694,21.027c0.362,0.5,0.018,1.207-0.593,1.565c-0.805,2.133-1.591,4.273-2.314,6.438
	c-2.681,8.029-4.586,16.457-9.996,23.188c-0.033,0.042-0.077,0.081-0.123,0.118c0.053,0.225-0.009,0.494-0.256,0.807
	c-0.083,0.104-0.167,0.207-0.25,0.312c0.136,0.076,0.256,0.178,0.348,0.313c7.622,11.342,21.357,15.684,34.524,15.893
	c8.864,0.141,22.418,0.223,28.058-7.949C311.986,321.917,312.51,314.044,312.551,306.248z M337.447,343.831
	c-0.433-0.052-0.792-0.266-0.895-0.691c-4.356-17.952-5.27-36.669-12.274-53.923c-3.769,2.063-7.838,3.36-12.016,4.63
	c0.468,3.934,1.583,7.649,3.009,11.254c0.109,0.062,0.179,0.146,0.179,0.264c0,0.06-0.002,0.119-0.002,0.18
	c4.959,12.287,13.345,23.339,11.5,37.515c-0.037,0.286-0.338,0.534-0.731,0.711c0.164,0.043,0.254,0.116,0.214,0.228
	c-1.432,3.988-4.327,7.467-5.316,11.603c1.979-0.853,3.842-1.907,5.576-3.238c0.122-0.094,0.353-0.18,0.626-0.252
	c0.443-0.194,0.994-0.286,1.427-0.214c0.504-0.02,0.83,0.047,0.569,0.247c-0.006,0.005-0.013,0.009-0.02,0.014
	c0.1,0.108,0.161,0.246,0.16,0.425c-0.037,3.863-0.726,8.418,1.572,11.661c1.728-3.364,1.063-7.639,1.024-11.319
	c-0.01-0.994,2.89-1.607,2.903-0.342c0.033,3.165,0.347,6.379-0.374,9.319c1.112-1.866,1.905-3.937,2.457-6.028
	c0.325-1.232,3.288-1.593,2.931-0.24c-0.85,3.221-2.16,6.225-4.174,8.78C343.382,359.277,340.016,351.429,337.447,343.831z
	 M412.393,155.074c-0.93-0.581-2.029-0.677-3.097-0.69c-0.631-0.008-1.514,0.486-1.597,1.169c-0.093,0.764,0.775,0.938,1.338,0.946
	c1.098,0.014,1.783,0.589,2.158,1.648c0.466,1.317,3.353,0.509,2.897-0.777C413.761,156.432,413.252,155.61,412.393,155.074z
	 M442.081,152.456c1.332-0.006,2.454-0.232,3.668-0.785c0.482-0.219,0.914-0.695,0.804-1.256c-0.677-3.461-2.921-5.946-5.339-8.367
	c-0.939-0.94-3.679,0.255-2.651,1.283c2.06,2.063,4.008,4.13,4.847,6.916c-0.338,0.051-0.683,0.061-1.078,0.063
	C440.666,150.317,440.114,152.467,442.081,152.456z M427.101,158.888c2.295,0.532,4.66,0.627,6.956,1.159
	c0.634,0.146,1.454-0.118,2.023-0.38c0.229-0.105,1.002-0.57,0.365-0.718c-2.295-0.531-4.66-0.626-6.956-1.159
	c-0.634-0.146-1.454,0.118-2.023,0.38C427.236,158.275,426.463,158.739,427.101,158.888z M425.401,147.443
	c2.336,1.431,5.162,1.196,7.722,0.598c0.408-0.096,1.416-0.512,1.257-1.103c-0.163-0.609-1.232-0.423-1.64-0.327
	c-1.762,0.412-3.453,0.405-5.03-0.561C426.913,145.563,424.231,146.727,425.401,147.443z M428.198,141.354
	c0.169-0.056,0.339-0.111,0.508-0.168c0.025-0.009,0.035-0.012,0.053-0.018c0.022-0.007,0.044-0.014,0.086-0.027
	c0.082-0.025,0.164-0.05,0.247-0.072c0.007-0.002,0.009-0.003,0.016-0.005c0.603-0.062,1.298-0.257,1.68-0.723
	c0.428-0.522-0.364-0.71-0.743-0.692c-0.567,0.025-1.114,0.145-1.653,0.316c-0.17,0.056-0.339,0.111-0.509,0.168
	c-0.03,0.01-0.042,0.014-0.062,0.021c-0.021,0.007-0.04,0.013-0.076,0.024c-0.082,0.025-0.164,0.05-0.247,0.072
	c-0.007,0.002-0.009,0.003-0.016,0.005c-0.603,0.062-1.298,0.257-1.68,0.723c-0.428,0.522,0.364,0.71,0.743,0.692
	C427.112,141.646,427.659,141.526,428.198,141.354z M524.534,425.71c5.829,0.854,11.391,3.457,15.844,8.032
	c0.109,0.034,0.201,0.084,0.259,0.157c9.832,12.273,11.17,31.349-2.656,41.347c-0.422,0.305-0.861,0.589-1.3,0.874
	c-3.657,3.357-8.18,4.736-13.394,5.135c-6.379,1.037-13.029,0.328-18.765-2.56c-14.561-7.332-20.428-26.795-10.325-40.351
	c1.065-1.43,2.246-2.748,3.516-3.957c-0.08-0.27,0.039-0.594,0.495-0.939c0.766-0.579,1.574-1.061,2.4-1.499
	c0.757-0.567,1.533-1.106,2.333-1.604c2.958-2.042,6.325-3.432,10.004-4.151c0.133-0.026,0.266-0.039,0.398-0.063
	c1.491-0.325,2.999-0.541,4.512-0.652c-2.412-0.106-4.822-0.227-7.233-0.348c-4.119-0.207-9.544,0.256-13.341-1.671
	c-8.946-4.539-2.317-17.349-2.044-24.768c0.018-0.487,0.766-0.838,1.498-0.985c0.421-2.84-0.258-6.522-0.327-9.116
	c-0.165-6.221-0.375-12.44-0.567-18.66c-0.443-14.324-1.26-28.821,2.608-42.687c-7.452-0.808-15.523-0.69-23.405-1.313h-0.71
	l-0.27-0.075c-5.864-0.514-11.599-1.488-16.862-3.628l-1.162,2.406c-3.991,10.286-8.851,20.307-11.241,31.122
	c-0.041,0.183-0.228,0.347-0.483,0.483c0.076,0.215,0.003,0.479-0.31,0.787c-1.158,1.137-2.39,2.085-3.675,2.886
	c0,0.054-0.006,0.11-0.025,0.174c-9.157,29.431-9.136,60.748-9.129,91.307c0.076,0.056,0.144,0.12,0.193,0.203
	c7.435,12.652,29.517,4.048,36.94,16.563c0.45,0.042,0.818,0.257,0.89,0.704c0.923,5.733-6.37,8.333-10.702,9.559
	c-7.953,2.248-16.325,3.114-24.556,3.57c-5.9,0.328-16.067,2.137-20.831-2.002c-7.574-6.58-2.505-18.048-1.968-26.449
	c-4.933-18.438-9.281-37.713-7.81-56.921c0.949-12.378,3.948-24.415,4.066-36.878c-1.063-0.333-2.105-0.671-3.119-1.006
	c-0.853-0.282-0.788-0.866-0.352-1.345c-0.592,0.081-1.11,0.019-1.127-0.253c-1.224-18.576-0.889-37.223-0.88-55.826
	c0-0.255,0.227-0.473,0.549-0.645c-0.123-0.097-0.248-0.195-0.368-0.29c-5.966-4.742-11.36-10.247-16.297-16.044
	c-4.376-5.137-9.644-10.888-10.139-17.973c-0.69-9.871,3.886-18.996,4.74-28.713c-0.763-1.062-1.337-2.247-1.669-3.572
	c-0.122-0.485,0.553-0.918,1.283-1.109c1.189-9.903,0.526-21.169,5.286-30.113c2.696-5.068,8.467-8.327,13.326-11
	c5.19-2.855,10.555-5.338,15.933-7.811c-0.023-0.191,0.021-0.374,0.125-0.538c-0.959-3.425-0.05-7.84-0.377-11.691
	c-0.659,0.301-1.507,0.552-1.879,0.331c-15.089-8.939-34.222-16.677-30.799-37.762c0.097-0.598,2.397-1.308,2.819-0.864
	c0.75,0.788,1.62,1.253,2.511,1.702c5.706-12.115,20.285-14.104,29.921-22.226c0.749-0.632,2.937-0.506,2.368,0.907
	c-0.566,1.406-1.15,2.781-1.797,4.122c7.354-3.094,14.97-5.749,20.666-11.594c0.441-0.453,2.431-1.135,2.633-0.067
	c0.978,5.162,0.57,10.136-2.771,14.137c4.373-0.181,8.311-1.682,12.374-3.215c0.362-0.137,0.773-0.169,1.123-0.131
	c0.92-0.146,1.851,0.012,1.348,0.645c-5.176,6.517-12.65,10.744-20.814,11.638c0.059,0.108,0.087,0.231,0.06,0.366
	c-1.08,5.229-5.86,6.537-10.547,6.832c1.961,6.023,0.033,12.266-2.873,17.768c-0.103,0.194-0.291,0.356-0.523,0.481
	c-0.29,1.133-2.645,1.61-2.879,0.364c-0.392-2.08-1.28-5.354-3.939-5.553c-1.889-0.141-3.801,1.017-4.542,2.792
	c-1.863,4.463,1.109,8.441,5.042,10.24c3.458,1.581,4.95,5.5,5.48,9.046c0.539,3.605-0.708,7.959,0.406,11.34
	c0.069,0.208,0.05,0.4-0.019,0.576c3.281,4.898,12.444,8.698,17.2,4.426c-0.793-1.682-1.521-3.529-1.965-5.41
	c-0.229-0.078-0.229-0.223-0.094-0.388c-0.75-3.501-0.451-7.074,2.37-9.837c3.644-3.568,8.509-5.025,12.639-7.866
	c2.213-1.521,5.107-3.926,5.191-6.898c0.106-3.778-2.197-7.369-4.23-10.39c-2.235-3.32-4.892-6.484-7.313-9.777
	c-0.475,0.334-1.022,0.545-1.449,0.939c-0.469,0.434-1.337,0.603-1.946,0.668c-0.241,0.026-1.128,0.051-0.66-0.383
	c0.523-0.484,1.224-0.682,1.739-1.159c0.452-0.42,1.274-0.588,1.877-0.659c-1.659-2.298-3.185-4.667-4.342-7.211
	c-0.565-1.242,2.306-2.077,2.897-0.775c3.955,8.693,23.161,23.533,13.859,33.817c-3.387,3.744-8.058,5.446-12.302,7.971
	c-4.743,2.821-6.047,6.464-5.363,10.649c6.737-0.234,15.643-1.637,21.2,2.804c6.441,5.147,9.776,13.356,14.877,19.727
	c0.758-0.125,1.479,0.023,1.347,0.592c-0.12,0.516-0.24,1.033-0.361,1.551c2.581,0.294,4.96,1.298,7.044,2.807
	c1.255-2.577,2.907-5.016,4.569-7.339c5.17-7.228,11.121-14.307,13.02-23.205c-0.292-4.251-1.508-8.406-1.898-12.651
	c-0.246-2.68-0.758-6.879,1.649-8.841c4.325-3.525,7.086,0.893,8.515,5.23c2.003-6.891,3.822-17.938,11.145-16.556
	c4.225,0.797,3.513,5.613,1.764,10.407c0.177,0.025,0.343,0.082,0.485,0.177c1.965,1.313,2.877,3.129,3.065,5.091
	c0.245,0.013,0.473,0.077,0.654,0.213c1.156,0.867,1.782,2,2.043,3.245c0.353-0.055,0.663-0.04,0.83,0.097
	c2.987,2.439,2.956,6.302,1.361,9.456c0.025,0.093,0.002,0.208-0.094,0.352c-0.19,0.284-0.404,0.552-0.607,0.827
	c-0.177,0.241-0.345,0.487-0.53,0.723c-0.045,0.056-0.088,0.113-0.134,0.168c-0.063,0.08-0.133,0.155-0.197,0.234
	c-2.901,3.551-6.612,6.588-8.799,10.546c-2.418,4.379-4.197,9.174-6.108,13.788c-3.792,9.149-7.407,18.377-11.309,27.48
	c-2.812,6.561-6.34,12.163-14.245,11.83c-8.106-0.341-15.293-6.56-22.292-10.514c0.024,1.078,0.03,2.163,0.007,3.259
	c-0.284,13.277-3.561,27.659-0.312,40.792c0.149-0.033,0.277-0.051,0.365-0.045c3.89,0.278,5.055,1.58,4.744,3.289
	c16.236-0.775,31.28,4.305,46.485,9.39c0.424,0.142,0.341,0.4,0.027,0.657c7.828,1.672,17.478,4.453,22.271,11.259
	c5.432,7.71,2.294,18.076,0.128,26.477c-5.861,22.729-16.87,44.843-18.561,68.485c0.529-0.012,0.985,0.181,1.059,0.652
	c0.906,5.752,11.129,8.937,15.577,10.861c5.144,2.227,11.07,4.175,15.4,7.851c0.258,0.22,0.343,0.45,0.319,0.672
	c0.287,0.027,0.509,0.124,0.583,0.321C555.435,425.752,533.562,425.916,524.534,425.71z M522.105,361.293
	c-7.881-0.019-15.76-0.166-23.641-0.192c0.101,3.464,0.238,6.928,0.347,10.377c0.194,6.123,0.406,12.247,0.545,18.372
	c0.05,2.208,0.625,5.415,0.22,7.84c0.655-0.154,1.314-0.139,1.457,0.228c2.53,6.468,11.597,4.11,13.344-1.701
	c0.083-0.274,0.464-0.499,0.923-0.651c-0.227-0.105-0.372-0.284-0.356-0.562C515.581,383.465,518.557,372.312,522.105,361.293z
	 M466.983,278.511c-0.237,0.422-0.528,0.855-0.863,1.293c1.052-0.39,2.83-0.939,5.256-1.331
	C469.922,278.437,468.457,278.452,466.983,278.511z M424.035,295.156c-0.113,0.253-0.23,0.502-0.348,0.751
	c1.021-0.028,2.559-0.091,4.384-0.229C426.71,295.58,425.363,295.403,424.035,295.156z M522.076,173.786
	c-0.7,0.87-1.551,1.618-2.457,2.167c0.138,0.681,0.336,1.488,0.869,1.945c0.169,0.146,0.366,0.33,0.592,0.384
	c0.025,0.006,0.031,0.014,0.048,0.02c0.339-0.216,0.659-0.465,0.961-0.736c0.721-0.878,1.416-1.787,2.072-2.746
	c0.004-0.008,0.009-0.015,0.013-0.022c1.098-2.172,1.498-4.592,0.643-6.657C524.347,170.248,523.254,172.322,522.076,173.786z
	 M516.727,172.104c-0.359,0.258-0.74,0.511-1.132,0.743c0.058,0.073,0.109,0.152,0.146,0.246c0.376,0.964,1.066,2.314,2.211,1.493
	c1.182-0.849,2.11-2.044,2.775-3.333c0.929-1.801,1.888-4.505,1.123-6.539C521.021,167.642,519.017,170.46,516.727,172.104z
	 M517.678,158.409c-1.314,3.076-2.785,5.838-3.295,7.121c-0.064,0.161-0.178,0.3-0.32,0.418c-0.009,0.074-0.021,0.151-0.047,0.235
	c-0.453,1.456-1.716,2.836-1.833,4.379c-0.226,2.967,3.74-0.756,4.359-1.53C518.935,166.034,520.831,161.302,517.678,158.409z
	 M507.255,165.865c0.135,0.015,0.255,0.046,0.351,0.103c1.125,0.67,1.799,1.693,2.182,2.874c0.535-1.159,1.216-2.272,1.449-3.021
	c0.063-0.201,0.192-0.366,0.356-0.502c0.01-0.032,0.013-0.062,0.026-0.095c1.137-2.863,8.466-15.186,4.506-17.452
	C512.544,145.722,508.747,162.61,507.255,165.865z M472.34,208.245c-1.609,6.663-3.548,13.363-7.338,19.104
	c-0.134,0.203-0.424,0.371-0.769,0.49c6.911,3.786,15.061,11.238,23.028,10.853c7.69-0.372,11.047-14.387,13.428-20.216
	c3.407-8.338,6.739-16.712,10.328-24.974c1.388-3.195,2.694-6.599,5.05-9.232c1.483-1.659,2.993-3.229,4.44-4.856
	c-1.666,0.222-3.167-0.405-3.731-2.531c-1.581,0.05-3.043-0.779-3.915-2.973c-0.94,0.133-1.87-0.03-2.717-0.673
	c-0.091,1.043-0.265,2.051-0.454,2.926c-0.186,0.859-3.078,1.342-2.88,0.428c0.581-2.685,1.063-6.734-1.065-8.879
	c-0.793,0.267-1.74,0.242-1.813-0.289c-0.358-2.585-1.004-5.328-2.301-7.621c-2.527-4.468-3.467,0.336-3.3,3.085
	c0.295,4.86,1.69,9.604,2.038,14.446c0.113,0.154,0.164,0.357,0.11,0.618c-0.017,0.082-0.039,0.162-0.056,0.244
	c0.006,0.14,0.021,0.279,0.026,0.419c0.006,0.204-0.09,0.39-0.249,0.551c-1.771,7.153-5.913,13.207-10.23,19.112
	c-2.733,3.738-6.16,7.886-8.011,12.422c0.123,0.286-0.021,0.575-0.312,0.811c-0.844,2.335-1.249,4.769-0.898,7.302
	c0.202,1.458-2.702,2.193-2.897,0.775c-0.396-2.863,0.047-5.57,0.969-8.143C476.974,209.776,474.761,208.651,472.34,208.245z
	 M414.161,170.601c-0.442-2.611-1.66-4.862-4.742-6.208c-4.119-1.798-6.753-5.926-6.022-10.511c0.52-3.258,3.886-6.191,7.166-6.373
	c3.285-0.183,5.425,1.453,6.636,3.975c2.147-4.908,3.138-10.198,0.953-15.361c-0.322-0.762,1.077-1.359,1.6-1.365
	c1.804-0.022,3.808,0.027,5.545-0.524c2.526-0.804,5.019-3.51,1.565-4.539c-1.721-0.513,0.569-2.169,1.706-1.83
	c0.104,0.031,0.199,0.058,0.295,0.086c7.761,0.272,14.888-3.107,20.016-8.757c-4.048,1.464-8.083,2.672-12.482,2.769
	c-0.088,0.002-0.159-0.003-0.23-0.007c-1.074,0.229-2.471-0.1-1.521-1.032c3.319-3.262,4.012-7.392,3.525-11.712
	c-6.409,5.367-14.442,7.93-22.056,11.34c-0.343,0.588-0.697,1.172-1.087,1.742c-0.795,1.163-3.501,0.603-2.447-0.939
	c0.893-1.307,1.619-2.669,2.274-4.069c-9.366,5.86-21.474,8.73-25.74,19.805c-0.417,1.082-2.562,1.196-2.835,0.233
	c-0.667-0.462-1.361-0.8-2.044-1.144C382.775,154.771,399.958,162.319,414.161,170.601z M392.05,197.643
	c-2.019,1.761-3.708,3.824-4.653,6.402c-3.528,9.624-3.237,19.828-4.697,29.819c-0.036,0.248-0.317,0.438-0.688,0.576
	c0.192,0.486,0.417,0.955,0.684,1.398c0.402,0.039,0.693,0.202,0.671,0.541c-0.008,0.127-0.026,0.254-0.036,0.38
	c4.806,6.286,17.226,7.917,24.445,6.89c-0.105-0.146-0.145-0.338-0.078-0.585c1.651-6.156,2.986-12.392,4.637-18.548
	c0.35-1.304,3.322-1.628,2.94-0.203c-1.651,6.156-2.986,12.391-4.637,18.548c-0.071,0.266-0.254,0.487-0.492,0.665
	c0.6,0.298,0.442,1.021-0.797,1.271c-1.427,0.289-3.112,0.488-4.945,0.578c-1.001,5.321-4.292,11.588-3.402,17.02
	c0.718,4.382,3.96,7.194,6.378,10.703c4.333,6.288,8.681,15.808,15.676,19.53c0.165,0.088,0.266,0.186,0.317,0.288
	c0.574,0.005,1.083,0.226,1.17,0.681c1.782,0.432,3.598,0.723,5.435,0.85c3.68,0.254,7.426-0.088,11.069-0.924
	c0.165-0.05,0.328-0.101,0.49-0.152c0.739-0.235,1.454-0.491,2.129-0.772c4.34-1.809,8.865-4.004,12.107-5.64
	c0.191-0.135,0.39-0.263,0.579-0.4c2.746-2.013,12.591-9.633,6.54-11.369c0.152,0.528,0.293,1.06,0.469,1.583
	c0.291,0.865-2.587,1.701-2.897,0.777c-4.827-14.386-0.641-30.507-0.538-45.269c0.053-7.613-1.057-15.005-4.173-22.001
	c-2.983-6.696-6.795-12.977-9.78-19.674c-0.348-0.78,2.485-1.702,2.897-0.777c3.169,7.112,7.487,13.725,10.327,20.979
	c2.044,5.22,3.095,10.476,3.458,15.906c0.832-1.316,1.57-2.683,2.229-4.087c0.93-1.979,1.713-4.029,2.391-6.121
	c0.974-3.005,1.743-6.09,2.464-9.149c-0.032-0.152-0.02-0.318,0.063-0.488c0.019-0.038,0.053-0.06,0.074-0.095
	c0.064-0.275,0.129-0.55,0.193-0.824c-0.1-0.032-0.185-0.075-0.241-0.142c-4.804-5.655-7.851-12.726-12.925-18.136
	c-2.624-2.797-5.733-4.117-9.066-4.711c-1.998-0.356-4.074-0.454-6.178-0.439c-1.86,0.013-3.738,0.104-5.6,0.175
	c0.31,1.241,0.778,2.527,1.361,3.85c0.789,0.059,1.409,0.516,0.783,1.344c-5.494,7.265-18.735,3.973-23.222-3.012
	c-2.354,1.077-4.711,2.156-7.045,3.281c-2.815,1.357-5.597,2.783-8.292,4.364C397.077,194.028,394.349,195.638,392.05,197.643z
	 M412.508,304.166c4.372-1.164,7.048-5.434,8.854-9.609c-0.017-0.005-0.033-0.007-0.05-0.012c-0.208-0.057-0.219-0.162-0.112-0.286
	c-0.157-0.012-0.301-0.046-0.418-0.108c-7.601-4.046-11.871-14.068-16.719-20.769c-2.764-3.82-5.778-6.533-6.023-11.538
	c-0.27-5.488,2.565-11.07,3.501-16.421c-6.475-0.094-13.986-1.544-18.651-5.221c-1.487,8.423-5.51,16.918-4.324,25.383
	c0.907,6.472,4.487,11.173,8.563,16.031c4.42,5.271,9.131,10.383,14.333,14.896C404.058,298.766,408.422,303.081,412.508,304.166z
	 M413.829,451.966c0.39,0.142,0.666,0.447,0.645,0.944c-0.185,4.44,10.904,2.071,12.597-0.022c0.277-0.343,0.735-0.52,1.198-0.557
	c-0.002-9.602-0.009-19.279,0.26-28.953c-6.975,0.009-13.949,0.077-20.923,0.089C409.06,433.086,411.341,442.611,413.829,451.966z
	 M430.255,454.886c-0.598,0.218-1.333,0.245-1.72-0.039c-2.617,2.238-6.633,2.788-9.919,2.711c-1.495-0.035-3.486-0.295-4.979-1.089
	c-1.3,7.251-4.372,17.722,1.708,21.845c4.691,3.181,12.521,1.9,18.025,1.595c5.502-0.306,33.665-0.958,32.955-9.917
	c-0.23-0.059-0.42-0.176-0.528-0.367c-3.759-6.66-13.937-7.058-20.603-8.437C440.048,460.122,433.961,458.87,430.255,454.886z
	 M437.045,361.581c-8.18,3.3-18.02,1.566-26.778-0.971c-0.337,11.446-2.964,22.523-3.927,33.916
	c-0.791,9.365-0.222,18.717,1.126,27.987c0.411-0.169,0.813-0.293,1.017-0.293c6.693-0.005,13.386-0.066,20.079-0.085
	C429.183,401.65,431.11,381.206,437.045,361.581z M498.53,325.842c0.201-0.746,0.419-1.485,0.628-2.229l-0.789,2.217
	C498.423,325.834,498.477,325.837,498.53,325.842z M498.407,359.011c8.125,0.024,16.249,0.184,24.374,0.197
	c3.105-9.456,6.552-18.825,9.232-28.264c1.471-5.183,2.86-10.426,3.685-15.757c0.767-4.959,1.72-10.503-1.384-14.91
	c-4.766-6.764-13.079-9.685-20.917-11.46c-3.606,11.115-7.676,22.041-10.915,33.27c0.203,0.094,0.305,0.251,0.22,0.488
	c-0.425,1.19-0.799,2.388-1.15,3.589c0.542,0.105,0.305,0.381-0.178,0.644C498.431,337.287,498.149,348.144,498.407,359.011z
	 M503.695,475.626c0.47,0.274,0.96,0.523,1.475,0.743c0.067-0.003,0.139-0.015,0.203-0.015c2.562,0.02,5.125,0.249,7.67-0.096
	c0.496-0.604,0.98-1.428,1.531-2.52c0.04-0.08,0.128-0.153,0.13-0.23c0.002-0.073,0.008-0.15,0.015-0.229
	c-1.173-1.803-2.051-3.76-3.13-5.667c-0.668-1.182-1.365-2.338-1.975-3.534c-0.182-0.146-0.39-0.262-0.583-0.298
	c-2.779-0.523-5.397-1.429-7.994-3.121c-1.617,1.847-2.945,3.97-4.675,5.725c0.026,0.716,0.256,1.429,0.669,2.104
	c0.873,1.428,1.819,2.783,2.896,3.991C501.073,473.644,502.329,474.699,503.695,475.626z M530.041,429.229
	c-1.099-0.543-2.23-1.008-3.388-1.39c0.316,0.187,0.628,0.372,0.934,0.56c0.405,0.249,0.764,0.714,1.161,0.849
	C529.179,429.236,529.61,429.228,530.041,429.229z M543.479,444.78c-0.438,0.707-0.826,1.442-1.19,2.194
	c-0.225,0.919-0.039,1.836,0.041,2.804c0.181,2.181,0.529,4.469,0.069,6.547c-0.061,0.274-0.097,0.537-0.121,0.795
	c0.571,1.44,1.478,2.727,2.438,3.967C545.953,455.733,545.411,450.068,543.479,444.78z M534.95,463.175
	c-1.638,3.868-4.073,7.138-6.783,10.316c0.309,0.781,0.6,1.5,0.821,2.24c0.083,0.276,0.198,0.467,0.333,0.621
	c1.281,0.223,2.721,0.314,3.657-0.183c0.468-0.248,1.13-0.438,1.705-0.386c1.682-1.131,3.236-2.477,4.606-4.059
	c0.464-0.535,0.891-1.085,1.299-1.641c1.004-1.959,1.753-4.083,2.62-6.118c0.022-0.052,0.025-0.115,0.036-0.174
	c-0.894-1.171-1.855-2.335-2.661-3.582C538.674,461.214,536.805,462.194,534.95,463.175z M508.199,444.327
	c0.578-0.21,1.181-0.745,1.47-1.289c1.425-2.689,2.758-5.434,4.244-8.406c0.006-0.146-0.005-0.287-0.019-0.429
	c-0.462-0.613-1.099-1.365-1.568-2.218c-0.337-0.613-0.74-1.029-1.191-1.287c-3.635,0.789-7.358,1.566-10.454,3.681
	c-2.028,2.354-3.387,5.087-4.344,8.038c-0.003,0.01-0.004,0.021-0.007,0.032c0.137,0.056,0.241,0.139,0.285,0.263
	c0.556,1.555,1.611,2.985,2.895,4.249c0.387,0.063,0.813,0.007,1.289-0.161C503.25,445.933,505.754,445.212,508.199,444.327z
	 M518.247,434.832c-0.5,0.012-1.037,0.01-1.566,0.06c-0.411,1.636-1.584,3.309-2.309,4.575c-1.184,2.069-2.712,4.242-3.239,6.606
	c0.961,1.704,1.938,3.398,2.953,5.07c0.773,1.272,1.78,2.088,3.065,2.346c1.233-0.242,2.466-0.5,3.719-0.705
	c2.682-0.439,5.396-0.484,8.057-1c1.175-1.773,2.139-3.705,3.013-5.652c0.119-0.266,0.231-0.563,0.325-0.871
	c-1.98-3.682-3.842-7.537-7.386-9.948C522.705,434.913,520.451,434.782,518.247,434.832z M525.955,472.673
	c2.776-3.269,5.26-6.66,6.709-10.805c-0.927-2.184-1.723-4.435-3.454-6.21c-1.07-1.096-2.145-1.813-3.765-1.628
	c-0.693,0.079-1.396,0.074-2.102,0.058c-0.508,0.06-1.016,0.125-1.524,0.208c-2.2,0.36-4.359,0.868-6.542,1.232
	c-1.185,1.98-2.396,3.945-3.589,5.92c0.892,2.257,2.279,4.3,3.369,6.475c0.975,1.946,1.994,3.826,3.364,5.504
	C520.946,473.804,523.462,473.612,525.955,472.673z M517.007,426.658c-2.159,0.177-4.326,0.637-6.456,1.447
	c-1.069,0.407-2.117,0.87-3.137,1.384c1.49-0.373,2.995-0.699,4.489-1.037c0.237-0.054,0.449-0.063,0.64-0.042
	c0.412-0.254,0.829-0.496,1.266-0.698C514.821,427.245,515.935,426.996,517.007,426.658z M494.18,463.718
	c0.261,0.247,0.54,0.478,0.834,0.693c1.633-1.82,2.941-3.916,4.63-5.689c-0.003-0.013-0.002-0.021-0.006-0.035
	c-0.791-2.939-1.428-5.9-0.777-8.926c-1.871-1.399-3.568-3.098-4.597-5.052c-0.445,0.372-0.854,0.781-1.196,1.24
	c-0.173,0.61-0.327,1.23-0.453,1.863C491.553,453.177,492.163,458.751,494.18,463.718z M514.202,479.748
	c-0.69-0.497-1.373-0.996-2.078-1.483c-0.074-0.052-0.169-0.074-0.262-0.1c-1.016,0.096-2.035,0.122-3.055,0.114
	C510.548,478.934,512.357,479.426,514.202,479.748z M527.834,478.986c1.168-0.353,2.312-0.776,3.418-1.286
	c-0.617,0.069-1.244,0.082-1.871,0.067C528.868,478.169,528.354,478.575,527.834,478.986z M533.705,431.403
	c-0.417-0.189-0.842-0.368-1.28-0.533c-0.223,0.046-0.445,0.075-0.649,0.074c-1.006-0.006-2.011-0.036-3.014-0.034
	c-0.429,1.116-0.839,2.187-1.253,3.265c3.447,2.309,5.355,5.993,7.257,9.57c0.061-0.002,0.114,0.004,0.179-0.002
	c0.467-0.047,0.99,0.364,1.473,0.597c1.135,0.55,2.272,1.106,3.417,1.669c0.703-1.382,1.494-2.708,2.53-3.902
	c-1.088-2.338-2.449-4.572-4.045-6.641c-0.003-0.003-0.007-0.005-0.01-0.008C536.917,433.93,535.366,432.575,533.705,431.403z
	 M547.983,414.343c-0.002-0.007,0-0.015-0.002-0.021c-0.093-0.037-0.18-0.081-0.254-0.144c-5.436-4.615-13.041-6.649-19.413-9.635
	c-3.5-1.639-9.321-3.909-11.457-7.787c-2.818,5.983-13.809,9.299-17.876,3.507c-0.269,0.229-0.656,0.37-0.955,0.45
	c-0.05,0.014-0.151,0.033-0.269,0.052c-1.267,6.559-4.954,16.84,0.283,20.495c5.251,3.665,14.54,2.583,20.813,2.861
	C525.369,424.41,552.741,427.072,547.983,414.343z M421.892,221.524c-0.71-2.402,0.947-4.504,2.911-5.68
	c0.418-0.25,1.013-0.445,1.547-0.401c0.399-0.388,1.137-0.74,1.671-0.702c2.376,0.168,4.6,1.429,4.671,4.048
	c0.032,1.189-0.459,2.245-1.223,3.086c2.298,0.597,4.201,2.218,4.272,4.841c0.083,3.036-2.339,5.549-5.225,6.193
	c-2.721,0.608-6.755,0.411-7.719-2.85c-0.71-2.402,0.431-4.632,2.198-6.172C423.592,223.679,422.333,223.019,421.892,221.524z
	 M428.908,223.53c-0.106,0.036-0.212,0.066-0.319,0.096c-0.095,0.171-0.239,0.324-0.408,0.425c-1.646,0.985-3.185,2.865-2.575,4.929
	c0.604,2.041,2.912,2.926,4.86,2.053c3.909-1.753,2.554-7.208-1.516-7.496C428.935,223.535,428.923,223.531,428.908,223.53z
	 M424.719,220.509c0.418,1.414,1.98,2.334,3.425,1.687c2.854-1.279,1.697-5.537-1.188-5.804c-0.104,0.125-0.233,0.236-0.356,0.311
	C425.337,217.458,424.261,218.961,424.719,220.509z M177.53,234.345c1.065-1.43,2.246-2.748,3.516-3.957
	c-0.08-0.27,0.039-0.594,0.496-0.939c0.766-0.579,1.573-1.06,2.399-1.498c0.757-0.567,1.533-1.107,2.334-1.604
	c2.958-2.042,6.325-3.432,10.004-4.151c0.133-0.026,0.266-0.039,0.398-0.063c9.509-2.075,19.754,0.133,27.033,7.611
	c0.109,0.034,0.2,0.084,0.259,0.157c9.832,12.273,11.17,31.349-2.656,41.347c-0.422,0.305-0.861,0.589-1.3,0.874
	c-3.657,3.357-8.18,4.736-13.394,5.135c-6.379,1.037-13.029,0.328-18.765-2.56C173.294,267.363,167.427,247.9,177.53,234.345z
	 M187.029,271.626c0.47,0.274,0.96,0.523,1.475,0.743c0.067-0.003,0.139-0.015,0.203-0.015c2.562,0.02,5.125,0.249,7.67-0.096
	c0.496-0.604,0.98-1.428,1.531-2.52c0.04-0.08,0.128-0.153,0.13-0.23c0.002-0.073,0.008-0.15,0.015-0.229
	c-1.173-1.803-2.051-3.76-3.13-5.667c-0.668-1.182-1.366-2.338-1.975-3.534c-0.182-0.146-0.39-0.262-0.583-0.298
	c-2.779-0.523-5.397-1.429-7.994-3.121c-1.617,1.847-2.945,3.97-4.675,5.725c0.026,0.716,0.256,1.429,0.669,2.104
	c0.873,1.428,1.819,2.783,2.896,3.991C184.406,269.644,185.662,270.699,187.029,271.626z M179.671,238.417
	c-0.003,0.01-0.004,0.021-0.007,0.032c0.137,0.056,0.24,0.139,0.285,0.263c0.556,1.555,1.611,2.985,2.895,4.249
	c0.387,0.063,0.814,0.007,1.289-0.161c2.452-0.867,4.956-1.588,7.4-2.473c0.578-0.21,1.181-0.745,1.47-1.289
	c1.425-2.689,2.758-5.434,4.244-8.406c0.006-0.146-0.005-0.287-0.019-0.429c-0.462-0.613-1.099-1.365-1.568-2.218
	c-0.336-0.613-0.74-1.029-1.191-1.287c-3.635,0.789-7.357,1.566-10.453,3.681C181.987,232.732,180.628,235.466,179.671,238.417z
	 M213.375,225.229c-1.099-0.543-2.23-1.008-3.388-1.39c0.316,0.187,0.627,0.372,0.934,0.56c0.405,0.249,0.764,0.714,1.161,0.849
	C212.512,225.236,212.943,225.228,213.375,225.229z M226.813,240.78c-0.438,0.707-0.826,1.442-1.19,2.193
	c-0.226,0.919-0.04,1.836,0.041,2.805c0.181,2.181,0.529,4.469,0.069,6.547c-0.061,0.274-0.096,0.537-0.121,0.795
	c0.571,1.44,1.478,2.727,2.438,3.967C229.286,251.733,228.745,246.068,226.813,240.78z M218.284,259.175
	c-1.638,3.869-4.073,7.138-6.783,10.316c0.309,0.781,0.6,1.5,0.821,2.24c0.083,0.276,0.198,0.467,0.333,0.621
	c1.281,0.223,2.72,0.314,3.657-0.183c0.468-0.248,1.13-0.438,1.705-0.386c1.682-1.131,3.236-2.477,4.606-4.059
	c0.464-0.535,0.891-1.085,1.299-1.641c1.004-1.959,1.753-4.083,2.62-6.118c0.022-0.052,0.025-0.115,0.036-0.174
	c-0.894-1.171-1.855-2.335-2.661-3.582C222.008,257.214,220.139,258.194,218.284,259.175z M209.289,268.673
	c2.776-3.269,5.26-6.66,6.708-10.805c-0.927-2.184-1.723-4.435-3.454-6.21c-1.07-1.096-2.145-1.813-3.765-1.628
	c-0.693,0.079-1.396,0.074-2.101,0.058c-0.508,0.06-1.017,0.125-1.525,0.208c-2.2,0.36-4.359,0.868-6.542,1.232
	c-1.185,1.98-2.396,3.945-3.59,5.92c0.892,2.257,2.279,4.3,3.37,6.475c0.975,1.946,1.994,3.826,3.364,5.504
	C204.279,269.804,206.796,269.612,209.289,268.673z M201.58,230.832c-0.5,0.012-1.036,0.01-1.566,0.06
	c-0.411,1.636-1.584,3.309-2.309,4.575c-1.185,2.069-2.712,4.242-3.239,6.606c0.96,1.704,1.938,3.398,2.953,5.07
	c0.773,1.272,1.78,2.088,3.065,2.346c1.233-0.242,2.466-0.5,3.719-0.705c2.682-0.439,5.396-0.484,8.057-1
	c1.175-1.773,2.139-3.705,3.013-5.652c0.119-0.266,0.231-0.563,0.324-0.871c-1.979-3.682-3.841-7.537-7.386-9.948
	C206.038,230.913,203.784,230.782,201.58,230.832z M197.536,275.748c-0.69-0.497-1.373-0.996-2.078-1.483
	c-0.074-0.052-0.169-0.074-0.262-0.1c-1.016,0.096-2.035,0.122-3.055,0.114C193.881,274.934,195.69,275.426,197.536,275.748z
	 M211.168,274.986c1.168-0.353,2.312-0.776,3.418-1.286c-0.617,0.069-1.244,0.082-1.871,0.067
	C212.202,274.169,211.688,274.575,211.168,274.986z M217.039,227.403c-0.417-0.189-0.842-0.368-1.28-0.533
	c-0.223,0.046-0.445,0.075-0.649,0.074c-1.006-0.006-2.011-0.036-3.014-0.034c-0.429,1.116-0.839,2.187-1.253,3.265
	c3.447,2.309,5.355,5.993,7.257,9.57c0.062-0.002,0.114,0.004,0.179-0.002c0.467-0.047,0.99,0.364,1.473,0.597
	c1.135,0.55,2.272,1.106,3.417,1.669c0.703-1.382,1.494-2.708,2.53-3.902c-1.089-2.338-2.45-4.572-4.045-6.641
	c-0.003-0.003-0.007-0.005-0.01-0.008C220.251,229.93,218.7,228.575,217.039,227.403z M200.34,222.658
	c-2.159,0.177-4.326,0.637-6.456,1.447c-1.069,0.407-2.117,0.87-3.137,1.384c1.489-0.373,2.995-0.699,4.489-1.037
	c0.237-0.054,0.449-0.062,0.64-0.042c0.413-0.254,0.83-0.496,1.266-0.698C198.155,223.245,199.269,222.996,200.34,222.658z
	 M177.513,259.718c0.261,0.247,0.54,0.478,0.834,0.693c1.633-1.82,2.94-3.916,4.629-5.689c-0.003-0.013-0.002-0.021-0.006-0.035
	c-0.791-2.939-1.428-5.9-0.777-8.926c-1.871-1.399-3.568-3.098-4.597-5.052c-0.446,0.372-0.854,0.781-1.196,1.24
	c-0.173,0.61-0.327,1.23-0.453,1.863C174.886,249.177,175.497,254.751,177.513,259.718z" fill="#0984E3"></path>
</svg>